<?xml version="1.0" encoding="utf-8"?>
<!-- Generator: Adobe Illustrator 20.1.0, SVG Export Plug-In . SVG Version: 6.00 Build 0)  -->
<svg version="1.0" xmlns="http://www.w3.org/2000/svg" xmlns:xlink="http://www.w3.org/1999/xlink" x="0px" y="0px"
	 viewBox="0 0 1024 800" style="enable-background:new 0 0 1024 800;" xml:space="preserve">
<style type="text/css">
	.st0{fill:#6D6E71;}
	.st1{fill:#005D64;}
	.st2{fill:#E6F6EB;}
	.st3{fill:#AEE0E7;}
	.st4{fill:#FFFFFF;}
	.st5{fill:#F6C61C;}
	.st6{fill:#F6E31C;}
	.st7{fill:#BAE532;}
	.st8{fill:#2AB54B;}
	.st9{fill:#5F4325;}
	.st10{fill:#F8BE58;}
	.st11{fill:#F8FCFF;}
	.st12{fill:#A5712F;}
	.st13{fill:#EC9006;}
	.st14{fill:#CC8D1E;}
	.st15{fill:none;stroke:#231F20;stroke-width:0.821;stroke-miterlimit:10;}
	.st16{fill:#0A646C;}
	.st17{fill:#FFFDFE;}
	.st18{fill:#FFFFFF;stroke:#ED1C24;stroke-width:0.7902;stroke-miterlimit:10;}
	.st19{fill:#FFFFFF;stroke:#231F20;stroke-width:0.8466;stroke-miterlimit:10;}
	.st20{fill:#FFFFFB;}
	.st21{fill:#99695B;}
	.st22{fill:#FFFAC3;}
	.st23{fill:#694D35;}
	.st24{fill:#FCFCFC;}
	.st25{fill:#A2CCCC;}
	.st26{fill:#453F41;}
	.st27{fill:#60AACF;}
	.st28{fill:#F1F2F2;}
	.st29{fill:#82B6CB;}
	.st30{fill:#7AA9BF;}
	.st31{opacity:0.3;fill:#FFFFFB;}
	.st32{fill:#745F4A;}
	.st33{fill:#604E3D;}
	.st34{fill:#B08B70;}
	.st35{fill:#929292;}
	.st36{fill:#969A9D;}
	.st37{fill:#0E303F;}
	.st38{fill:#A6DAE9;}
	.st39{fill:#FD6120;}
	.st40{fill:#2C5871;}
	.st41{fill:#1C75BC;}
	.st42{fill:#15B0BF;}
	.st43{fill:#D1ECFB;}
	.st44{fill:#103754;}
	.st45{fill:#174F78;}
	.st46{fill:#B1B6B2;}
	.st47{fill:#0D2F44;}
	.st48{opacity:0.1;}
	.st49{fill:#F8FDFF;}
	.st50{fill:#36BD95;}
	.st51{fill:#FFFBFF;}
	.st52{fill:#E6E4E7;}
	.st53{fill:#002E3E;}
	.st54{fill:#002028;}
	.st55{fill:#D44741;}
	.st56{fill:#FFFFFF;stroke:#065170;stroke-width:1.0254;stroke-miterlimit:10;}
	.st57{fill:#DDC565;}
	.st58{fill:#F2EBB7;}
	.st59{fill:#CECC9C;}
	.st60{fill:#831726;}
	.st61{fill:#F28570;}
	.st62{fill:#C2534A;}
	.st63{fill:#00A449;}
	.st64{fill:#9E4A25;}
	.st65{fill:#893D22;}
	.st66{fill:#22A1C2;}
	.st67{fill:#653E15;}
	.st68{fill:#FED851;}
	.st69{display:none;}
	.st70{display:inline;}
	.st71{fill:#EA9628;}
	.st72{fill:#F9DAB4;}
	.st73{fill:#7F5732;}
	.st74{fill:#BDCCD4;}
	.st75{fill:#EFC4A0;}
	.st76{fill:#F4EFED;}
	.st77{fill:#E2DCD9;}
	.st78{fill:#C1272D;}
	.st79{fill:#F4D3B0;}
	.st80{fill:#E08A22;}
	.st81{fill:#EDA672;}
	.st82{fill:#4C0C0A;}
	.st83{fill:#E88567;}
	.st84{fill:#B2543F;}
	.st85{fill:#C65044;}
	.st86{fill:#4C3626;}
	.st87{fill:#F9F5ED;}
	.st88{fill:#C6C2C1;}
	.st89{fill:#334185;}
	.st90{fill:#3F3E3D;}
	.st91{fill:#3A332D;}
	.st92{fill:#46589B;}
	.st93{fill:#D19865;}
	.st94{fill:#563A28;}
	.st95{fill:#2D2926;}
	.st96{fill:#423429;}
	.st97{fill:#382B23;}
	.st98{fill:#634631;}
	.st99{fill:#70523E;}
	.st100{fill:#E28D27;}
	.st101{display:inline;fill:#231F20;}
	.st102{display:inline;fill:#AA2633;}
</style>
<g id="SIZES">
</g>
<g id="BACK">
	<rect class="st0" width="1024" height="800"/>
</g>
<g id="SCENE">
	<g>
		<rect x="521" y="79.3" class="st0" width="437.2" height="436.7"/>
		<g id="Element_1_">
			<g id="image_1_">
				<g>
					<rect x="835.6" y="125.7" class="st1" width="88.5" height="88.4"/>
					<rect x="838.9" y="129" class="st2" width="82" height="81.9"/>
					<rect x="842.2" y="132.2" class="st3" width="75.4" height="75.3"/>
					<g>
						<g>
							<g>
								<g>
									<path class="st4" d="M905.4,151.3C905.4,151.3,905.3,151.3,905.4,151.3c-0.4-2.6-2.6-4.7-5.3-4.7c-2.9,0-5.3,2.4-5.3,5.3
										c0,0,0,0.1,0,0.1c-0.2-0.1-0.4-0.1-0.7-0.1c-1.4,0-2.5,1-2.7,2.4c-0.3-0.1-0.7-0.2-1.1-0.2c-1.8,0-3.3,1.5-3.3,3.3
										c0,1.8,1.5,3.3,3.3,3.3h15.1c2.6,0,4.7-2.1,4.7-4.7C910.1,153.4,908,151.3,905.4,151.3z"/>
								</g>
							</g>
						</g>
						<g>
							<g>
								<g>
									<path class="st4" d="M863.1,164.3C863.1,164.3,863.1,164.3,863.1,164.3c-0.4-2.6-2.6-4.7-5.3-4.7c-2.9,0-5.3,2.4-5.3,5.3
										c0,0,0,0.1,0,0.1c-0.2-0.1-0.4-0.1-0.7-0.1c-1.4,0-2.5,1-2.7,2.4c-0.3-0.1-0.7-0.2-1.1-0.2c-1.8,0-3.3,1.5-3.3,3.3
										c0,1.8,1.5,3.3,3.3,3.3h15.1c2.6,0,4.7-2.1,4.7-4.7C867.8,166.4,865.7,164.3,863.1,164.3z"/>
								</g>
							</g>
						</g>
						<g>
							<ellipse class="st5" cx="875.4" cy="150.1" rx="7" ry="6.9"/>
							<path class="st6" d="M882.4,150.1c0-3.8-3.1-6.9-7-6.9V157C879.2,157,882.4,153.9,882.4,150.1z"/>
						</g>
						<g>
							<path class="st7" d="M841.6,207.7c0,0,11.4-2.8,17.2-8c7.8-7,12-12.6,20.5-12.6c9.6,0,23.1,19.2,37.7,20.6
								C878.2,207.7,841.6,207.7,841.6,207.7z"/>
						</g>
						<g>
							<ellipse class="st8" cx="853" cy="192.7" rx="6.5" ry="6.5"/>
							<polygon class="st9" points="852.5,204.9 852.6,197.9 849.5,194.2 849.5,194.2 852.5,196.8 853,193.9 853.6,197 857,194.5 
								853.6,197.9 853.6,204.9 							"/>
						</g>
						<g>
							<ellipse class="st8" cx="868.7" cy="189.5" rx="4.8" ry="4.8"/>
							<polygon class="st9" points="868.4,198.5 868.4,193.3 866.1,190.6 866.1,190.6 868.4,192.5 868.7,190.4 869.1,192.7 
								871.7,190.8 869.1,193.3 869.1,198.5 							"/>
						</g>
						<g>
							<rect x="875" y="194.8" class="st10" width="28.7" height="12.8"/>
							<polygon class="st11" points="917.1,192.8 910.4,183.5 903.7,192.8 903.7,207.6 917.1,207.6 							"/>
							<polygon class="st12" points="910.4,183.5 881.8,183.5 873.3,192.8 903.7,192.8 							"/>
							<rect x="873.3" y="192.8" class="st13" width="30.3" height="2"/>
							<rect x="884.1" y="181.9" class="st11" width="2.7" height="5.3"/>
							<polygon class="st13" points="903.7,194.8 910.4,186 917.1,194.5 917.1,192.8 910.4,183.5 903.7,192.8 							"/>
							<rect x="877.9" y="197.3" class="st14" width="4.4" height="5.7"/>
							<rect x="884" y="197.3" class="st14" width="4.4" height="5.7"/>
							<rect x="890.2" y="197.3" class="st14" width="4.4" height="5.7"/>
							<rect x="896.3" y="197.3" class="st14" width="4.4" height="5.7"/>
							<rect x="908.1" y="197.3" class="st14" width="4.4" height="5.7"/>
						</g>
					</g>
				</g>
				<polyline class="st15" points="850.3,125.7 879.9,103.6 909.4,125.7 				"/>
			</g>
			<g id="clock_1_">
				<ellipse class="st16" cx="752.6" cy="142.6" rx="29.8" ry="29.8"/>
				<ellipse class="st17" cx="752.6" cy="142.6" rx="26.4" ry="26.4"/>
				<g>
					<rect x="728.4" y="142" class="st16" width="3" height="1.1"/>
					<rect x="773.5" y="142" class="st16" width="3" height="1.1"/>
				</g>
				<g>
					<rect x="751.9" y="118.5" class="st16" width="1.1" height="3"/>
					<rect x="751.9" y="163.6" class="st16" width="1.1" height="3"/>
				</g>
				<line class="st18" x1="752.6" y1="142.6" x2="733.6" y2="142.6"/>
				<line class="st19" x1="752.6" y1="145.5" x2="752.6" y2="122.7"/>
				<line class="st19" x1="753.7" y1="143.7" x2="743.8" y2="133.3"/>
			</g>
			<g id="headphone__x2B__book__x2B__image_1_">
				<rect x="825.5" y="272.7" class="st20" width="114.7" height="6.9"/>
				<g>
					<path class="st21" d="M929.5,271.9v-7.8h-36.1c-2.2,0-3.9,1.7-3.9,3.9v1.4v0c0.3,1.9,2,3.2,3.9,3.2h36.1v-7.8"/>
					<path class="st22" d="M929.5,264.9h-35.6c-2,0-3.6,1.6-3.6,3.6c0,2,1.6,3.6,3.6,3.6h35.6V264.9z"/>
				</g>
				<g>
					<g>
						<rect x="894.9" y="234.2" class="st23" width="30" height="29.9"/>
						<rect x="897.1" y="236.4" class="st24" width="25.5" height="25.5"/>
						<g>
							<g>
								<g>
									<g>
										<g>
											<path class="st25" d="M905.7,253c0.8,0.1,1.9-0.1,3-0.1c0.2,0,0.4,0.1,0.6,0.1c0.2,0,0.4,0,0.7-0.1c2.9,0.1,5.2,1,5.2-5
												c0-4.1-2.6-7.4-5.9-7.4c-3.3,0-5.9,3.3-5.9,7.4c0,3.3,0.6,4.5,1.6,5C905.3,252.9,905.5,253,905.7,253L905.7,253z
												 M904.8,245.6c0.6,0.9,2.2,0.7,3.6-0.4c0.4-0.3,0.7-0.6,0.9-0.9c0,0,0.1,0,0.1,0c0.1,0,0.3,0.1,0.4,0.1
												c0.1,0.1,0.3,0.1,0.4,0.2c0.1,0.1,0.2,0.2,0.3,0.2c0.1,0.1,0.2,0.2,0.3,0.3c0.1,0.1,0.2,0.2,0.2,0.3
												c0.1,0.1,0.1,0.2,0.2,0.3c0.1,0.1,0.1,0.2,0.1,0.2c0.1,0.1,0.1,0.2,0.1,0.2s0-0.1,0-0.2c0-0.1,0-0.2-0.1-0.2
												c0-0.1-0.1-0.2-0.1-0.3c0-0.1-0.1-0.2-0.2-0.4c-0.1-0.1-0.1-0.3-0.2-0.4c-0.1-0.1-0.2-0.3-0.3-0.4
												c-0.1-0.1-0.2-0.2-0.4-0.4c-0.1-0.1-0.3-0.2-0.4-0.3c0.1-0.1,0.1-0.3,0.1-0.4c0.5,0.2,1,0.5,1.4,0.9
												c1.5,1.5,0.9,3.2,2,2.1c0.2-0.2,0.3-0.4,0.4-0.6c0,0,0.1,0,0.1,0c0.2,0,0.3,0.2,0.3,0.3c0.2,0.3,0.2,0.6,0.1,1
												c-0.1,0.6-0.5,0.9-0.8,0.9l-0.2,0l-0.1,0.2c-0.6,2-2.1,4.2-3.8,4.2c-1.7,0-3.2-2.2-3.8-4.2l-0.1-0.2l-0.2,0
												c-0.3,0-0.7-0.4-0.8-0.9c-0.1-0.4-0.1-0.7,0.1-1C904.6,245.7,904.7,245.6,904.8,245.6L904.8,245.6z M904.8,245.6"/>
										</g>
									</g>
									<g>
										<g>
											<path class="st25" d="M913.8,253.6c-0.5,0.8-1,1.5-1.7,1.8c-1.5,0.7-2.6,1.4-2.6,1.4l0,0v0l0,0l0,0v0l0,0
												c0,0-1.1-0.6-2.6-1.4c-0.7-0.4-1.2-1-1.7-1.8c-2.2,0.9-3.7,2.9-3.7,4.7v3.7h15.9v-3.7C917.5,256.5,916,254.4,913.8,253.6
												L913.8,253.6z M913.8,253.6"/>
										</g>
									</g>
								</g>
							</g>
						</g>
					</g>
				</g>
				<g>
					<g>
						<path class="st4" d="M835.6,264.8c-3.9-11.2-1.4-19.4-1.3-19.7l1.2,0.4c0,0.1-2.4,8.2,1.3,18.9L835.6,264.8z"/>
					</g>
					<g>
						<path class="st26" d="M841.1,267.2c0.3,1-0.2,2-1.2,2.3l-1.3,0.4c-1,0.3-2-0.2-2.3-1.2l-1.7-5.1c-0.3-1,0.2-2,1.2-2.3l1.3-0.4
							c1-0.3,2,0.2,2.3,1.2L841.1,267.2z"/>
						<path class="st27" d="M846.9,267.2c0.5,1.6-0.3,3.3-1.9,3.8l-2.1,0.7c-1.6,0.5-3.3-0.3-3.8-1.9l-2.8-8.5
							c-0.5-1.6,0.3-3.3,1.9-3.8l2.1-0.7c1.6-0.5,3.3,0.3,3.8,1.9L846.9,267.2z"/>
						<path class="st4" d="M848.6,269.3c0.4,1.1-0.2,2.4-1.4,2.7l-0.5,0.2c-1.1,0.4-2.4-0.2-2.7-1.4l-4.4-13.4
							c-0.4-1.1,0.2-2.4,1.4-2.7l0.5-0.2c1.1-0.4,2.4,0.2,2.7,1.4L848.6,269.3z"/>
					</g>
					<g>
						<path class="st4" d="M869.9,265l-1.2-0.4c3.8-10.8,1.5-18.8,1.5-18.9l1.2-0.4C871.4,245.6,873.8,253.8,869.9,265z"/>
					</g>
					<g>
						<path class="st26" d="M864.3,267.3c-0.3,1,0.2,2,1.1,2.3l1.3,0.4c1,0.3,2-0.2,2.3-1.1l1.7-5.1c0.3-1-0.2-2-1.1-2.3l-1.3-0.4
							c-1-0.3-2,0.2-2.3,1.1L864.3,267.3z"/>
						<path class="st27" d="M858.6,267.2c-0.5,1.6,0.3,3.3,1.9,3.8l2.1,0.7c1.6,0.5,3.3-0.3,3.8-1.9l2.9-8.5
							c0.5-1.6-0.3-3.3-1.9-3.8l-2.1-0.7c-1.6-0.5-3.3,0.3-3.8,1.9L858.6,267.2z"/>
						<path class="st4" d="M856.8,269.4c-0.4,1.1,0.2,2.4,1.4,2.7l0.5,0.2c1.1,0.4,2.4-0.2,2.7-1.4l4.5-13.4
							c0.4-1.1-0.2-2.4-1.4-2.7l-0.5-0.2c-1.1-0.4-2.4,0.2-2.7,1.4L856.8,269.4z"/>
					</g>
					<g>
						<g>
							<path class="st4" d="M835.6,246.2c-0.3,0-0.5-0.1-0.8-0.2c-0.9-0.4-1.4-1.6-0.9-2.5c2.6-5.7,9-11.7,19.1-11.7
								c7.9,0,14.8,4,19,11c0.5,0.9,0.2,2-0.7,2.6c-0.9,0.5-2.1,0.2-2.6-0.7c-1.6-2.7-6.4-9.1-15.7-9.1c-8.4,0-13.6,4.9-15.7,9.5
								C837,245.8,836.3,246.2,835.6,246.2z"/>
						</g>
					</g>
					<path class="st28" d="M834.8,246c0.3,0.1,0.5,0.2,0.8,0.2c0.7,0,1.4-0.4,1.7-1.1c2.1-4.6,7.3-9.5,15.7-9.5
						c9.3,0,14.1,6.4,15.7,9.1c0.5,0.9,1.7,1.2,2.6,0.7c0.2-0.1,0.4-0.3,0.5-0.4c0-0.1-0.1-0.3-0.2-0.4c-4.1-6.9-11.1-10.9-19-11
						c-9.9,0-16.2,5.7-18.9,11.2C833.9,245.3,834.3,245.8,834.8,246z"/>
				</g>
			</g>
			<g id="window_1_">
				<rect x="538.4" y="100.5" class="st20" width="154.5" height="253.2"/>
				<rect x="546" y="107" class="st3" width="139.2" height="240.3"/>
				<g>
					<g>
						<g>
							<g>
								<path class="st4" d="M601.9,161.6c0,0-0.1,0-0.1,0c-0.9-7.5-7.3-13.3-15.1-13.3c-8.4,0-15.2,6.8-15.2,15.2
									c0,0.1,0,0.2,0,0.2c-0.6-0.1-1.2-0.2-1.9-0.2c-4,0-7.2,3-7.7,6.8c-1-0.3-2-0.5-3.1-0.5c-5.1,0-9.3,4.1-9.3,9.2
									c0,5.1,4.1,9.2,9.3,9.2h43c7.4,0,13.3-6,13.3-13.3C615.2,167.6,609.3,161.6,601.9,161.6z"/>
							</g>
						</g>
					</g>
					<g>
						<g>
							<g>
								<path class="st4" d="M657.6,125.6c0,0-0.1,0-0.1,0c-0.9-7.5-7.3-13.3-15.1-13.3c-8.4,0-15.2,6.8-15.2,15.2
									c0,0.1,0,0.2,0,0.2c-0.6-0.1-1.2-0.2-1.9-0.2c-4,0-7.2,3-7.7,6.8c-1-0.3-2-0.5-3.1-0.5c-5.1,0-9.3,4.1-9.3,9.2
									c0,5.1,4.1,9.2,9.3,9.2h43c7.4,0,13.3-6,13.3-13.3C670.9,131.5,664.9,125.6,657.6,125.6z"/>
							</g>
						</g>
					</g>
					<g>
						<g>
							<g>
								<path class="st4" d="M665.2,207.5c0,0-0.1,0-0.1,0c-0.9-7.5-7.3-13.3-15.1-13.3c-8.4,0-15.2,6.8-15.2,15.2
									c0,0.1,0,0.2,0,0.3c-0.6-0.1-1.2-0.3-1.9-0.3c-4,0-7.2,3-7.7,6.8c-1-0.3-2-0.5-3.1-0.5c-5.1,0-9.3,4.1-9.3,9.2
									c0,5.1,4.1,9.2,9.3,9.2h43c7.4,0,13.3-6,13.3-13.3C678.6,213.4,672.6,207.5,665.2,207.5z"/>
							</g>
						</g>
					</g>
					<g>
						<polygon class="st29" points="546,347.2 592,243.6 640.7,347.2 						"/>
						<polygon class="st30" points="640.7,347.2 592,243.6 592,347.2 						"/>
						<polygon class="st4" points="578,275.1 584.1,271.9 582.9,284.1 589.2,274.7 592,291.3 597.2,271.5 609.2,280.1 605.5,272.3 
							592,243.6 						"/>
					</g>
					<g>
						<polygon class="st29" points="596.7,347.2 636.9,285.2 679.6,347.2 						"/>
						<polygon class="st30" points="679.6,347.2 636.9,285.2 636.9,347.2 						"/>
						<polygon class="st4" points="624.7,304 630,302.1 628.9,309.4 634.5,303.8 636.9,313.8 641.5,301.9 652,307 648.7,302.3 
							636.9,285.2 						"/>
					</g>
					<g>
						<ellipse class="st8" cx="657.2" cy="307.7" rx="21" ry="21"/>
						<polygon class="st9" points="655.8,347.1 655.9,324.5 645.8,312.5 645.8,312.5 655.8,320.8 657.3,311.4 659.2,321.5 
							670.3,313.5 659.2,324.5 659,347.1 						"/>
					</g>
				</g>
				<rect x="543.7" y="223.5" class="st20" width="145.6" height="7.1"/>
				<polygon class="st31" points="591.6,346.8 624,346.8 597.6,230.6 565.1,230.6 				"/>
				<polygon class="st31" points="642,346.8 674.4,346.8 647.9,230.6 615.5,230.6 				"/>
				<polygon class="st31" points="583.1,222.9 615.6,222.9 589.1,106.7 556.6,106.7 				"/>
				<polygon class="st31" points="642,222.9 674.4,222.9 647.9,106.7 615.5,106.7 				"/>
			</g>
			<g>
				<polygon class="st32" points="577.3,516 566.9,516 591,407.8 601.4,407.8 				"/>
				<polygon class="st33" points="596.5,407.8 572.4,516 577.3,516 601.4,407.8 				"/>
			</g>
			<g>
				<polygon class="st32" points="824.5,516 835,516 810.9,407.8 800.4,407.8 				"/>
				<polygon class="st33" points="805.4,407.8 829.5,516 824.5,516 800.4,407.8 				"/>
			</g>
			<g>
				<path class="st34" d="M904.8,399.6c0,4.5-3.7,8.2-8.2,8.2H569.1c-4.5,0-8.2-3.7-8.2-8.2l0,0c0-4.5,3.7-8.2,8.2-8.2h327.5
					C901.1,391.4,904.8,395.1,904.8,399.6L904.8,399.6z"/>
				<path class="st32" d="M569.1,407.8h327.5c4.5,0,8.2-3.7,8.2-8.2H560.9C560.9,404.1,564.6,407.8,569.1,407.8z"/>
			</g>
			<g id="pc_1_">
				<g>
					<g>
						<path class="st35" d="M730.1,372.2c-1.3,5.5-2.7,10.9-4,16.4c12.5,0,25,0,37.5,0c-1.3-5.5-2.7-10.9-4-16.4
							C749.8,372.2,740,372.2,730.1,372.2z"/>
						<path class="st36" d="M744.6,388.6c6.3,0,12.6,0,19,0c-1.3-5.5-2.7-10.9-4-16.4c-5,0-10,0-14.9,0V388.6z"/>
						<path class="st4" d="M765.9,388.3h-42.1c-1.1,0-1.9,1-1.9,2.3v0.9h46v-0.9C767.9,389.3,767,388.3,765.9,388.3z"/>
						<path class="st4" d="M681.5,365.8v9c0,1.7,1.4,3.1,3.2,3.1H805c1.7,0,3.2-1.4,3.2-3.1v-9H681.5z"/>
						<path class="st37" d="M808.2,365.8v-76.5c0-1.7-1.4-3.1-3.2-3.1H684.7c-1.7,0-3.2,1.4-3.2,3.1v76.5H808.2z"/>
						<rect x="686.7" y="291" class="st4" width="116.3" height="69.5"/>
					</g>
				</g>
				<g>
					<g>
						<rect x="698.5" y="303.3" class="st38" width="22.6" height="1.8"/>
						<rect x="774.9" y="303.3" class="st38" width="14.4" height="1.8"/>
						<rect x="756.7" y="303.3" class="st38" width="14.4" height="1.8"/>
						<rect x="738.6" y="303.3" class="st38" width="14.4" height="1.8"/>
						<g>
							<g>
								<rect x="698.5" y="312.1" class="st38" width="40.9" height="40.4"/>
								<path class="st38" d="M739.9,353.1h-42v-41.4h42V353.1L739.9,353.1z M699,352.1h39.8v-39.4H699V352.1L699,352.1z"/>
							</g>
							<g>
								<path class="st38" d="M739.3,353.1h-40.9c-0.2,0-0.4-0.1-0.5-0.3c-0.1-0.2-0.1-0.4,0.1-0.5l40.9-40.4
									c0.2-0.1,0.4-0.2,0.6-0.1c0.2,0.1,0.4,0.3,0.4,0.5v40.4C739.9,352.8,739.6,353.1,739.3,353.1L739.3,353.1z M699.7,352.1
									h39.1v-38.7L699.7,352.1L699.7,352.1z"/>
							</g>
							<g>
								<path class="st38" d="M739.3,353.1h-40.9c-0.3,0-0.5-0.2-0.5-0.5v-40.4c0-0.2,0.1-0.4,0.4-0.5c0.2-0.1,0.5,0,0.6,0.1
									l40.9,40.4c0.1,0.1,0.2,0.4,0.1,0.5C739.7,352.9,739.5,353.1,739.3,353.1L739.3,353.1z M699,352.1h39.1L699,313.4V352.1
									L699,352.1z"/>
							</g>
						</g>
						<rect x="745.3" y="312.9" class="st39" width="24.3" height="3"/>
						<rect x="745.3" y="320.5" class="st38" width="43.8" height="1.8"/>
						<rect x="745.3" y="326.1" class="st38" width="37.2" height="1.8"/>
						<rect x="745.3" y="331.7" class="st38" width="41.3" height="1.8"/>
						<rect x="745.3" y="337.3" class="st38" width="32.1" height="1.8"/>
						<g>
							<rect x="745.3" y="344.4" class="st39" width="14.2" height="5.3"/>
							<rect x="747.7" y="346.2" class="st4" width="9.4" height="1.8"/>
						</g>
					</g>
					<g>
						<path class="st38" d="M793.9,291.7h-98.1c-1.6,0-3,1.2-3,2.7v5h104v-5C796.9,292.9,795.5,291.7,793.9,291.7z"/>
						<g>
							<ellipse class="st4" cx="697.3" cy="295.6" rx="1.7" ry="1.5"/>
							<ellipse class="st4" cx="701.9" cy="295.6" rx="1.7" ry="1.5"/>
							<ellipse class="st4" cx="706.5" cy="295.6" rx="1.7" ry="1.5"/>
						</g>
						<rect x="712.8" y="294.3" class="st4" width="79.7" height="2.7"/>
					</g>
				</g>
			</g>
			<g id="globe_1_">
				<g>
					<rect x="598.5" y="378.8" class="st37" width="7.2" height="7.7"/>
					<g>
						<path class="st40" d="M626.6,363c-0.7,0.9-1.5,1.8-2.4,2.7c-12.2,12.2-32,12.2-44.3,0c-12.2-12.2-12.2-32,0-44.2
							c0.9-0.9,1.8-1.7,2.7-2.4l-3.2-3.2c-0.9,0.8-1.8,1.6-2.7,2.4c-14,13.9-14,36.5,0,50.5c14,13.9,36.6,13.9,50.5,0
							c0.9-0.9,1.7-1.7,2.4-2.7L626.6,363z"/>
					</g>
					
						<rect x="579.4" y="313.4" transform="matrix(0.7079 -0.7064 0.7064 0.7079 -55.8068 503.6282)" class="st37" width="3" height="11.8"/>
					<ellipse class="st37" cx="576.5" cy="315" rx="2.8" ry="2.8"/>
					<path class="st40" d="M619.9,391.4c-0.1-2.7-2.4-4.9-5.1-4.9h-24.9c-2.8,0-5,2.2-5.1,4.9H619.9z"/>
					
						<rect x="624.9" y="358.9" transform="matrix(0.7083 -0.7059 0.7059 0.7083 -74.8091 548.6146)" class="st37" width="3" height="11.8"/>
					<circle class="st37" cx="630.8" cy="369.1" r="2.8"/>
				</g>
				<path class="st41" d="M583.3,324.6c-10.5,10.5-10.5,27.5,0,37.9c10.5,10.5,27.5,10.4,38,0c10.5-10.5,10.5-27.5,0-37.9
					C610.8,314.2,593.8,314.2,583.3,324.6z"/>
				<g>
					<g>
						<path class="st42" d="M626.2,331.8c0,0.1,0,0.1,0,0.2c0,0,0.1,0.2,0.1,0.2c0,0,0.4,0.9,0.9,2c0.4,1,1.1,3.9,1.1,4
							c0,0.1-0.1,0.6-0.2,0.8c-0.1,0.2-0.4,0.8-0.5,0.8c-0.1,0-0.5,0-0.7-0.4c0,0,0,0-0.4-0.3c-0.2-0.2-0.2-0.2-0.2-0.2
							c-0.2,0-0.5-0.2-0.8-0.4c-0.2-0.2-0.7-0.8-0.7-0.9c0.1-0.1,0-0.8-0.2-1.2c0,0,0,0,0-0.3c0-0.3,0-0.3,0-0.3
							c0.2,0.1,0.3,0,0.1-0.1c-0.1-0.1-0.1-0.5,0-0.6c0-0.1,0.4-0.4,0.3-0.5c-0.1-0.2-0.2-0.7-0.2-0.9c0.1-0.2,0.2-0.6,0.1-0.7
							c-0.1-0.1,0.1-0.5,0.3-0.8C625.5,331.8,626.2,331.7,626.2,331.8z"/>
					</g>
					<g>
						<path class="st42" d="M576.5,350.5c-0.5-2.4-0.9-4.5-0.9-4.5c0.1,0,0.2-0.2,0.2-0.4c0-0.2,0.4-0.5,0.5-0.4
							c0.1,0.1,0.2-0.1,0.1-0.4c-0.1-0.3-0.6-0.4-0.6-0.5c0-0.1-0.2-0.3,0-0.3c0.1,0,0.6-0.3,0.8-0.2c0.2,0.1,0.8,0.2,0.8,0.3
							c0,0.1,0.3,0.1,0.3,0c0-0.2-0.2-0.5-0.3-0.5c-0.1,0.1-0.5-0.1-0.9-0.4c-0.3-0.3-0.4-1.2-0.3-1.2c0.1,0,0.5,0,0.6-0.2
							c0.1-0.3,0.6-0.1,0.7-0.2c0.1-0.1,0.5-0.5,0.6-0.5c0.1,0,0.5,0.1,0.6,0c0.1-0.1,0.5-0.3,0.6-0.3c0.1,0,0.5,0.2,0.5,0.3
							c0,0.1,0.2,0.3,0.4,0.2c0.1,0,0.6-0.2,0.7-0.1c0.1,0.1,0.3,0,0.3,0.1c0,0.1,0.3,0.4,0.3,0.5c0,0.1,0,0.3-0.1,0.3
							c-0.2,0-0.4,0.2-0.3,0.3c0.1,0,0.5,0.4,0.5,0.5c0.1,0.2,0.4,0.6,0,0.6c-0.3,0-1.3,0.4-1.5,0.5c-0.1,0.2-0.3-0.3-0.1-0.9
							c0,0,0,0-0.5-0.6c-0.3-0.4-0.3-0.4-0.3-0.4c-0.3,0.1-0.6,0.1-0.8,0.2c-0.2,0-0.3,0.5-0.4,0.5c-0.1,0-0.4,0.3-0.3,0.3
							c0.1,0,0.4,0.1,0.5,0.2c0.1,0.1,0.4,0.7,0.3,0.9c-0.1,0.2-0.4,0.9-0.4,0.9c0.1,0,0.2,0.4,0.2,0.6c0,0.2,0.1,0.9,0.1,1.1
							c0,0.2,0,0.7,0.1,0.8c0.1,0.1,0.1,0.2,0.2,0.2c0.1,0,0.7,0.3,0.9,0.3c0.2-0.1,0.8-0.1,0.8-0.2c0-0.1,0.3-0.1,0.2-0.2
							c0-0.1,0.4,0,0.6,0.1c0.2,0.2,0.6,0.2,0.4-0.1c-0.2-0.2-0.3-0.7-0.3-0.7c0,0.1-0.3-0.1-0.2-0.1c0.1-0.1,0.1-0.5-0.2-0.8
							c-0.2-0.3-1.2-1.3-1.2-1.3c0-0.1,0.3-0.2,0.4-0.2c0.1,0,0.3-0.3,0.5-0.2c0.2,0,0.6-0.3,0.7-0.2c0.1,0.1,0.6,0.4,0.7,0.4
							c0.1-0.1,0.3-0.3,0.2-0.4c-0.1-0.1,0-0.2,0.2-0.1c0.2,0.1,0.9,0.1,0.9,0.2c0.1,0.1,0.3,0.2,0.4,0.2c0.2,0,0.7,0.3,0.7,0.2
							c0-0.1,0.4,0,0.6,0.1c0.1,0.1,0.8,0.8,1,0.9c0.2,0.1,0.6,0,0.7,0.1c0.1,0.1,0.2,0.4,0.1,0.4c-0.2,0.1-0.2,0.3-0.3,0.3
							c-0.1,0-0.3-0.1-0.3,0c0,0.1-0.4,0.1-0.5-0.2c-0.1-0.3-0.4-0.8-0.4-0.6c0,0.3-0.5,0.6-0.5,0.6c0.1,0,0.2,0.3,0.2,0.5
							c-0.1,0.1,0.2,0.4,0.3,0.4c0.2,0,0.5,0.1,0.5,0.3c0,0.2-0.2,0.7-0.2,0.6c0-0.1-0.3-0.1-0.4,0.1c-0.1,0.2-0.1,0.9,0,0.9
							c0.1,0,0.3,0.4,0.3,0.6c-0.1,0.2-0.2,0.8-0.2,1c0,0.2,0.6,0.7,0.6,0.7c0,0.1-0.1,0.3-0.1,0.3c0.1,0,0.2,0.6,0.1,0.9
							c-0.1,0.3,0.3,1.2,0.4,1.2c0.1,0,0.4,0.2,0.5,0.3c0.1,0.1,0.4,0.6,0.2,0.6c-0.2,0.1-0.9-0.3-1.1-0.2c-0.2,0.1-0.6,0.5-0.6,0.5
							c0,0.1,0,0.2-0.2,0.3c-0.2,0-0.7,0.6-0.7,0.7c0,0.2,0.1,1.1,0.6,1.7c0.4,0.6,1.5,0.1,1.4-0.1c-0.1-0.2-0.1-0.6,0-0.7
							c0.1-0.1,0.6-0.3,0.7-0.1c0.1,0.2,0.7,0.6,0.9,0.5c0.2-0.2,0.9,0.1,1.1,0.3c0.2,0.3,0.9,0.6,0.9,0.4c0-0.1,0.2-0.5,0.3-0.6
							c0.1,0,0.4,0,0.4-0.2c0-0.2-0.1-0.9-0.1-1c0-0.1,0.1-0.3,0.2-0.3c0.1,0,0.4-0.1,0.3-0.2c-0.1-0.1,0.3-0.3,0.5-0.3
							c0.2,0,0.7,0.1,0.7,0.1c0-0.1,0.2-0.3,0.5-0.3c0.2-0.1,1-0.3,1.2-0.2c0.2,0.1,1,0,1.5-0.1c0.4-0.1,1,0.4,1.1,0.3
							c0.1,0,0.5-0.3,0.7-0.4c0.2-0.1,0.7-0.1,0.8-0.2c0.1-0.1,0.4-0.4,0.6-0.4c0.2-0.1,0.7-0.1,0.7-0.2c0-0.1,0.5-0.1,0.8,0.1
							c0,0,0,0,0.3,0.3c0.2,0.2,0.2,0.2,0.2,0.2c0.1,0.2,0.3,0.4,0.3,0.5c0.1,0.1,0.2,0.6,0.2,0.7c0,0.1,0.2,0.6,0.2,0.6
							c0,0.1-0.1,0.3,0,0.3c0.1,0.1,0.3,0.6,0.5,0.8c0.2,0.3,0.8,1.1,0.8,1.2c0,0.1-0.2,0.7-0.2,0.9c0,0.1,0.1,0.6,0.2,0.7
							c0.1,0.1,0.3,0.5,0.3,0.7c0,0.2,0.4,0.9,0.4,1c0,0.1,0.1,0.4,0.1,0.5c0,0-0.1,0.2-0.2,0.3c-0.1,0.1-0.2,0.4-0.1,0.5
							c0.2,0.1,0.6,0.7,0.6,0.8c0,0.2-0.3,0.8-0.1,1c0.2,0.2,0,0.8,0.2,1c0.3,0.2,0.6,0.7,0.8,0.7c0.1,0,0.5,0.4,0.5,0.5
							c0.1,0.1,0,0.5,0,0.6c0,0.2,0.5,0.5,0.6,0.5c0.1,0,0.5,0.3,0.6,0.3c0.1,0,0.4,0,0.3,0.2c-0.1,0.2-0.5,0.6-0.6,0.6
							c-0.1,0-0.4,0.1-0.4,0.1c0,0-0.1,0-0.1,0c-0.1,0-0.4-0.3-0.6-0.4c-0.2-0.1-0.9-0.3-1.1-0.5c-0.2-0.2-1-0.8-1.2-0.9
							c-0.1-0.1-0.4-0.4-0.4-0.4c-0.1,0-0.2-0.4-0.2-0.5c0.1-0.1-0.3-0.5-0.4-0.4c0,0.1-0.6-0.2-1-0.6c-0.4-0.4-0.8-1.4-1.1-1.6
							c-0.3-0.2-0.7-0.9-0.8-0.9c-0.1-0.1-0.3-0.1-0.4-0.2c-0.1-0.1-0.3-0.4-0.6-0.6c-0.2-0.1-1.1-0.5-1.4-0.5c-0.2,0-0.9,0-1-0.1
							c0-0.1-0.5-0.2-0.7-0.2c-0.3,0.1-1-0.6-0.9-0.7c0.1-0.1-0.1-0.3-0.2-0.2c-0.1,0-0.6,0-0.8-0.1c-0.2-0.1-0.7-1-0.8-1.2
							c0-0.2-0.5-0.7-0.5-0.8c0-0.1-0.3-0.3-0.4-0.4c-0.2-0.1-0.6-0.3-0.5-0.2c0,0.1-0.1,0.3-0.4,0.3c-0.2,0-0.9,0.2-0.9,0.2
							c0,0-0.2-0.1-0.4-0.1c-0.1,0-0.6-0.1-0.7,0c-0.1,0-0.5,0.3-0.6,0.3c-0.1,0-0.8,0-1.1,0.2c-0.3,0.2-1.5,0.7-1.7,0.6
							c-0.2-0.1-1.1-0.7-1.3-0.8c-0.2,0-0.8-0.1-0.9-0.2c-0.1-0.1-0.1,0.1,0,0.1c0.1,0.1,0.5,0.4,0.4,0.5c-0.1,0-0.5,0.2-0.7,0.1
							c-0.2-0.1-0.8-0.1-0.9-0.2c-0.1-0.1-0.3-0.3-0.5-0.5c-0.3-0.2-1-0.4-1-0.4C580.3,358.8,577,353,576.5,350.5z"/>
					</g>
					<g>
						<path class="st42" d="M575.7,341.3c-0.1,0.1-0.1-0.8,0.1-1.8c0.1-1.1,0.9-3.9,0.9-3.9c0.1,0,0.2,0.2,0.1,0.4
							c-0.1,0.2-0.2,0.8-0.1,0.8c0.1,0,0.2,0.4,0.1,0.6c-0.1,0.1-0.1,0.7-0.1,0.9c0,0.2-0.4,0.9-0.3,1.1c0,0.2,0.4,0.8,0.3,0.9
							c-0.1,0.1-0.2,0.2-0.2,0.1c0.1-0.1,0.3,0.1,0.4,0.2c0,0.1-0.3,0.5-0.4,0.8c-0.2,0.3-0.8,1-0.8,1c0,0-0.2-0.1-0.2-0.2
							c0-0.1,0.1-0.4,0.3-0.4C575.8,341.6,575.8,341.2,575.7,341.3z"/>
					</g>
					<g>
						<path class="st42" d="M607.5,317.4c1.5,0.3,2.7,0.7,2.7,0.8c0,0.1,0.2,0.4,0.3,0.3c0.1,0,0.5-0.3,0.6-0.2
							c0.2,0.1,0.9,0.4,1.1,0.6c0.2,0.2,0.9,1,0.9,1.3c0.1,0.3,0.3,1.1,0.2,1.2c-0.1,0.1,0.3,0.8,0.7,1.1c0.4,0.3,0.6,1.3,0.4,1.4
							c-0.2,0-0.8-0.4-0.9-0.4c-0.2,0-0.5-0.1-0.4,0c0.1,0.1,0.1,0.5,0.2,0.5c0,0.1-0.1,0.3,0,0.4c0,0.1,0.4,0.3,0.5,0.4
							c0.1,0,0.5,0.1,0.6,0.2c0.1,0.1,0.6,0.3,0.7,0.5c0.2,0.2,0.5,0.9,0.5,0.9c0,0.1,0,0.4,0.1,0.7c0.1,0.3,0.2,1.3,0,1.4
							c-0.2,0.2,0,0.6,0,0.6c0.1,0,0.3,0,0.4,0.2c0.1,0.1,0.4,0.8,0.8,1.3c0.4,0.4,0.2,1.5,0.1,1.4c-0.1-0.1-0.4-0.1-0.6-0.1
							c-0.2,0-0.6,0.1-0.5,0.2c0.1,0.1,0.5,0.6,0.7,0.6c0.2,0,0.8,0.1,1.1,0.1c0.2,0.1,0.6,0.6,0.3,0.6c-0.3,0-1.3,0-1.5-0.1
							c-0.1-0.1-0.5-0.4-0.5-0.5c0-0.1-0.3-0.4-0.4-0.4c-0.1-0.1-0.6-0.1-0.7-0.2c-0.1-0.1-0.4-0.2-0.5-0.1c-0.2,0.2-0.6,0.1-0.6,0
							c0-0.1-0.4-0.3-0.6-0.4c-0.2-0.1-0.8,0-0.8,0.1c-0.1,0.2-0.2,0.7-0.2,0.9c0,0.2,0.4,0.7,0.4,0.8c0,0.1-0.2,0.3-0.2,0.4
							c0.1,0.1,0.2,0.2,0.1,0.3c-0.1,0,0,0.4,0.2,0.7c0.2,0.3,0.7,1.2,0.6,1.3c-0.1,0.1-0.4,0.1-0.5,0c-0.1-0.1-0.4-0.3-0.6-0.4
							c-0.2-0.1-0.8-0.2-1-0.4c-0.2-0.1-1-0.4-1.1-0.4c-0.1-0.1-0.5-0.3-0.6-0.2c-0.1,0.1-0.4,0-0.5-0.1c0-0.1-0.3-0.2-0.8-0.2
							c0,0,0,0-0.4,0.5c-0.1,0.2-0.1,0.2-0.1,0.2c-0.1-0.1-0.3,0-0.3,0.2c0,0.2-0.5,0.5-0.5,0.5c-0.1,0-0.6-0.2-1-0.3
							c-0.3,0-1.2,0.1-1.3,0.1c0,0.1,0,0.3,0.1,0.4c0.1,0.1,0.5-0.1,0.7,0c0.2,0.1,0.7,0.3,0.7,0.1c0-0.1,0.5-0.4,0.7-0.3
							c0.2,0.1,0.8,0.4,0.8,0.5c0,0.1,0.4,0.7,0.4,0.9c0,0.2-0.2,0.7-0.1,0.8c0.1,0.1,0,0.6-0.1,0.9c-0.1,0.3-0.7,1.1-1,1
							c-0.3-0.1-1.2-0.4-1.5-0.5c-0.3-0.1-1.3-0.3-1.5-0.4c-0.2-0.1-0.5-0.1-0.4,0c0.1,0.1,0.5,0.4,0.6,0.4c0.2,0,0.7,0.1,0.9,0.1
							c0.2,0.1,1.1,0.6,1.3,0.6c0.3,0,1.1,0.3,1.2,0.2c0.1-0.1,0.4-0.5,0.4-0.6c0-0.1,0.4-0.4,0.6-0.3c0.2,0.1,0.7,0.9,0.8,1.4
							c0.1,0.4,0.4,1.7,0.4,1.9c0,0.1,0.1,0.7,0.2,1c0.1,0.2,0.7,1.2,1.2,1.5c0.4,0.4,1.3,1.7,1.3,2.2c0,0.4,0.9,1.7,0.8,1.8
							c0,0.1-0.1,0.5,0,0.6c0.1,0.1,0.5,0.7,0.5,1c0,0.3,0.2,1.3,0.2,1.7c-0.1,0.4-1,1.2-1.4,1c-0.4-0.2-1.5-0.6-1.6-0.7
							c-0.1-0.1-0.7-0.6-1-0.7c-0.3-0.2-1.4-0.5-1.6-0.8c-0.2-0.3-0.8-1.2-1-1.4c-0.2-0.2-1.1-0.6-1.4-0.7c-0.3-0.2-1.2-0.7-1.4-1
							c-0.2-0.3-1-0.9-1-0.8c0,0.1-0.3,0.4-0.4,0.4c-0.1,0-0.6,0.3-0.8,0.1c0,0,0,0-0.1,0.1c-0.3,0.2-0.3,0.2-0.3,0.2
							c0.1,0.3,0.1,0.7,0,0.8c-0.2,0.2-0.7,0.7-1,0.7c-0.3,0.1-1.2,0.1-1.5,0c-0.3-0.1-1.3-0.6-1.7-0.9c-0.4-0.4-1.3-1.5-1.4-1.7
							c-0.1-0.2-0.5-1.3-0.5-1.7c0,0,0,0-0.1-0.3c-0.2-0.5-0.2-0.5-0.2-0.5c-0.4-0.5-0.6-1-0.6-1.2c0.1-0.2,0-0.7,0.1-0.7
							c0.1-0.1,0.5-0.3,0.6-0.5c0.1-0.3,0.8-1.2,0.9-1.4c0.1-0.2,0.6-0.7,0.7-0.7c0.1,0.1,0.1,0.3,0.2,0.3c0.1,0,0.7,0.2,1,0.1
							c0.3-0.1,1.2-0.3,1.1-0.4c-0.1-0.1,0.3-0.7,0.6-1c0.4-0.3,1.2-1,1.1-1.1c-0.1-0.2-0.2-0.7-0.3-0.8c-0.1-0.1-0.2-0.2-0.1-0.1
							c0.1,0.1-0.2,0.4-0.2,0.3c-0.1-0.1-0.6,0.3-0.8,0.7c0,0,0,0-0.4,0c-0.2,0-0.2,0-0.2,0c-0.2-0.1-0.4-0.2-0.5-0.3
							c-0.1-0.1-0.4-0.5-0.4-0.4c0,0,0,0.3,0.2,0.4c0.2,0.2,0.6,0.6,0.7,0.5c0.1-0.1,0.3,0.2,0.2,0.3c-0.1,0.1-0.4,0-0.4-0.1
							c0,0-0.1,0-0.2,0.1c-0.1,0.1-0.4,0.1-0.5,0c-0.1-0.1-0.4-0.4-0.6-0.4c0,0,0,0-0.1,0c-0.1,0-0.3-0.1-0.4-0.2
							c-0.5-0.1-0.5-0.1-0.5-0.1c-0.6,0-0.8,0.1-0.4,0.1c0.3,0,1.1,0.2,1,0.2c-0.1,0,0,0.3,0,0.3c0.1,0,0.2,0.3,0.2,0.4
							c0,0.1,0.2,0.6,0.1,0.7c-0.1,0.1-0.4-0.2-0.3-0.3c0.1-0.1-0.1-0.4-0.3-0.4c-0.2,0-0.7,0.2-0.8,0.1c-0.1-0.1-0.1,0.1,0.2,0.3
							c0.3,0.2-0.1,0.6-0.4,0.4c-0.3-0.2-0.6-0.6-0.7-0.5c0,0.2-0.5,0.6-0.4,0.8c0.1,0.2,0,1,0.2,1.2c0.2,0.3,0.3,0.9,0.2,1
							c-0.1,0-0.4,0.5-0.6,0.5c-0.1,0-0.6,0.3-0.7,0.2c-0.1-0.1-0.6-0.5-0.8-0.7c-0.1-0.2-0.3-0.8-0.2-1c0.1-0.2,0.7-0.6,0.7-0.7
							c0-0.1-0.2-0.3-0.3-0.3c-0.1,0-0.6-0.3-0.7-0.2c-0.1,0.1-0.4,0.1-0.4,0c0-0.1,0-0.5,0-0.7c0-0.2,0.3-0.6,0.3-0.6
							c0,0-0.2,0-0.4,0.2c-0.2,0.2-0.6,0.6-0.6,0.5c0-0.1,0-0.4-0.2-0.4c-0.1,0-0.5-0.5-0.4-0.6c0.1-0.1-0.2-0.4-0.2-0.4
							c-0.1,0-0.5,0-0.6-0.2c-0.1-0.2-0.7-0.8-0.6-0.9c0-0.1,0.3-0.4,0.4-0.3c0,0.1,0.1,0.3,0.2,0.3c0.1,0,0.5,0,0.7,0.1
							c0.2,0,0.8,0.6,0.9,0.6c0.1,0,0.4,0.1,0.4,0.3c0.1,0.2,0.3,0.6,0.2,0.4c-0.1-0.2,0.2-0.6,0.2-0.7c-0.1-0.1-0.1-0.5-0.1-0.6
							c0.1-0.1,0.3-0.5,0.2-0.6c-0.1-0.1-0.3-0.1-0.3-0.2c0-0.1-0.3-0.5-0.4-0.4c-0.1,0.1-0.6-0.1-0.8-0.2c-0.2-0.2-0.8-0.6-0.9-0.8
							c-0.2-0.3,0-1,0-1c-0.1-0.1-0.2-0.2-0.1-0.3c0-0.1,0.1-0.2,0.1-0.4c0-0.2-0.3-1-0.3-1.3c0-0.3,0-1.1,0-1.1
							c0-0.1,0.2-0.2,0.2-0.4c0-0.2,0.1-0.7,0.2-0.8c0.1-0.1,0.5-0.4,0.6-0.4c0.1,0,0.6,0,0.8,0c0.1-0.1,0.8-0.2,1.1-0.4
							c0.3-0.2,0.9,0.1,0.9-0.1c0-0.2-0.3-0.8-0.2-0.8c0.1,0,0.4-0.2,0.4-0.1c0.1,0.1,0.3,0.1,0.3-0.1c0-0.2,0.3-1,0.5-1.2
							c0.2-0.2,0.5-0.5,0.4-0.4c-0.1,0.1-0.4-0.4-0.2-0.4c0.2-0.1,0.7-0.8,0.7-1c0-0.3-0.1-1,0.1-1c0.1,0,0.4-0.1,0.4-0.2
							c0-0.1,0.3-0.3,0.4-0.2c0.1,0.1,0.3,0.1,0.3,0c0-0.1-0.1-0.4,0.1-0.5c0.2-0.1,0.5-0.2,0.4-0.2c-0.1,0-0.5-0.3-0.4-0.4
							c0-0.1,0.1-0.4,0.1-0.5c-0.1-0.1-0.1-0.5,0-0.6c0-0.1,0.2-0.6,0.3-0.7c0.1-0.2,0.3-0.7,0.4-0.7c0.1,0,0.3-0.2,0.2-0.3
							c-0.1-0.1,0.2-0.5,0.1-0.7c-0.1-0.1,0-0.5,0.1-0.5c0.1,0,0.6-0.2,0.7-0.4c0.2-0.2,0.5-0.6,0.7-0.6c0.2,0,0.6,0.2,0.6,0.3
							c0,0.1,0.5,0.3,0.8,0.1c0,0,0,0,0.2-0.1c0.1-0.1,0.2-0.2,0.3-0.3c0.2-0.1,0.2-0.1,0.2-0.1C601.8,316.9,606,317.1,607.5,317.4z
							"/>
					</g>
					<g>
						<path class="st42" d="M614.6,319.9c0.2,0.1,0.3,0.2,0.3,0.2c0,0,0,0.1-0.1,0c-0.1,0-0.2,0.2-0.2,0.3c0,0.2-0.4,0.1-0.5,0
							c-0.1-0.2-0.5-0.6-0.4-0.7C613.8,319.7,614.5,319.8,614.6,319.9z"/>
					</g>
					<g>
						<path class="st42" d="M619.5,328.9c0,0.1-0.1,0-0.2-0.2c0-0.1,0.1-0.4,0-0.5c-0.1-0.1-0.1-0.4,0-0.5c0.1,0,0.5,0.1,0.7,0.1
							c0.1-0.1,0.4,0.4,0.3,0.5c-0.1,0.2-0.1,0.6-0.2,0.5C620,328.8,619.5,328.8,619.5,328.9z"/>
					</g>
					<g>
						<path class="st42" d="M622.3,331.7c0.2,0,0.2,0.1,0.2,0.2c-0.1,0-0.4,0.2-0.4,0.3c0,0.1,0,0.2-0.4,0c-0.4-0.2-0.5-1.1-0.4-1.2
							c0.2-0.1,0.6,0.2,0.6,0.3C621.8,331.3,622.1,331.7,622.3,331.7z"/>
					</g>
					<g>
						<path class="st42" d="M620.7,331.5c0.1,0.1,0.3,0.4,0.4,0.6c0.1,0.2,0.2,0.6,0.2,0.6c0,0,0.1,0,0.1,0.1c0,0.1,0,0.3-0.2,0.3
							c-0.2,0-0.8,0.5-1,0.4c-0.2-0.1-0.6-0.7-0.5-1.1c0.1-0.4-0.4-1.6-0.2-1.7c0.2-0.1,0.6-0.1,0.7,0
							C620.2,331,620.6,331.4,620.7,331.5z"/>
					</g>
					<g>
						<path class="st42" d="M622.2,334c0.1,0-0.1,0.1-0.4,0.3c-0.3,0.2-1.3,0.9-1.4,0.8c-0.1-0.1,0-0.5,0.3-0.6
							C621,334.4,622.1,334,622.2,334z"/>
					</g>
					<g>
						<path class="st42" d="M616.6,327.1c0,0.2,0,0.2-0.2,0.2c-0.1-0.1-0.4-0.3-0.5-0.5C616,326.6,616.6,326.9,616.6,327.1z"/>
					</g>
					<g>
						<path class="st42" d="M617.6,327.5c0.2-0.1,0.5-0.1,0.5,0.1c0.1,0.2,0.2,0.6,0,0.6C617.9,328.2,617.3,327.7,617.6,327.5z"/>
					</g>
					<g>
						<path class="st42" d="M623,329.3c0.3,0.3-0.1,0.9-0.5,0.9C622.2,329.9,622.7,329.4,623,329.3z"/>
					</g>
					<g>
						<path class="st42" d="M616.4,322.6c-0.1,0.3-0.2,0.5-0.2,0.5c-0.1,0-0.2,0.2-0.2,0.4c0,0.2,0.1,0.6,0,0.6
							c-0.1,0-0.4-0.3-0.3-0.4c0.1-0.1,0.2-0.2,0.1-0.1c-0.1,0.1-0.3-0.2-0.3-0.4c0-0.2,0.1-0.9,0.1-1c0-0.2,0.1-0.7,0.1-0.8
							c0,0-0.1-0.3-0.3-0.4c-0.1-0.2-0.6-0.6-0.6-0.6c0,0,0.4,0,0.7,0.3C615.7,321,616.5,322.3,616.4,322.6z"/>
					</g>
					<g>
						<path class="st42" d="M612.6,318.9c0.3,0.1,0.7,0.3,1,0.5C613.3,319.5,613,319.3,612.6,318.9z"/>
					</g>
					<g>
						<path class="st42" d="M617.2,334.1c-0.4,0.1-0.7,0.1-0.5,0.1c0.2,0,0-0.3,0.1-0.3c0.1,0,0.5-0.1,0.8,0c0,0,0,0,0.3,0.1
							c0.2,0.1,0.2,0.1,0.2,0.1c0.4,0,1,0,1.3,0.1c0.3,0.1,0.5,0.6,0.3,0.7C619.4,334.9,617.6,334,617.2,334.1z"/>
					</g>
					<g>
						<path class="st42" d="M613.5,335.8c-0.1-0.2,0-0.4,0.1-0.4c0.2,0,0.6,0.3,0.6,0.4C614.3,335.9,613.6,336,613.5,335.8z"/>
					</g>
					<g>
						<path class="st42" d="M614.4,345.7c0.1,0.2,0.2,0.4,0.2,0.5c0,0.1,0.1,0.2,0.2,0.3c0.1,0.1,0.3,0.4,0.4,0.5
							c0.1,0.2,0.3,0.9,0.3,1c-0.1,0.1-0.5,0.3-0.6,0.1c-0.2-0.1-0.8-0.5-0.9-0.7c0-0.1-0.3-0.5-0.4-0.5c-0.1,0-0.4-0.5-0.5-0.7
							c0-0.2,0-0.9-0.1-1c-0.1-0.2-0.2-0.5,0-0.4C613.2,344.9,614.2,345.5,614.4,345.7z"/>
					</g>
					<g>
						<path class="st42" d="M607.1,367.1c-0.3-0.2,0-0.6,0.3-0.3C607.3,367,607.2,367,607.1,367.1z"/>
					</g>
					<g>
						<path class="st42" d="M585.2,340.2c0.1,0.2,0.1,0.5,0.1,0.6c0,0.1,0,0.4-0.1,0.3c-0.1,0-0.5,0.2-0.6,0.2c-0.1,0.1-0.6,0-1-0.4
							c-0.4-0.4-1.5-0.7-1.5-0.9c0-0.2-0.2-0.3-0.2-0.5c0-0.1-0.1-0.5-0.3-0.4c-0.2,0.1-0.6-0.2-0.5-0.3c0.1-0.1-0.1-0.3-0.1-0.2
							c0,0.1-0.4,0.2-0.5,0.1c-0.1-0.1-0.4-0.4-0.6-0.5c-0.1,0-0.7-0.4-0.9-0.2c-0.2,0.1-0.6,0.4-0.6,0.5c0,0.1-0.3,0.4-0.5,0.4
							c-0.2,0.1-0.5-0.2-0.4-0.4c0.1-0.2,0.4-0.6,0.3-0.5c-0.1,0-0.4,0.3-0.6,0.3c-0.1,0-0.1,0.2-0.2,0.2c-0.1,0-0.3,0.1-0.3-0.1
							c0-0.2,0.3-0.5,0.4-0.7c0.1-0.2,0.1-0.6,0-0.6c-0.1,0.1-0.3-0.5-0.2-0.9c0.1-0.4,0.9-1.6,1.1-1.8c0.2-0.2,0.8-0.8,0.7-0.9
							c-0.1-0.1-0.3-0.5-0.2-0.6c0.1-0.2,0.7-0.8,0.9-1c0.3-0.2,0.6-0.9,0.7-1c0.1-0.1,0.4-0.2,0.5-0.3c0.1-0.1,0.6-0.5,0.7-0.7
							c0.2-0.2,0.6-0.1,0.4,0.1c-0.1,0.2,0.2,0.6,0.2,0.5c0.1-0.2,0.5-0.5,0.6-0.5c0.1,0,0.4-0.2,0.5-0.3c0.1-0.1,0.3,0.2,0.2,0.3
							c-0.1,0.1-0.2,0.5-0.2,0.6c0,0.1-0.1,0.4,0,0.4c0.1,0,0.3,0.4,0.3,0.5c0,0.1-0.1,0.3,0.1,0.2c0.2-0.1,0.6,0.2,0.4,0.3
							c-0.1,0.1,0,0.6,0.4,0.9c0.4,0.2,0.3,1,0.4,1c0.1,0,0.3,0.3,0.3,0.3c-0.1,0-0.1,0.1,0,0c0.2,0,0.1,0.4-0.1,0.5
							c-0.2,0.1-0.7,0.3-0.7,0.4c0,0.1,0.1,0.2,0.3,0.2c0.2,0,0.3-0.2,0.3,0c0,0.2,0.2,0.8,0.2,1c0,0.2-0.3,0.9-0.3,1
							c0,0.1,0,0.5-0.1,0.6c0,0.1-0.4,0.4-0.3,0.5C584.6,339,585.2,339.9,585.2,340.2z"/>
					</g>
					<g>
						<path class="st42" d="M586.5,328c0.1-0.1,0.3-0.1,0.4-0.1c0.1,0,0.3-0.2,0.5-0.3c0.2-0.1,0.8,0.6,0.6,0.7
							c-0.2,0.1-0.6,0.3-0.5,0.5c0.1,0.2,0.4,0.7,0.3,0.8c-0.1,0.1-0.5,0-0.6,0.1c-0.1,0.1-0.4,0-0.4-0.2c0-0.2-0.3-0.5-0.3-0.4
							c0,0.2-0.3,0.5-0.4,0.5c-0.1,0-0.4-0.3-0.5-0.2c-0.1,0-0.4-0.3-0.3-0.6c0.1-0.3,0.5-0.3,0.4-0.4c-0.1-0.1,0-0.5,0.2-0.5
							C586,327.8,586.4,328.1,586.5,328z"/>
					</g>
					<g>
						<path class="st42" d="M586.1,327.4c-0.1-0.1,0.1-0.3,0.4-0.6c0.3-0.3,1.2-0.9,1.2-0.8c0,0.1-0.1,0.6-0.4,0.9
							C587.1,327.1,586.1,327.5,586.1,327.4z"/>
					</g>
					<g>
						<path class="st42" d="M590.9,338.9c0.1,0.1,0.1,0.3,0,0.4c-0.1,0.1-0.3,0.4-0.4,0.3c-0.1-0.1-0.4-0.4-0.3-0.4
							c0.1,0-0.1-0.4,0-0.5C590.3,338.5,590.8,338.8,590.9,338.9z"/>
					</g>
					<g>
						<path class="st42" d="M588,336.4c-0.1,0.1-0.3,0.2-0.4,0.1c-0.1-0.1-0.5,0.2-0.5,0.1c0-0.1-0.2-0.4-0.2-0.3
							c0,0.1-0.2,0.1-0.2,0c0-0.1-0.2-0.5-0.1-0.5c0.1,0,0.5-0.2,0.6-0.3c0.1-0.1,0.5-0.5,0.6-0.5c0.2,0,0.5,0.6,0.5,0.7
							C588.2,335.9,588.1,336.3,588,336.4z"/>
					</g>
					<g>
						<path class="st42" d="M592.8,325c0-0.2,0.1-0.6,0.2-0.9c0.1-0.3,0.6-1.1,0.6-1.2c0,0,0-0.2,0-0.2c0.1-0.1,0.3,0,0.4,0.2
							c0.1,0.2-0.3,1-0.3,1.3c0,0.3-0.2,1.1,0,1.2c0.2,0.1,0.8,0.5,0.8,0.6c0,0.1-0.1,0.3-0.3,0.3c-0.2,0-0.7,0-0.8-0.1
							C593.4,326,592.9,325.2,592.8,325z"/>
					</g>
					<g>
						<path class="st42" d="M591.2,323.1c-0.4-0.4,0-1.1,0.5-0.6C591.4,322.7,591.6,323.1,591.2,323.1z"/>
					</g>
					<g>
						<path class="st42" d="M595.5,319c-0.1-0.1,0-0.4,0.3-0.7c0.2-0.3,0.7-0.2,0.6,0C596.2,318.6,595.5,319.1,595.5,319z"/>
					</g>
					<g>
						<path class="st42" d="M579.5,344.8c0.1,0-0.1,0.1-0.3,0.1c-0.2,0,0.1,0.7-0.1,0.8c-0.1,0.1-0.5-0.2-0.5-0.3
							c0-0.1,0-0.5,0.1-0.5C578.8,345,579.4,344.8,579.5,344.8z"/>
					</g>
					<g>
						<path class="st42" d="M591,354.3c0.1-0.1,0.2,0,0.2,0.1c0,0.1-0.2,0.4-0.3,0.3C590.9,354.7,590.9,354.4,591,354.3z"/>
					</g>
					<g>
						<path class="st42" d="M589.3,355.5c-0.1,0.2-0.3,0.3-0.5,0.2c-0.2,0-0.7,0.3-0.7,0.4c0,0.1-0.4,0.4-0.4,0.3
							c0-0.1,0-0.5,0.1-0.6c0.2-0.2,0.7-0.6,0.9-0.6c0.1,0,0.5-0.1,0.6-0.1c0.1,0,0.4,0,0.6-0.2c0.2-0.2,0.8,0.1,0.7,0.2
							c-0.1,0.1-0.1,0.4-0.2,0.4c-0.1,0-0.5,0.2-0.6,0.2C589.6,355.6,589.4,355.3,589.3,355.5z"/>
					</g>
					<g>
						<path class="st42" d="M589.5,356.1c0.1,0,0.2,0,0.1,0.1c-0.1,0.1-0.3,0.4-0.3,0.3C589.2,356.4,589.4,356.1,589.5,356.1z"/>
					</g>
					<g>
						<path class="st42" d="M588.2,355.1c0,0-0.1,0-0.2,0c-0.1-0.1-0.1-0.2,0-0.3C588.1,354.8,588.2,355.1,588.2,355.1z"/>
					</g>
					<g>
						<path class="st42" d="M588.4,354.7c-0.1-0.1-0.2-0.2-0.2-0.3c0,0,0.2-0.1,0.3-0.1C588.6,354.4,588.6,354.8,588.4,354.7z"/>
					</g>
					<g>
						<path class="st42" d="M589.3,354.7c0,0.1-0.1,0.1-0.2,0c-0.1-0.1-0.2-0.3-0.1-0.3c0.1,0,0.4,0.1,0.5,0
							c0.1-0.1,0.2,0.1,0.1,0.2C589.6,354.8,589.3,354.7,589.3,354.7z"/>
					</g>
					<g>
						<path class="st42" d="M625.2,329.9c0.2,0.3,0.3,0.5,0.2,0.4c-0.1-0.1-0.5-0.3-0.8-0.2c-0.3,0-1.1,0.2-1.2,0.3
							c0,0.1-0.2,0-0.2-0.1c0-0.1-0.1-0.3,0-0.3c0.1,0,0.3-0.3,0.3-0.4c0-0.1,0.1-0.4,0.1-0.5c0.1-0.1,0.4-0.3,0.5-0.3
							C624.3,328.8,625.1,329.6,625.2,329.9z"/>
					</g>
				</g>
				<path class="st43" d="M576.4,340.9c0,0-0.1,0.1,0,0.1C576.4,341.1,576.4,340.9,576.4,340.9z"/>
				<path class="st43" d="M584.7,345.1c0,0-0.1,0.1,0,0.1C584.8,345.2,584.8,345.1,584.7,345.1z"/>
			</g>
			<g id="suitcase_1_">
				<g>
					<g>
						<path class="st44" d="M898.6,418c-0.4,0.7-1.1,1.1-1.6,0.9c-8.3-3.7-17.7-3.7-26,0c-0.5,0.2-1.2-0.2-1.6-0.9
							c0-0.1-0.1-0.1-0.1-0.2c-0.4-0.7-0.2-1.6,0.4-1.8c9.1-4.1,19.5-4.1,28.6,0c0.6,0.3,0.8,1.1,0.4,1.8
							C898.7,417.9,898.7,418,898.6,418z"/>
						<path class="st45" d="M898.3,416c-9.1-4.1-19.5-4.1-28.6,0c-0.6,0.3-0.8,1.1-0.4,1.8c9.3-4.5,20.1-4.5,29.4,0
							C899.1,417.1,898.9,416.3,898.3,416z"/>
					</g>
					<g>
						<g>
							<path class="st46" d="M872.4,426.6c0,0.6-0.4,1-1,1h-0.2c-0.5,0-1-0.4-1-1v-8.5c0-0.6,0.4-1,1-1h0.2c0.6,0,1,0.5,1,1V426.6z"
								/>
							<ellipse class="st46" cx="871.3" cy="422.9" rx="2.4" ry="2.4"/>
						</g>
						<g>
							<path class="st46" d="M897.8,426.6c0,0.6-0.4,1-1,1h-0.2c-0.6,0-1-0.4-1-1v-8.5c0-0.6,0.4-1,1-1h0.2c0.6,0,1,0.5,1,1V426.6z"
								/>
							<ellipse class="st46" cx="896.7" cy="422.9" rx="2.4" ry="2.4"/>
						</g>
					</g>
					<path class="st44" d="M929.7,481.1c0,1.7-1.3,3-3,3h-85.3c-1.7,0-3-1.3-3-3v-55.3c0-1.7,1.3-3,3-3h85.3c1.7,0,3,1.3,3,3V481.1z
						"/>
					<path class="st47" d="M926.7,481.8h-85.3c-1.7,0-3-1.3-3-3v2.3c0,1.7,1.3,3,3,3h85.3c1.7,0,3-1.3,3-3v-2.3
						C929.7,480.5,928.4,481.8,926.7,481.8z"/>
					<path class="st48" d="M929.7,448.6c0,1.6-1.3,3.3-3,3.7c-28.1,6.7-57.3,6.7-85.4,0c-1.6-0.4-3-2.1-3-3.7c0-6.8,0-13.5,0-20.3
						c0-1.6,1.3-3,3-3c28.4,0,56.9,0,85.3,0c1.7,0,3,1.4,3,3C929.7,435.1,929.7,441.9,929.7,448.6z"/>
					<path class="st45" d="M929.7,446.1c0,1.6-1.3,3.3-3,3.7c-28.1,6.7-57.3,6.7-85.4,0c-1.6-0.4-3-2.1-3-3.7c0-6.8,0-13.5,0-20.3
						c0-1.6,1.3-3,3-3c28.4,0,56.9,0,85.3,0c1.7,0,3,1.4,3,3C929.7,432.6,929.7,439.4,929.7,446.1z"/>
					<path class="st44" d="M878.2,422.8v26.4c0,1.3,0.4,2.4,1,2.4h9.7c0.5,0,1-1.1,1-2.4v-26.4H878.2z"/>
					<path class="st48" d="M929.7,427.6c0-0.6,0-1.2,0-1.8c0-1.6-1.3-3-3-3c-28.4,0-56.9,0-85.3,0c-1.7,0-3,1.4-3,3
						c0,0.6,0,1.2,0,1.8C868.8,427.6,899.3,427.6,929.7,427.6z"/>
					<g>
						<path class="st38" d="M889.2,461.1c0,0.5-0.4,1-0.9,1.2c-2.8,0.9-5.8,0.9-8.6,0c-0.5-0.2-0.9-0.7-0.9-1.2c0-3.4,0-6.9,0-10.3
							c0-0.5,0.4-1,0.9-1.2c2.8-0.9,5.8-0.9,8.6,0c0.5,0.2,0.9,0.7,0.9,1.2C889.2,454.2,889.2,457.7,889.2,461.1z"/>
						<path class="st43" d="M888.3,450c-2.8-0.8-5.8-0.8-8.6,0c-0.5,0.1-0.9,0.7-0.9,1.1c0,1.5,0,3,0,4.5c0,0,0.1,0,0.1,0
							c3.4,0,6.8,0,10.2,0c0-1.5,0-3,0-4.5C889.2,450.6,888.8,450.1,888.3,450z"/>
						<path class="st49" d="M887.6,450.4c-2.3-0.7-4.8-0.7-7.1,0c-0.4,0.1-0.7,0.5-0.7,0.9c0,1.2,0,2.5,0,3.7c0,0,0.1,0,0.1,0
							c2.8,0,5.7,0,8.5,0c0-1.2,0-2.5,0-3.7C888.3,450.9,888,450.5,887.6,450.4z"/>
						<path class="st38" d="M878.9,456.5c0,1.5,0,3.1,0,4.6c0,0.5,0.4,1,0.9,1.2c2.8,0.9,5.8,0.9,8.6,0c0.5-0.2,0.9-0.7,0.9-1.2
							c0-1.5,0-3,0-4.6H878.9z"/>
						<path class="st43" d="M884,462.1c-1.4,0-2.7-0.2-4-0.6c-0.1,0-0.2-0.2-0.2-0.3v-3.7h8.6v3.7c0,0.1-0.1,0.3-0.2,0.3
							C886.8,461.9,885.4,462.1,884,462.1L884,462.1z"/>
					</g>
				</g>
				<path class="st34" d="M885.6,418.1c0,0.8-0.6,1.4-1.4,1.4l0,0c-0.8,0-1.4-0.6-1.4-1.4V411c0-0.8,0.6-1.4,1.4-1.4l0,0
					c0.8,0,1.4,0.6,1.4,1.4V418.1z"/>
			</g>
			<g id="bicycle_1_">
				
					<rect x="551.8" y="420.6" transform="matrix(0.9464 -0.3229 0.3229 0.9464 -113.7073 203.5195)" class="st50" width="9.7" height="47.8"/>
				<polygon class="st51" points="573.3,429.9 556.6,446.6 573.3,463.2 590.1,446.6 				"/>
				
					<rect x="576.8" y="436.3" transform="matrix(0.7074 -0.7068 0.7068 0.7074 -143.0409 543.5121)" class="st52" width="16.4" height="16.4"/>
				<polygon class="st53" points="590.3,516 557.8,516 544.9,444.5 603.2,444.5 				"/>
				<polygon class="st54" points="574.1,516 590.3,516 603.2,444.5 574.1,444.5 				"/>
				<polygon class="st55" points="600.6,458.8 601.6,453.4 546.5,453.4 547.5,458.8 				"/>
			</g>
			<g>
				<g>
					<rect x="724" y="438.9" class="st4" width="42.7" height="13.1"/>
					<ellipse class="st37" cx="732.6" cy="445.5" rx="3.7" ry="3.7"/>
					<ellipse class="st37" cx="745.4" cy="445.5" rx="3.7" ry="3.7"/>
					<ellipse class="st37" cx="757.8" cy="445.5" rx="3.7" ry="3.7"/>
				</g>
				<line class="st56" x1="745.4" y1="407.8" x2="745.4" y2="445.5"/>
			</g>
			<g id="tree__x2B_book_1_">
				<rect x="825.5" y="344.4" class="st20" width="114.7" height="6.9"/>
				<g>
					<path class="st21" d="M874,343.6v-7.8H838c-2.2,0-3.9,1.7-3.9,3.9v1.4v0c0.3,1.9,2,3.2,3.9,3.2H874v-7.8"/>
					<path class="st22" d="M874,336.6h-35.6c-2,0-3.6,1.6-3.6,3.6c0,2,1.6,3.6,3.6,3.6H874V336.6z"/>
				</g>
				<g>
					<g>
						<g>
							<rect x="833.4" y="293.8" class="st23" width="42" height="42"/>
							<rect x="836.5" y="296.9" class="st57" width="35.8" height="35.7"/>
							<rect x="842" y="298.6" class="st58" width="24.8" height="32.3"/>
						</g>
					</g>
					<g>
						<rect x="844" y="305" class="st59" width="20.8" height="0.6"/>
						<rect x="844" y="306" class="st59" width="20.8" height="0.6"/>
						<rect x="844" y="307" class="st59" width="20.8" height="0.6"/>
						<rect x="844" y="308" class="st59" width="20.8" height="0.6"/>
						<rect x="844" y="308.9" class="st59" width="20.8" height="0.6"/>
						<rect x="844" y="309.9" class="st59" width="20.8" height="0.6"/>
						<rect x="844" y="310.9" class="st59" width="20.8" height="0.6"/>
						<rect x="844" y="311.9" class="st59" width="20.8" height="0.6"/>
						<rect x="844" y="312.9" class="st59" width="20.8" height="0.6"/>
						<rect x="844" y="313.8" class="st59" width="20.8" height="0.6"/>
						<rect x="844" y="314.8" class="st59" width="20.8" height="0.6"/>
					</g>
					<g>
						<rect x="844" y="315.9" class="st59" width="12" height="0.6"/>
						<rect x="844" y="316.9" class="st59" width="12" height="0.6"/>
						<rect x="844" y="317.9" class="st59" width="12" height="0.6"/>
						<rect x="844" y="318.8" class="st59" width="12" height="0.6"/>
						<rect x="844" y="319.8" class="st59" width="12" height="0.6"/>
						<rect x="844" y="320.8" class="st59" width="12" height="0.6"/>
						<rect x="844" y="321.8" class="st59" width="12" height="0.6"/>
					</g>
					<ellipse class="st60" cx="861.2" cy="326.5" rx="1.8" ry="1.8"/>
					<polygon class="st60" points="864.8,302.6 844,302.6 845.1,301.6 844,300.7 864.8,300.7 863.7,301.6 					"/>
				</g>
				<g>
					<polygon class="st61" points="916.7,344.4 901.5,344.4 895.4,323.1 922.8,323.1 					"/>
					<polygon class="st62" points="909.1,344.4 916.7,344.4 922.8,323.1 909.1,323.1 					"/>
					<path class="st63" d="M909.1,322.9c0,0,0-10.5,12.5-10.5C921.6,322.7,911.9,323.5,909.1,322.9z"/>
					<path class="st63" d="M909.1,322.9c0,0-10,3.3-14-8.5C904.9,311.1,908.7,320.1,909.1,322.9z"/>
					<path class="st63" d="M909.1,313.3c0,0,0-9.3,11.1-9.3C920.1,313.1,911.5,313.9,909.1,313.3z"/>
					<path class="st63" d="M908.9,308.1c0,0-6.6-6.6,1.2-14.4C916.6,300.1,911,306.7,908.9,308.1z"/>
					<path class="st63" d="M908.9,315.3c0,0-10.6,0-10.6-12.5C908.7,302.8,909.5,312.5,908.9,315.3z"/>
					<path class="st63" d="M909.7,322.4c0,0.4-0.3,0.6-0.6,0.6l0,0c-0.4,0-0.6-0.3-0.6-0.6v-15.8c0-0.4,0.3-0.6,0.6-0.6l0,0
						c0.4,0,0.6,0.3,0.6,0.6V322.4z"/>
				</g>
			</g>
			<g>
				<path class="st64" d="M823.9,391.6h22.7c0.8-0.4,1.9-1.5,2.8-3h-28.3C821.8,389.9,822.6,390.7,823.9,391.6z"/>
				<path class="st65" d="M835.3,391.6h11.4c0.8-0.4,1.9-1.5,2.8-3h-14.1V391.6z"/>
			</g>
			<g id="book_1_">
				<g>
					<rect x="699.4" y="233.7" class="st20" width="114.7" height="6.9"/>
					<g>
						<g>
							<path class="st66" d="M742,232.8V224h-38.2c-2.4,0-4.4,2-4.4,4.4v1.6v0.1c0.3,2.1,2.2,3.6,4.4,3.6H742v-8.8"/>
							<path class="st22" d="M742,224.9h-37.7c-2.3,0-4.1,1.8-4.1,4.1c0,2.3,1.8,4.1,4.1,4.1H742V224.9z"/>
						</g>
						<g>
							<path class="st67" d="M742,223.1v-8.8h-38.2c-2.4,0-4.4,2-4.4,4.4v1.6v0.1c0.3,2.1,2.2,3.6,4.4,3.6H742v-8.8"/>
							<path class="st22" d="M742,215.2h-37.7c-2.3,0-4.1,1.8-4.1,4.1c0,2.3,1.8,4.1,4.1,4.1H742V215.2z"/>
						</g>
						<g>
							<path class="st21" d="M742,213.5v-7.8h-33.9c-2.2,0-3.9,1.7-3.9,3.9v1.4v0c0.3,1.9,2,3.2,3.9,3.2H742v-7.8"/>
							<path class="st22" d="M742,206.5h-33.4c-2,0-3.6,1.6-3.6,3.6c0,2,1.6,3.6,3.6,3.6H742V206.5z"/>
						</g>
					</g>
					<g>
						<path class="st21" d="M812.5,232.9v-7.8h-36.1c-2.2,0-3.9,1.7-3.9,3.9v1.4v0c0.3,1.9,2,3.2,3.9,3.2h36.1v-7.8"/>
						<path class="st22" d="M812.5,225.8h-35.6c-2,0-3.6,1.6-3.6,3.6c0,2,1.6,3.6,3.6,3.6h35.6V225.8z"/>
					</g>
					
						<rect x="746.2" y="193.1" transform="matrix(0.9771 -0.2129 0.2129 0.9771 -28.2003 164.5432)" class="st66" width="7.5" height="40.2"/>
					
						<rect x="754.1" y="193.1" transform="matrix(0.9771 -0.2129 0.2129 0.9771 -28.017 166.2279)" class="st21" width="7.5" height="40.2"/>
				</g>
				<g>
					<path class="st66" d="M812.5,224.3v-7.8h-33.9c-2.2,0-3.9,1.7-3.9,3.9v1.4v0c0.3,1.9,2,3.2,3.9,3.2h33.9v-7.8"/>
					<path class="st22" d="M812.5,217.2h-33.4c-2,0-3.6,1.6-3.6,3.6s1.6,3.6,3.6,3.6h33.4V217.2z"/>
				</g>
			</g>
			
				<rect id="note_6_" x="672.1" y="362.8" transform="matrix(0.1685 -0.9857 0.9857 0.1685 199.8522 981.2621)" class="st68" width="18.8" height="18.8"/>
			
				<rect id="note_2_" x="697.1" y="362.8" transform="matrix(0.9831 -0.1831 0.1831 0.9831 -56.1981 135.646)" class="st68" width="18.8" height="18.8"/>
		</g>
	</g>
</g>
<g id="MAIN_CHAR" class="st69">
	<g class="st70">
		<g>
			<g>
				<path class="st71" d="M196.4,476.1c0,0,20.5-10.2,16.8-53.3c-3.8-43.2-30.8-126-16.8-161.9s33.2-62.2,74.8-62.2
					c41.6,0,79,26.4,60.8,113.9s27,104.5,27,104.5s-6.2,1.2-10.4,0c0,0,60.8,95.9,0,155c-60.8,59.1-120.5-7.6-122.6-14.6
					c0,0,12.5,0,19.2-15.5c0,0-25.5,1.5-29.1-15.8c0,0,15.6-8.4,14.5-39C230.7,487.2,210.9,498.8,196.4,476.1z"/>
			</g>
		</g>
		<g>
			<g>
				<path class="st72" d="M231.3,611.1c0,0,4.9,40.5,4.9,66.7c0,26.2-0.5,37.2,9.7,37.2c12.2,0,11-10.4,11-36.9
					c0-26.5,4.4-67,4.4-67H231.3z"/>
			</g>
		</g>
		<g>
			<g>
				<path class="st73" d="M256.8,696.3c-2.9-1.4-6.4-2.2-10-2.2c-3.9,0-7.4,0.9-10.5,2.4c0.4,12.8,2.2,18.5,9.6,18.5
					C254.7,715,256.5,709.5,256.8,696.3z"/>
			</g>
		</g>
		<g>
			<g>
				<path class="st72" d="M286,611.1c0,0,4.9,40.5,4.9,66.7c0,26.2-0.5,37.2,9.7,37.2c12.2,0,11-10.4,11-36.9c0-26.5,4.4-67,4.4-67
					H286z"/>
			</g>
		</g>
		<g>
			<g>
				<path class="st73" d="M311.5,696.3c-2.9-1.4-6.4-2.2-10-2.2c-3.9,0-7.4,0.9-10.5,2.4c0.4,12.8,2.2,18.5,9.6,18.5
					C309.4,715,311.2,709.5,311.5,696.3z"/>
			</g>
		</g>
		<g>
			<g>
				<path class="st71" d="M285.4,195.8c0,0-24.3-13.9-6.6-41.6c0,0-2.3,9,4.6,11.8c0,0,2.1-17.1,15.1-18.1c0,0-3.4,11.6-0.8,15.9
					c0,0,3.7-9.8,15.4-8.2c0,0-8.3,5.3-5.3,14.4c0,0,2.8-6,11.2-3.9c0,0-7.8,6-7.5,13c0,0,6-1,7.5-2.2c0,0-3.4,17.4-19.9,19.8
					L285.4,195.8z"/>
			</g>
		</g>
		<g>
			<g>
				<path class="st73" d="M281.1,199.2c0,0-1.6-4.5,5.3-4.7c6.9-0.2,16.4,0.9,15.7,6.5c-0.7,5.5-5.7,5.2-5.7,5.2L281.1,199.2z"/>
			</g>
		</g>
		<g>
			<g>
				<path class="st74" d="M319.9,641.3h-92.7c-5.1-28.9-11.7-88.8-6.8-119h106.2C331.9,552.3,325.2,612.2,319.9,641.3z"/>
			</g>
		</g>
		<g>
			<g>
				<g>
					<g>
						<path class="st72" d="M213.9,515.7c0,0-3.1,17.2,1.4,27.4c4.5,10.2,9.2,16.1,14.6,14.1c5.4-2-3.2-12.6-3.7-13.4
							c0,0,2.5,1.3,3.4-0.5c0.9-1.7,1.5-15.8-0.8-23.8L213.9,515.7z"/>
					</g>
				</g>
				<g>
					<g>
						<path class="st75" d="M228.2,546.7c-1-1.5-1.8-2.5-1.9-2.8c0,0-2.6-0.9-3.6-5.8C222.6,538.1,221,545.5,228.2,546.7z"/>
					</g>
				</g>
				<g>
					<g>
						<path class="st72" d="M328.8,515.7c0,0,3.1,17.2-1.4,27.4c-4.5,10.2-9.2,16.1-14.6,14.1s3.2-12.6,3.7-13.4
							c0,0-2.5,1.3-3.4-0.5c-0.9-1.7-1.5-15.8,0.8-23.8L328.8,515.7z"/>
					</g>
				</g>
				<g>
					<g>
						<path class="st75" d="M314.6,546.7c1-1.5,1.8-2.5,1.9-2.8c0,0,2.6-0.9,3.6-5.8C320.2,538.1,321.7,545.5,314.6,546.7z"/>
					</g>
				</g>
				<g>
					<g>
						<path class="st76" d="M335.6,511.7c-6.4-110.4-36.7-130.6-36.7-130.6h-27.5h0h-27.5c0,0-30.7,32.8-36.7,130.6
							c0,0,9.3,8.6,21.6,7.8l-0.6,4c0,0,21.1,2.5,43.2,2.5l0,0c0,0,0,0,0,0c0,0,0,0,0,0h0c22.1,0,43.2-2.5,43.2-2.5l-0.6-4
							C326.3,520.3,335.6,511.7,335.6,511.7z"/>
					</g>
				</g>
				<g>
					<g>
						<path class="st77" d="M319.7,519.2c-1.8,0.3-3.7,0.4-5.7,0.3c0,0-7.4-87.4-10.5-103.2C303.5,416.3,316.3,488.5,319.7,519.2z"
							/>
					</g>
				</g>
				<g>
					<g>
						<path class="st77" d="M223,519.2c1.8,0.3,3.7,0.4,5.7,0.3c0,0,7.4-87.4,10.5-103.2C239.3,416.3,226.4,488.5,223,519.2z"/>
					</g>
				</g>
			</g>
			<g>
				<g>
					<path class="st78" d="M275.6,405.8h-8.8c-1.3,0-2.4-1.1-2.4-2.4v-4.2c0-1.3,1.1-2.4,2.4-2.4h8.8c1.3,0,2.4,1.1,2.4,2.4v4.2
						C278,404.7,276.9,405.8,275.6,405.8z"/>
				</g>
			</g>
			<g>
				<g>
					<polygon class="st78" points="268.3,401.3 274.3,401.3 279.3,482.3 271.2,494.6 263,482 					"/>
				</g>
			</g>
			<g>
				<g>
					<polygon class="st77" points="257.4,409.2 271.2,395.6 285.1,409.2 299.5,381.1 243.9,381.1 					"/>
				</g>
			</g>
		</g>
		<g>
			<g>
				<g>
					<path class="st79" d="M319,319c0,0,9.1-11.4,17.7-4.5c8.7,6.8-2.1,40-27.6,40.2L319,319z"/>
				</g>
			</g>
			<g>
				<g>
					<path class="st79" d="M223.1,319c0,0-9.1-11.4-17.7-4.5c-8.7,6.8,2.1,40,27.6,40.2L223.1,319z"/>
				</g>
			</g>
			<g>
				<g>
					<path class="st72" d="M329.1,292.7c0,56.1-26,101.7-58,101.7s-58-45.5-58-101.7c0-26.4,25.6-40.4,52.7-42
						c15.9-0.9,36.2-7.7,48.4-0.2C325.5,257.6,329.1,278.4,329.1,292.7z"/>
				</g>
			</g>
			<g>
				<g>
					<path class="st80" d="M316,257.6c5,9.2,11.6,36.6,8.8,56.5c2.1-1.2,4.6-2.1,7.2-1.7c15.5-74.8-9.6-104.9-43.2-112l-32.2,29.1
						l-2.4,29.6C254.2,259.1,310.6,247.9,316,257.6z"/>
				</g>
			</g>
			<g>
				<g>
					<path class="st71" d="M211.3,312.1c0,0,69.6-22.4,77.5-111.7l-75.5,52.3L211.3,312.1z"/>
				</g>
			</g>
		</g>
		<g>
			<path class="st81" d="M280.5,340.3c-2.8-1.4-9.1-1.3-14.1-0.5c-0.6,0.1-1.3,0.2-1.8,0.6c-0.5,0.4-0.3,1-0.1,1.6
				c1.3,1.4,3.2,2.8,5.7,4c0.8,0.4,1.7,0.8,2.6,0.8c1.4,0,2.6-0.8,3.7-1.6C278.2,343.9,281.6,342,280.5,340.3z"/>
			<path class="st4" d="M248.8,312.9c3.8,0.8,6.9,3,8.2,6.9c0.8,2.3,0,10.5-3.5,13.6c-1.4,1.3-3.5,2.5-5.4,2.7
				c-3.5,0.4-8.9,0.7-11.8-1.7c-2.5-2.1-3.9-5.2-4.4-8.4c-0.3-2.5-0.6-5.2,0.6-7.5c2.1-3.9,6.8-5.3,11.1-6.4L248.8,312.9z"/>
			<path class="st82" d="M238.6,330.5c-2.8-3.5-3-8.5-0.6-12.2c0.9-1.4,2.1-2.6,3.7-3.4c1.6-0.8,3.5-1,5.2-0.4
				c2.7,0.9,4.1,3.5,4.7,6c0.9,4,0.2,8.6-3.3,11.3c-1.5,1.1-3.4,1.8-5.3,1.5C241.2,333.1,239.7,331.9,238.6,330.5z"/>
			<path class="st82" d="M230.9,323.5c1-4,3.5-7.1,8.9-9.5c3.3-1.4,7.7-1.4,11-0.1c2.2,0.9,4.6,3.3,5.9,6.8c0.4,1.1,1.6,0.9,1.8,0.3
				c-0.4-6.7-6.4-10.6-10.5-11.4c-6.2-1.3-13.3,1.3-17.1,7.3c-1.1,1.8-1.7,3.8-1.7,5.1C229.2,323.8,230.6,324.5,230.9,323.5z"/>
			<path class="st82" d="M231.2,321c-2.2,0.1-4.4,0.3-6.7,0.4c1.9,1.2,3.9,2.5,6.1,2.5C230.7,322.6,230.4,322,231.2,321z"/>
			<g>
				<path class="st4" d="M293.5,312.9c-3.8,0.8-6.9,3-8.2,6.9c-0.8,2.3,0,10.5,3.5,13.6c1.4,1.3,3.5,2.5,5.4,2.7
					c3.5,0.4,8.9,0.7,11.8-1.7c2.5-2.1,3.9-5.2,4.4-8.4c0.3-2.5,0.6-5.2-0.6-7.5c-2.1-3.9-6.8-5.3-11.1-6.4L293.5,312.9z"/>
				<path class="st82" d="M303.7,330.5c2.8-3.5,3-8.5,0.6-12.2c-0.9-1.4-2.1-2.6-3.7-3.4c-1.6-0.8-3.5-1-5.2-0.4
					c-2.7,0.9-4.1,3.5-4.7,6c-0.9,4-0.2,8.6,3.3,11.3c1.5,1.1,3.4,1.8,5.3,1.5C301.2,333.1,302.7,331.9,303.7,330.5z"/>
				<path class="st82" d="M311.4,323.5c-1-4-3.5-7.1-8.9-9.5c-3.3-1.4-7.7-1.4-11-0.1c-2.2,0.9-4.6,3.3-5.9,6.8
					c-0.4,1.1-1.6,0.9-1.8,0.3c0.4-6.7,6.4-10.6,10.5-11.4c6.2-1.3,13.3,1.3,17.1,7.3c1.1,1.8,1.7,3.8,1.7,5.1
					C313.2,323.8,311.7,324.5,311.4,323.5z"/>
				<path class="st82" d="M311.1,321c2.2,0.1,4.4,0.3,6.7,0.4c-1.9,1.2-3.9,2.5-6.1,2.5C311.6,322.6,311.9,322,311.1,321z"/>
			</g>
			<path class="st82" d="M288.6,356.8c0,0.1,1.9,0,2.1,0c0.5-0.1,1.2-0.3,1.5-0.8c0.1-0.2,0.1-0.5,0.2-0.7c0.1-0.2,0.3-0.5,0.5-0.5
				c0.2,0,0.5,0.1,0.6,0.3c0.1,0.2,0.2,0.5,0.2,0.7c0,0.4,0.1,0.7,0.1,1.1c0,0.3,0.1,0.6,0,0.9c-0.1,0.3-0.4,0.5-0.7,0.4
				c-0.3-0.1-0.4-0.7-0.7-0.7c-0.2,0-0.4,0.1-0.5,0.2c-0.8,0.7-1.6,1.6-2,2.5c-0.2,0.5-0.5,1-0.8,1.5c-0.1,0.3-0.3,0.5-0.4,0.8
				c-0.1,0.2-0.4,0.5-0.4,0.7C288.4,361,288.5,358.9,288.6,356.8z"/>
			<path class="st82" d="M257.2,356.7c0,0.1-3.1,0.1-3.3,0c-0.5-0.1-1.2-0.3-1.5-0.8c-0.1-0.2-0.1-0.5-0.2-0.7s-0.3-0.5-0.5-0.5
				c-0.2,0-0.5,0.1-0.6,0.3c-0.1,0.2-0.2,0.5-0.2,0.7c0,0.4-0.1,0.7-0.1,1.1c0,0.3-0.1,0.6,0,0.9c0.1,0.3,0.4,0.5,0.7,0.4
				c0.3-0.1,0.4-0.7,0.7-0.7c0.2,0,0.4,0.1,0.5,0.2c0.8,0.7,1.6,1.6,2,2.5c0.2,0.5,0.5,1,0.8,1.5c0.1,0.3,0.3,0.5,0.4,0.8
				c0.1,0.2,0.4,0.5,0.4,0.7C256.2,361,257.3,358.8,257.2,356.7z"/>
			<g>
				<g>
					<g>
						<path class="st83" d="M286.6,367.1c0,0-1.5,9.5-11.8,10.3c-14.5,1.1-17.5-11.3-17.5-11.3L286.6,367.1z"/>
					</g>
				</g>
				<g>
					<g>
						<path class="st83" d="M287,356.7c0,0-2.4-3.3-14.3-3.3c-7.4,0-15.1,3.3-15.1,3.3H287z"/>
					</g>
				</g>
				<g>
					<g>
						<path class="st82" d="M254.9,360.1c0.4,1.2,2.3,5.6,2.6,6c0.8,1.2,1.8,2.3,3,3.4c2.8,2.3,6.9,3.9,12.8,3.9
							c2.8,0,5.2-0.5,7.2-1.3c3.1-1.3,5.1-3.1,6.4-5.5c1.5-2.9,2-3.9,3-6.5c0.4-1.1,0.6-2.7-0.3-3.2c-0.1-0.1-1.6-0.1-2.3-0.1h-29.6
							C255.8,356.7,254.3,358.4,254.9,360.1z"/>
					</g>
				</g>
				<g>
					<g>
						<path class="st4" d="M284.9,361.3c2-0.8,2.4-2.2,2.4-4.6l-29.8,0c0,2.2,0.8,3.7,2.5,4.5C264.4,362.5,278.7,363.7,284.9,361.3z
							"/>
					</g>
				</g>
				<g>
					<g>
						<path class="st84" d="M260.5,369.5c2.8,2.3,6.9,3.9,12.8,3.9c2.8,0,5.2-0.5,7.2-1.3c-0.4-2-3.4-5.4-10.7-5.9
							C262,365.6,260.6,369.3,260.5,369.5z"/>
					</g>
				</g>
			</g>
		</g>
	</g>
</g>
<g id="_x32_ND_CHAR" class="st69">
	<g class="st70">
		<g>
			<g>
				<g>
					<path class="st85" d="M926.9,436.7c0,0,19.6-14.3,18.4-35.3c0,0-12.9,3.2-17.4-3.2c0,0,6.3-1.5,6-9.5c0,0-10.2-0.6-10.4-16.8
						c-0.1-16.1,15.8-130.7-71.3-130.7c-87.1,0-71.2,114.6-71.3,130.7c-0.1,16.1-10.4,16.8-10.4,16.8c-0.3,7.9,6,9.5,6,9.5
						c-4.5,6.4-17.4,3.2-17.4,3.2c-1.2,21,18.4,35.3,18.4,35.3c-3.2,3.2-8.5,1.5-8.5,1.5c0.6,33.4,36.9,42,36.9,42c-2.2,6-9,6-9,6
						c10.6,34.4,55.2,27.1,55.2,27.1s44.7,7.2,55.2-27.1c0,0-6.8,0-9-6c0,0,36.2-8.6,36.9-42C935.4,438.2,930,439.9,926.9,436.7z"/>
				</g>
			</g>
		</g>
		<g>
			<g>
				<g>
					<g>
						<g>
							<path class="st72" d="M857.9,554.3h23.9c0,0-0.9,59.5-11.9,59.5C858.9,613.8,857.9,554.3,857.9,554.3z"/>
						</g>
					</g>
					<g>
						<g>
							<path class="st86" d="M869.9,602.7c-3.5,0-5.5,0.7-6.6,1.4c1.7,5.8,3.8,9.7,6.6,9.7h0c2.8,0,5-3.9,6.6-9.7
								C875.4,603.4,873.4,602.7,869.9,602.7z"/>
						</g>
					</g>
				</g>
				<g>
					<g>
						<g>
							<path class="st72" d="M825.2,554.3h23.9c0,0-0.9,59.5-11.9,59.5S825.2,554.3,825.2,554.3z"/>
						</g>
					</g>
					<g>
						<g>
							<path class="st86" d="M837.1,602.7c-3.5,0-5.5,0.7-6.6,1.4c1.7,5.8,3.8,9.7,6.6,9.7h0c2.8,0,5-3.9,6.6-9.7
								C842.7,603.4,840.7,602.7,837.1,602.7z"/>
						</g>
					</g>
				</g>
				<g>
					<g>
						<polygon class="st86" points="853.3,491.1 817.3,491.1 822.3,557 853.3,557 884.3,557 889.3,491.1 						"/>
					</g>
				</g>
				<g>
					<g>
						<path class="st72" d="M802.9,480.8c-0.1,0.8-2.5,10.4,1.2,18.7c3.7,8.3,7.6,13.1,12,11.5s-2.7-10.2-3-10.8c0,0,2,1,2.8-0.4
							c0.7-1.4,1.3-12.8-0.2-19.4l5.5-50.5l-9.9-1.8c-3.6,13.4-4.6,30.3-5.9,47.8C805.4,475.9,803.3,478.2,802.9,480.8z"/>
					</g>
				</g>
				<g>
					<g>
						<path class="st75" d="M814.7,502.4c-0.8-1.2-1.5-2.1-1.6-2.3c0,0-2.1-0.7-3-4.7C810.1,495.4,808.9,501.5,814.7,502.4z"/>
					</g>
				</g>
				<g>
					<g>
						<path class="st72" d="M903.8,480.8c0.1,0.8,2.5,10.4-1.2,18.7c-3.7,8.3-7.6,13.1-12,11.5c-4.4-1.6,2.7-10.2,3-10.8
							c0,0-2,1-2.8-0.4c-0.7-1.4-1.3-12.8,0.2-19.4l-5.5-50.5l9.9-1.8c3.6,13.4,4.6,30.3,5.9,47.8
							C901.3,475.9,903.5,478.2,903.8,480.8z"/>
					</g>
				</g>
				<g>
					<g>
						<path class="st75" d="M892,502.4c0.8-1.2,1.5-2.1,1.6-2.3c0,0,2.1-0.7,3-4.7C896.6,495.4,897.9,501.5,892,502.4z"/>
					</g>
				</g>
				<g>
					<g>
						<path class="st73" d="M877.8,392.9l-3.9-0.5h-20.5h0h-20.5l-3.9,0.5c0,0-18.9,24-20.2,35.9c0,0,8.1,5.6,22.3,5.9h22.2h0h22.2
							c14.3-0.3,22.3-5.9,22.3-5.9C896.7,416.9,877.8,392.9,877.8,392.9z"/>
					</g>
				</g>
				<g>
					<g>
						<path class="st87" d="M853.4,495.8c20.7,0,37.5-3.4,37.5-3.4c-1.9-67.3-13.8-101.6-13.8-101.6h-3.9h-39.6h-3.9
							c0,0-11.9,34.4-13.8,101.6C815.9,492.4,832.6,495.8,853.4,495.8L853.4,495.8C853.4,495.8,853.4,495.8,853.4,495.8
							C853.4,495.8,853.4,495.8,853.4,495.8L853.4,495.8z"/>
					</g>
				</g>
				<g>
					<g>
						<polygon class="st73" points="850.9,403.6 855.9,403.6 861.3,461.1 853.3,467.7 845.3,460.9 						"/>
					</g>
				</g>
				<g>
					<g>
						<path class="st73" d="M856.9,405.1h-7.2c-1.1,0-2-0.9-2-2v-3.4c0-1.1,0.9-2,2-2h7.2c1.1,0,2,0.9,2,2v3.4
							C858.9,404.2,858,405.1,856.9,405.1z"/>
					</g>
				</g>
				<g>
					<g>
						<polygon class="st77" points="844.8,410 853.4,398.9 861.9,410 874.3,394.9 832.7,394.9 						"/>
					</g>
				</g>
				<g>
					<g>
						<rect x="863.3" y="414.1" class="st71" width="15.7" height="3.7"/>
					</g>
				</g>
			</g>
			<g>
				<g>
					<g>
						<circle class="st72" cx="853.5" cy="343.4" r="57.2"/>
					</g>
				</g>
			</g>
		</g>
		<g>
			<g>
				<path class="st85" d="M796.6,336c0,0,65.2-10.3,79.4-26.2c0,0,13.3,17.5,34.3,16v-46.9l-122.6,8.4V316L796.6,336z"/>
			</g>
		</g>
		<g>
			<path class="st81" d="M862.3,360.3c-2.2-1.1-7.2-1-11.1-0.4c-0.5,0.1-1,0.2-1.5,0.5c-0.4,0.3-0.3,0.8-0.1,1.2
				c1.1,1.1,2.6,2.2,4.5,3.2c0.6,0.3,1.3,0.6,2,0.6c1.1,0,2-0.6,2.9-1.2C860.4,363,863.1,361.5,862.3,360.3z"/>
			<path class="st4" d="M837.3,338.6c3,0.7,5.4,2.4,6.5,5.4c0.6,1.8,0,8.2-2.7,10.7c-1.1,1-2.7,2-4.3,2.1c-2.8,0.3-7,0.5-9.3-1.4
				c-2-1.7-3.1-4.1-3.4-6.6c-0.3-2-0.5-4.1,0.4-5.9c1.6-3.1,5.4-4.2,8.7-5L837.3,338.6z"/>
			<path class="st82" d="M829.9,351.8c-1.9-2.4-2.1-5.7-0.4-8.3c0.6-0.9,1.4-1.8,2.5-2.3c1.1-0.5,2.4-0.7,3.5-0.3
				c1.8,0.6,2.8,2.4,3.2,4.1c0.6,2.7,0.1,5.8-2.2,7.7c-1,0.8-2.3,1.2-3.6,1C831.6,353.5,830.6,352.7,829.9,351.8z"/>
			<path class="st82" d="M823.2,347c0.8-3.2,2.7-5.6,7-7.5c2.6-1.1,6.1-1.1,8.7-0.1c1.8,0.7,3.6,2.6,4.7,5.3
				c0.3,0.9,1.3,0.7,1.4,0.2c-0.3-5.3-5.1-8.3-8.3-9c-4.9-1-10.5,1-13.5,5.7c-0.9,1.4-1.3,3-1.3,4C821.8,347.3,823,347.8,823.2,347z
				"/>
			<path class="st82" d="M823.4,345c-1.7,0.1-3.5,0.2-5.2,0.3c1.5,1,3.1,1.9,4.8,2C823,346.3,822.8,345.8,823.4,345z"/>
			<g>
				<path class="st4" d="M872.5,338.6c-3,0.7-5.4,2.4-6.5,5.4c-0.6,1.8,0,8.2,2.7,10.7c1.1,1,2.7,2,4.3,2.1c2.8,0.3,7,0.5,9.3-1.4
					c2-1.7,3.1-4.1,3.4-6.6c0.3-2,0.5-4.1-0.4-5.9c-1.6-3.1-5.4-4.2-8.7-5L872.5,338.6z"/>
				<path class="st82" d="M880,351.8c1.9-2.4,2.1-5.7,0.4-8.3c-0.6-0.9-1.4-1.8-2.5-2.3c-1.1-0.5-2.4-0.7-3.5-0.3
					c-1.8,0.6-2.8,2.4-3.2,4.1c-0.6,2.7-0.1,5.8,2.2,7.7c1,0.8,2.3,1.2,3.6,1C878.2,353.5,879.2,352.7,880,351.8z"/>
				<path class="st82" d="M886.6,347c-0.8-3.2-2.7-5.6-7-7.5c-2.6-1.1-6.1-1.1-8.7-0.1c-1.8,0.7-3.6,2.6-4.7,5.3
					c-0.3,0.9-1.3,0.7-1.4,0.2c0.3-5.3,5.1-8.3,8.3-9c4.9-1,10.5,1,13.5,5.7c0.9,1.4,1.3,3,1.3,4C888,347.3,886.8,347.8,886.6,347z"
					/>
				<path class="st82" d="M886.4,345c1.7,0.1,3.5,0.2,5.2,0.3c-1.5,1-3.1,1.9-4.8,2C886.8,346.3,887,345.8,886.4,345z"/>
			</g>
			<g>
				<g>
					<g>
						<path class="st83" d="M871.6,376.7c-0.2-0.7-0.5-1.4-0.7-2.1c-0.6-1.1-0.6,1.5-1.2,2c-0.6,0.5-1.4,0.8-2.1,1
							c-2.1,0.8-4.2,1.6-6.3,2.4c-2.8,2.2,6.5-1.6,8.6-2.9c0.4-0.3,1.1-0.3,1.3,0.1C871.8,378.4,872,377.6,871.6,376.7z"/>
					</g>
				</g>
				<g>
					<g>
						<path class="st83" d="M850.3,379.9c-2.1-0.9-4.1-1.8-6.2-2.7c-0.7-0.3-1.5-0.6-2.1-1.1s-0.5-3.1-1.1-2
							c-0.3,0.7-0.5,1.4-0.8,2.1c-0.5,0.9-0.3,1.7,0.4,0.4c0.2-0.4,0.9-0.3,1.3,0C844,378.1,853,382.2,850.3,379.9z"/>
					</g>
				</g>
				<g>
					<g>
						<path class="st83" d="M851.6,383.8c2.9,1.2,5.5,1.8,8.4,0.5c4.7-2,7.7-5.2,8.5-7c0,0-7.8-0.9-10.1-1.1
							c-1.7-0.2-3.5-0.2-5.3-0.2c-2.1,0.1-9.5,1.3-9.5,1.3C844.3,378.7,848.6,382.6,851.6,383.8z"/>
					</g>
				</g>
				<g>
					<g>
						<path class="st83" d="M843.1,377.1c0.8-0.8,4.4-2.4,6-3c2.3-0.8,4.8-1.1,7.2-1.1c2.4,0.1,4.6,0.5,6.4,1.1
							c1.5,0.6,5.6,2.3,6.2,2.9c0.7,0.8-6,1.7-12.2,1.8C849.7,378.9,842.3,377.9,843.1,377.1z"/>
					</g>
				</g>
			</g>
		</g>
	</g>
</g>
<g id="_x33_RD_CHAR" class="st69">
	<g class="st70">
		<g>
			<path class="st81" d="M643.1,352.5c-2.4-1.2-8-1.1-12.3-0.4c-0.6,0.1-1.1,0.2-1.6,0.5c-0.5,0.3-0.3,0.9-0.1,1.4
				c1.2,1.2,2.8,2.5,5,3.5c0.7,0.3,1.5,0.7,2.3,0.7c1.2,0,2.3-0.7,3.2-1.4C641.1,355.6,644.1,353.9,643.1,352.5z"/>
			<g>
				<path class="st4" d="M616.6,327.6c3.3,0.7,6,2.6,7.2,6c0.7,2,0,9.1-3,11.9c-1.3,1.1-3,2.2-4.7,2.4c-3.1,0.4-7.8,0.6-10.3-1.5
					c-2.2-1.8-3.4-4.5-3.8-7.4c-0.3-2.2-0.6-4.6,0.5-6.6c1.8-3.4,5.9-4.6,9.7-5.6L616.6,327.6z"/>
				<path class="st82" d="M608.3,342.2c-2.1-2.7-2.3-6.4-0.5-9.2c0.7-1,1.6-2,2.8-2.5c1.2-0.6,2.7-0.7,3.9-0.3
					c2,0.7,3.1,2.7,3.5,4.5c0.7,3,0.2,6.5-2.5,8.5c-1.1,0.8-2.6,1.4-4,1.1C610.3,344.1,609.1,343.2,608.3,342.2z"/>
				<path class="st4" d="M656.2,327.6c-3.3,0.7-6,2.6-7.2,6c-0.7,2,0,9.1,3,11.9c1.3,1.1,3,2.2,4.7,2.4c3.1,0.4,7.8,0.6,10.3-1.5
					c2.2-1.8,3.4-4.5,3.8-7.4c0.3-2.2,0.6-4.6-0.5-6.6c-1.8-3.4-5.9-4.6-9.7-5.6L656.2,327.6z"/>
				<path class="st82" d="M664.4,342.2c2.1-2.7,2.3-6.4,0.5-9.2c-0.7-1-1.6-2-2.8-2.5s-2.7-0.7-3.9-0.3c-2,0.7-3.1,2.7-3.5,4.5
					c-0.7,3-0.2,6.5,2.5,8.5c1.1,0.8,2.6,1.4,4,1.1C662.5,344.1,663.6,343.2,664.4,342.2z"/>
				<path class="st82" d="M600.9,336.8c0.8-3.5,3-6.2,7.8-8.3c2.8-1.3,6.7-1.2,9.6-0.1c1.9,0.8,4,2.9,5.2,5.9c0.4,1,1.4,0.8,1.5,0.2
					c-0.4-5.8-5.6-9.2-9.2-10c-5.4-1.1-11.6,1.2-14.9,6.4c-1,1.6-1.5,3.3-1.5,4.5C599.4,337.1,600.7,337.7,600.9,336.8z"/>
				<g>
					<path class="st82" d="M671.2,336.8c-0.8-3.5-3-6.2-7.8-8.3c-2.8-1.3-6.7-1.2-9.6-0.1c-1.9,0.8-4,2.9-5.2,5.9
						c-0.4,1-1.4,0.8-1.5,0.2c0.4-5.8,5.6-9.2,9.2-10c5.4-1.1,11.6,1.2,14.9,6.4c1,1.6,1.5,3.3,1.5,4.5
						C672.7,337.1,671.5,337.7,671.2,336.8z"/>
				</g>
			</g>
			<path class="st88" d="M619.2,304.9c-7.4-0.4-14.8,0.7-21.7,3.3c1.5,3.2,2.8,6.5,3.7,9.9c6.8-2.1,13.9-3.2,21-3.2
				c0.1-3.2,0.1-6.3,0.2-9.5c-0.7,0.5-1.4,1-2.1,1.6C619.9,306.2,619.6,305.5,619.2,304.9z"/>
			<path class="st88" d="M652.9,304.9c7.4-0.4,14.8,0.7,21.7,3.3c-1.5,3.2-2.8,6.5-3.7,9.9c-6.8-2.1-13.9-3.2-21-3.2
				c-0.1-3.2-0.1-6.3-0.2-9.5c0.7,0.5,1.4,1,2.1,1.6C652.2,306.2,652.5,305.5,652.9,304.9z"/>
			<g>
				<path class="st82" d="M641.9,377.7c-3.7,0.6-7.5,0.6-10.8,0c1.4,1.3,3.4,2,5.3,1.8C638.4,379.2,640,379.1,641.9,377.7z"/>
				<path class="st82" d="M620.1,367c-0.2,0-0.4,0.1-0.6,0.1c-0.2,0.8-0.4,1.7-0.6,2.5c0,0.2-0.1,0.4-0.1,0.6c0,0.2,0.1,0.4,0.3,0.4
					c0.4,0.1,0.8-0.5,1.2-0.6c0.5-0.1,0.9,0.1,1.3,0.2c1.3,0.2,6.4,1.5,11.5,2c5,0.4,10.2-0.2,15-2.1c1.1-0.4,2.9-1,4.1-1
					c0.7,0,1.1,1.4,1.5,1c0-1.8-0.3-4.3-0.8-3.8c-0.6,0.4-0.2,0.2-0.4,0.8c-9.5,3.7-19.5,5-31,1.2C620.9,368.3,620,367.9,620.1,367z
					"/>
			</g>
		</g>
		<g>
			<g>
				<g>
					<g>
						<polygon class="st89" points="670.8,609.3 638.8,609.3 630.9,521.5 622.4,609.3 590.1,609.3 590.1,477.6 670.8,477.6 						
							"/>
					</g>
				</g>
				<g>
					<g>
						<path class="st90" d="M615,597.6c7.8,8.2,12.1,16.9-1.2,18.6c-12.1,1.5-45.8,7.6-37.4-8.7c8.1-15.8,17.3-16.9,22.6-16.9
							C604.3,590.5,610.9,593.3,615,597.6z"/>
					</g>
				</g>
				<g>
					<g>
						<path class="st90" d="M646.1,597.6c-7.8,8.2-12.1,16.9,1.2,18.6c12.1,1.5,45.8,7.6,37.4-8.7c-8.1-15.8-17.3-16.9-22.6-16.9
							C656.9,590.5,650.3,593.3,646.1,597.6z"/>
					</g>
				</g>
				<g>
					<g>
						<polygon class="st76" points="601.8,372.4 659,372.4 665.5,390 630.8,443.6 593.9,390.5 						"/>
					</g>
				</g>
				<g>
					<g>
						<path class="st91" d="M633.2,386.5h-5.1c-1.2,0-2.1-0.9-2.1-2.1v-6.6c0-1.2,0.9-2.1,2.1-2.1h5.1c1.2,0,2.1,0.9,2.1,2.1v6.6
							C635.3,385.5,634.3,386.5,633.2,386.5z"/>
					</g>
				</g>
				<g>
					<g>
						<polygon class="st91" points="627.9,385.4 615,451.8 631,461.4 646.5,451.4 633.2,385.4 						"/>
					</g>
				</g>
				<g>
					<g>
						<polygon class="st77" points="605.9,373.1 608.6,395.4 630.9,381.1 653.6,395.4 654.9,373 						"/>
					</g>
				</g>
				<g>
					<g>
						<path class="st72" d="M573.2,469.9c0,0-5.4,15-0.9,26.7c4.5,11.8,9.5,18.8,15.8,16.9c6.3-1.9-2.9-14.4-3.4-15.3
							c0,0,2.8,1.6,3.9-0.4c1.1-1.8,1.5-10.2-0.7-19.5L573.2,469.9z"/>
					</g>
				</g>
				<g>
					<g>
						<path class="st75" d="M586.8,501.5c-1-1.7-1.9-3-2.1-3.3c0,0-2.9-1.1-3.8-6.8C580.9,491.4,578.7,499.8,586.8,501.5z"/>
					</g>
				</g>
				<g>
					<g>
						<path class="st89" d="M589.2,376.9c0,0-15.8,36-18.8,100.7c0,0,12.3,2.3,18.8,2C590.5,446.9,589,405.8,589.2,376.9z"/>
					</g>
				</g>
				<g>
					<g>
						<path class="st92" d="M589.2,376.9v102.6C589.2,479.6,580.3,444.7,589.2,376.9z"/>
					</g>
				</g>
				<g>
					<g>
						<path class="st72" d="M687.6,469.9c0,0,5.4,15,0.9,26.7c-4.5,11.8-9.5,18.8-15.8,16.9c-6.3-1.9,2.9-14.4,3.4-15.3
							c0,0-2.8,1.6-3.9-0.4c-1.1-1.8-1.5-10.2,0.7-19.5L687.6,469.9z"/>
					</g>
				</g>
				<g>
					<g>
						<path class="st75" d="M674,501.5c1-1.7,1.9-3,2.1-3.3c0,0,2.9-1.1,3.8-6.8C679.9,491.4,682.1,499.8,674,501.5z"/>
					</g>
				</g>
				<g>
					<g>
						<path class="st89" d="M671.7,376.9c0,0,15.8,36,18.8,100.7c0,0-12.3,2.3-18.8,2C670.3,446.9,671.8,405.8,671.7,376.9z"/>
					</g>
				</g>
				<g>
					<g>
						<path class="st92" d="M671.7,376.9v102.6C671.7,479.6,680.5,444.7,671.7,376.9z"/>
					</g>
				</g>
				<g>
					<g>
						<path class="st89" d="M659,372.4v4.5c-0.2,37.4-28.5,57.3-28.6,57.3c-0.1,0-28.4-20-28.6-57.3v-4.5l-12.7,4.5v102.6h41.2h0
							h41.2V376.9L659,372.4z"/>
					</g>
				</g>
				<g>
					<g>
						<circle class="st92" cx="630.4" cy="443.6" r="4.2"/>
					</g>
				</g>
				<g>
					<g>
						<circle class="st92" cx="630.4" cy="465" r="4.2"/>
					</g>
				</g>
				<g>
					<g>
						<path class="st92" d="M594.1,405.3c2.3,4,10,3.2,10,3.2s-3.2,17.3,4.8,22.3c8,5,21.5,3.5,21.5,3.5s-28.4-19.9-28.6-57.3v-4.5
							C601.8,372.4,588.1,395,594.1,405.3z"/>
					</g>
				</g>
				<g>
					<g>
						<path class="st92" d="M666.7,405.3c-2.3,4-10,3.2-10,3.2s3.2,17.3-4.8,22.3c-8,5-21.5,3.5-21.5,3.5s28.4-19.9,28.6-57.3v-4.5
							C659,372.4,672.7,395,666.7,405.3z"/>
					</g>
				</g>
			</g>
			<g>
				<g>
					<g>
						<path class="st93" d="M567.7,313.8c0,0-28.1-97.8,62.7-97.8s63,97.8,63,97.8l-62.9,15.3L567.7,313.8z"/>
					</g>
				</g>
				<g>
					<g>
						<path class="st79" d="M583.9,314.3c0,0-13.2-7.9-19.9,0.7c-6.7,8.6,6.1,30.2,19.9,30.8V314.3z"/>
					</g>
				</g>
				<g>
					<g>
						<path class="st79" d="M677.2,314.3c0,0,13.2-7.9,19.9,0.7c6.7,8.6-6.1,30.2-19.9,30.8V314.3z"/>
					</g>
				</g>
				<g>
					<g>
						<path class="st72" d="M639.8,376.9H621c-23.5,0-42.5-19-42.5-42.5v-52.3c0-6.2,2.7-12.1,7.5-16.2l0.3-0.2
							c10.2-8.8,25.1-9.5,36.1-1.8l8.2,5.7l8.1-5.7c11-7.7,25.9-7,36.1,1.7l0.3,0.3c4.8,4.1,7.5,10,7.5,16.2v52.3
							C682.4,357.9,663.3,376.9,639.8,376.9z"/>
					</g>
				</g>
			</g>
		</g>
		<g>
			<path class="st81" d="M638.2,329.6c-2.6-1.3-8.5-1.2-13.1-0.4c-0.6,0.1-1.2,0.2-1.7,0.5c-0.5,0.3-0.3,0.9-0.1,1.4
				c1.2,1.3,3,2.6,5.3,3.7c0.8,0.4,1.5,0.7,2.4,0.7c1.3,0,2.4-0.7,3.4-1.5C636,332.9,639.2,331.1,638.2,329.6z"/>
			<g>
				<path class="st4" d="M609.9,303.1c3.5,0.8,6.4,2.8,7.6,6.4c0.7,2.2,0,9.7-3.2,12.7c-1.3,1.2-3.2,2.3-5,2.5
					c-3.3,0.4-8.3,0.6-10.9-1.6c-2.3-2-3.6-4.8-4.1-7.8c-0.3-2.4-0.6-4.9,0.5-7c1.9-3.6,6.3-4.9,10.3-5.9L609.9,303.1z"/>
				<path class="st82" d="M601.2,318.6c-2.2-2.8-2.4-6.8-0.5-9.8c0.7-1.1,1.7-2.1,3-2.7c1.3-0.6,2.8-0.8,4.2-0.3
					c2.2,0.7,3.3,2.8,3.8,4.8c0.7,3.2,0.2,6.9-2.6,9c-1.2,0.9-2.7,1.5-4.3,1.2C603.2,320.7,602,319.7,601.2,318.6z"/>
				<path class="st4" d="M652.1,303.1c-3.5,0.8-6.4,2.8-7.6,6.4c-0.7,2.2,0,9.7,3.2,12.7c1.3,1.2,3.2,2.3,5,2.5
					c3.3,0.4,8.3,0.6,10.9-1.6c2.3-2,3.6-4.8,4.1-7.8c0.3-2.4,0.6-4.9-0.5-7c-1.9-3.6-6.3-4.9-10.3-5.9L652.1,303.1z"/>
				<path class="st82" d="M660.8,318.6c2.2-2.8,2.4-6.8,0.5-9.8c-0.7-1.1-1.7-2.1-3-2.7c-1.3-0.6-2.8-0.8-4.2-0.3
					c-2.2,0.7-3.3,2.8-3.8,4.8c-0.7,3.2-0.2,6.9,2.6,9c1.2,0.9,2.7,1.5,4.3,1.2C658.8,320.7,660,319.7,660.8,318.6z"/>
				<path class="st82" d="M593.3,312.9c0.9-3.7,3.2-6.6,8.2-8.8c3-1.3,7.1-1.3,10.2-0.1c2.1,0.8,4.3,3.1,5.5,6.3
					c0.4,1,1.5,0.9,1.6,0.2c-0.4-6.2-6-9.8-9.8-10.6c-5.7-1.2-12.3,1.2-15.9,6.8c-1.1,1.7-1.6,3.5-1.6,4.7
					C591.7,313.2,593.1,313.8,593.3,312.9z"/>
				<g>
					<path class="st82" d="M668.1,312.9c-0.9-3.7-3.2-6.6-8.2-8.8c-3-1.3-7.1-1.3-10.2-0.1c-2.1,0.8-4.3,3.1-5.5,6.3
						c-0.4,1-1.5,0.9-1.6,0.2c0.4-6.2,6-9.8,9.8-10.6c5.7-1.2,12.3,1.2,15.9,6.8c1.1,1.7,1.6,3.5,1.6,4.7
						C669.7,313.2,668.4,313.8,668.1,312.9z"/>
				</g>
			</g>
			<path class="st93" d="M612.7,278.9c-7.8-0.5-15.7,0.7-23.1,3.5c1.6,3.4,3,6.9,4,10.5c7.2-2.3,14.8-3.4,22.3-3.4
				c0.1-3.4,0.1-6.7,0.2-10.1c-0.8,0.6-1.5,1.1-2.3,1.7C613.5,280.3,613.1,279.6,612.7,278.9z"/>
			<path class="st93" d="M648.6,278.9c7.8-0.5,15.7,0.7,23.1,3.5c-1.6,3.4-3,6.9-4,10.5c-7.2-2.3-14.8-3.4-22.3-3.4
				c-0.1-3.4-0.1-6.7-0.2-10.1c0.8,0.6,1.5,1.1,2.3,1.7C647.9,280.3,648.2,279.6,648.6,278.9z"/>
			<g>
				<path class="st82" d="M638.2,363.9c-4.4,0.7-8.8,0.8-12.7,0c1.7,1.5,4,2.4,6.2,2.1C634,365.7,636,365.6,638.2,363.9z"/>
				<g>
					<path class="st82" d="M648,344.7c0,0.1,1.9,0,2.1,0c0.6-0.1,1.2-0.3,1.5-0.8c0.1-0.2,0.1-0.5,0.2-0.8c0.1-0.3,0.3-0.5,0.5-0.5
						c0.2,0,0.5,0.1,0.6,0.3c0.1,0.2,0.2,0.5,0.2,0.7c0,0.4,0.1,0.7,0.1,1.1c0,0.3,0.1,0.6,0,0.9c-0.1,0.3-0.4,0.5-0.7,0.4
						c-0.3-0.2-0.4-0.7-0.8-0.8c-0.2,0-0.4,0.1-0.6,0.2c-0.8,0.7-1.6,1.6-2,2.6c-0.2,0.5-0.5,1-0.8,1.5c-0.2,0.3-0.3,0.5-0.4,0.8
						c-0.1,0.2-0.4,0.5-0.4,0.8C647.8,349,647.9,346.8,648,344.7z"/>
					<path class="st82" d="M615.9,344.6c0,0.1-3.1,0.1-3.3,0c-0.6-0.1-1.2-0.3-1.5-0.8c-0.1-0.2-0.1-0.5-0.2-0.8
						c-0.1-0.3-0.3-0.5-0.5-0.5c-0.2,0-0.5,0.1-0.6,0.3c-0.1,0.2-0.2,0.5-0.2,0.7c0,0.4-0.1,0.7-0.1,1.1c0,0.3-0.1,0.6,0,0.9
						c0.1,0.3,0.4,0.5,0.7,0.4c0.3-0.2,0.4-0.7,0.8-0.8c0.2,0,0.4,0.1,0.6,0.2c0.8,0.7,1.6,1.6,2,2.6c0.2,0.5,0.5,1,0.8,1.5
						c0.2,0.3,0.3,0.5,0.4,0.8c0.1,0.2,0.4,0.5,0.4,0.8C614.9,349,616,346.8,615.9,344.6z"/>
					<g>
						<g>
							<g>
								<path class="st82" d="M613.6,348.1c0.5,1.2,2.3,5.7,2.6,6.2c0.8,1.2,1.8,2.4,3.1,3.5c2.8,2.3,7,4,13.1,4
									c2.9,0,5.3-0.5,7.3-1.4c3.2-1.3,5.2-3.2,6.5-5.7c1.6-3,2.1-4,3.1-6.7c0.4-1.1,0.6-2.7-0.3-3.3c-0.1-0.1-1.7-0.1-2.4-0.1
									h-30.3C614.5,344.6,612.9,346.4,613.6,348.1z"/>
							</g>
						</g>
						<g>
							<g>
								<path class="st4" d="M644.2,349.3c2-0.8,2.5-2.3,2.5-4.7l-30.5,0c0,2.2,0.9,3.8,2.6,4.6
									C623.3,350.5,637.9,351.8,644.2,349.3z"/>
							</g>
						</g>
						<g>
							<g>
								<path class="st84" d="M619.3,357.7c2.8,2.3,7,4,13.1,4c2.9,0,5.3-0.5,7.3-1.4c-0.4-2-3.5-5.5-11-6.1
									C620.9,353.7,619.4,357.5,619.3,357.7z"/>
							</g>
						</g>
					</g>
				</g>
			</g>
		</g>
	</g>
</g>
<g id="_x34_TH_CHAR" class="st69">
	<g class="st70">
		<g>
			<g>
				<g>
					<rect x="718.2" y="454.4" class="st76" width="52.1" height="101.7"/>
				</g>
			</g>
			<g>
				<g>
					<path class="st94" d="M781.4,556.2c0,0-57.7-4.3-77.2,0l0.8,106.8l35.3,1.7c0-19.9,1.4-46.2,2.7-77.7c0,0,6.8,49.7,7.6,77.2
						l36-0.6C786.5,663.6,782.4,568.6,781.4,556.2z"/>
				</g>
			</g>
			<g>
				<g>
					<path class="st95" d="M748.1,670.8c0,5.2,9,4.8,20.1,4.8c11.1,0,20.1,0.4,20.1-4.8c0-9.6-9-17.2-20.1-17.2
						C757.1,653.7,748.1,661.2,748.1,670.8z"/>
				</g>
			</g>
			<g>
				<g>
					<path class="st95" d="M742.5,670.8c0,5.2-9,4.8-20.1,4.8c-11.1,0-20.1,0.4-20.1-4.8c0-9.6,9-17.2,20.1-17.2
						C733.4,653.7,742.5,661.2,742.5,670.8z"/>
				</g>
			</g>
			<g>
				<g>
					<polygon class="st96" points="748.1,465.7 752.3,527 744.8,541 736.8,527.2 741.7,465.7 					"/>
				</g>
			</g>
			<g>
				<g>
					<path class="st97" d="M741.8,468.9h6c2.1,0,3.7-1.7,3.7-3.7v-3.3c0-2.1-1.7-3.7-3.7-3.7h-6c-2.1,0-3.7,1.7-3.7,3.7v3.3
						C738.1,467.2,739.8,468.9,741.8,468.9z"/>
				</g>
			</g>
			<g>
				<g>
					<polygon class="st77" points="765.3,454.8 762.5,476.7 744.8,456.3 726.6,475.9 724.6,453.7 					"/>
				</g>
			</g>
			<g>
				<g>
					<path class="st72" d="M689.9,542.2c0,0-6.9,25.9,3,37.6c7.8,9.3,10.7,8.8,12.8,7.5c2.1-1.3-1.7-8.3-3-11.5
						c-1.3-3.2-1.3-17.7,0.2-23.7L689.9,542.2z"/>
				</g>
			</g>
			<g>
				<g>
					<path class="st72" d="M697.8,549.7c0,0-3.6,21.4,0,23.3c3.6,1.9,9-7.1,7.1-21.6L697.8,549.7z"/>
				</g>
			</g>
			<g>
				<g>
					<path class="st94" d="M705.8,462c0,0-19.2,54.8-23.7,83.4c0,0,15.8,8.3,26.9,7.9v-91.2L705.8,462z"/>
				</g>
			</g>
			<g>
				<g>
					<path class="st98" d="M722.4,454.2c0,0-13-0.9-16,6c-3,6.8-1.1,50.9-2.1,94.4l-0.3,12.2c0,0,21.7,6.4,22.8,1.7
						c4.1-16.5,3.8-48.2,3.8-48.2l-7-64.8L722.4,454.2z"/>
				</g>
			</g>
			<g>
				<g>
					<path class="st99" d="M714.7,472.2c-1-3.9,7.7-19.2,7.7-19.2l2.3,3.5c5.1,30.6,7.1,58.4,5.5,82.9c0,0-5.4-25.8-13-40.3
						c-0.8-1.5,5.8-14.8,5.1-16.2C721.6,481.7,715.7,476,714.7,472.2z"/>
				</g>
			</g>
			<g>
				<g>
					<path class="st72" d="M797.8,542.2c0,0,6.9,25.9-3,37.6c-7.8,9.3-10.7,8.8-12.8,7.5c-2.1-1.3,1.7-8.3,3-11.5
						c1.3-3.2,1.3-17.7-0.2-23.7L797.8,542.2z"/>
				</g>
			</g>
			<g>
				<g>
					<path class="st72" d="M789.9,549.7c0,0,3.6,21.4,0,23.3c-3.6,1.9-9-7.1-7.1-21.6L789.9,549.7z"/>
				</g>
			</g>
			<g>
				<g>
					<path class="st94" d="M781.9,462c0,0,19.2,54.8,23.6,83.4c0,0-15.8,8.3-26.9,7.9v-91.2L781.9,462z"/>
				</g>
			</g>
			<g>
				<g>
					<path class="st98" d="M765.3,454.2c0,0,13-0.9,16,6c3,6.8,1.1,50.9,2.1,94.4l0.3,12.2c0,0-21.7,6.4-22.8,1.7
						c-4.1-16.5-3.8-48.2-3.8-48.2l7-64.8L765.3,454.2z"/>
				</g>
			</g>
			<g>
				<g>
					<path class="st99" d="M772.9,472.2c1-3.9-7.7-19.2-7.7-19.2l-2.3,3.5c-5.1,30.6-7.1,58.4-5.5,82.9c0,0,5.4-25.8,13-40.3
						c0.8-1.5-5.8-14.8-5.1-16.2C766.1,481.7,772,476,772.9,472.2z"/>
				</g>
			</g>
		</g>
		<g>
			<path class="st79" d="M681.3,393c0,0-10.9-18.2-23-8.5c-13.8,11,14,48.3,31.7,48.5L681.3,393z"/>
		</g>
		<g>
			<path class="st79" d="M802.8,393c0,0,10.9-18.2,23-8.5c13.8,11-14,48.3-31.7,48.5L802.8,393z"/>
		</g>
		<g>
			<path class="st72" d="M808.3,414v-54.3H676.1V414l0,0c0,0,1.7,46.8,66.1,46.8S808.3,414,808.3,414L808.3,414z"/>
		</g>
		<g>
			<path class="st100" d="M817.6,354.3c0,0,2.4,18.8,3,27.6c0,0-11.4-2.1-12.3,14.1v16.8l-9.4,2.5l-1.1-43.4L817.6,354.3z"/>
		</g>
		<g>
			<path class="st81" d="M749.9,425.5c-2.4-1.3-8.1-1.2-12.5-0.4c-0.6,0.1-1.2,0.2-1.6,0.5c-0.5,0.3-0.3,0.9-0.1,1.4
				c1.2,1.3,2.9,2.5,5,3.5c0.7,0.3,1.5,0.7,2.3,0.7c1.2,0,2.3-0.7,3.3-1.4C747.9,428.6,750.9,426.9,749.9,425.5z"/>
			<path class="st71" d="M717.7,382.8c-7.5-0.5-15,0.7-22,3.3c1.6,3.2,2.8,6.6,3.8,10.1c5.4-1.7,13.2-3.3,21.3-3.2
				c0.1-3.2,0.1-6.4,0.2-9.7c-0.7,0.5-1.4,1.1-2.2,1.6C718.4,384.2,718,383.5,717.7,382.8z"/>
			<path class="st71" d="M767.2,383.6c7.5-0.5,15,0.7,22,3.3c-1.6,3.2-2.8,6.6-3.8,10.1c-6.9-2.2-14.1-3.3-21.3-3.2
				c-0.1-3.2-0.1-6.4-0.2-9.7c0.7,0.5,1.4,1.1,2.2,1.6C766.5,385,766.8,384.3,767.2,383.6z"/>
			<g>
				<path class="st82" d="M750,458.2c-4.2,0.7-8.4,0.7-12.1,0c1.6,1.4,3.8,2.3,6,2C746,459.9,747.8,459.8,750,458.2z"/>
				<g>
					<path class="st82" d="M759.3,439.8c0,0.1,1.8,0,2,0c0.5-0.1,1.2-0.3,1.4-0.8c0.1-0.2,0.1-0.5,0.2-0.7c0.1-0.2,0.2-0.5,0.5-0.5
						c0.2,0,0.5,0.1,0.6,0.3c0.1,0.2,0.2,0.5,0.2,0.7c0,0.3,0.1,0.7,0.1,1c0,0.3,0.1,0.6,0,0.8c-0.1,0.3-0.4,0.5-0.7,0.3
						c-0.3-0.1-0.4-0.7-0.7-0.7c-0.2,0-0.4,0.1-0.5,0.2c-0.8,0.7-1.5,1.5-1.9,2.5c-0.2,0.5-0.5,1-0.8,1.4c-0.1,0.3-0.3,0.5-0.4,0.8
						c-0.1,0.2-0.4,0.5-0.4,0.7C759.1,443.9,759.2,441.9,759.3,439.8z"/>
					<path class="st82" d="M728.7,439.8c0,0.1-3,0.1-3.2,0c-0.5-0.1-1.2-0.3-1.4-0.8c-0.1-0.2-0.1-0.5-0.2-0.7
						c-0.1-0.2-0.2-0.5-0.5-0.5c-0.2,0-0.5,0.1-0.6,0.3s-0.2,0.5-0.2,0.7c0,0.3-0.1,0.7-0.1,1c0,0.3-0.1,0.6,0,0.8
						c0.1,0.3,0.4,0.5,0.7,0.3c0.3-0.1,0.4-0.7,0.7-0.7c0.2,0,0.4,0.1,0.5,0.2c0.8,0.7,1.5,1.5,1.9,2.5c0.2,0.5,0.5,1,0.8,1.4
						c0.1,0.3,0.3,0.5,0.4,0.8c0.1,0.2,0.4,0.5,0.4,0.7C727.8,443.9,728.8,441.8,728.7,439.8z"/>
					<g>
						<g>
							<g>
								<path class="st82" d="M726.4,443.1c0.4,1.1,2.2,5.5,2.5,5.9c0.8,1.2,1.7,2.3,3,3.3c2.7,2.2,6.7,3.9,12.5,3.9
									c2.8,0,5.1-0.5,7-1.3c3-1.3,5-3.1,6.2-5.4c1.5-2.8,2-3.8,2.9-6.4c0.4-1,0.6-2.6-0.3-3.2c-0.1-0.1-1.6-0.1-2.3-0.1h-28.9
									C727.4,439.7,725.8,441.4,726.4,443.1z"/>
							</g>
						</g>
						<g>
							<g>
								<path class="st4" d="M755.7,444.2c1.9-0.8,2.4-2.2,2.4-4.5l-29.1,0c0,2.1,0.8,3.6,2.4,4.4
									C735.7,445.4,749.7,446.6,755.7,444.2z"/>
							</g>
						</g>
						<g>
							<g>
								<path class="st84" d="M731.9,452.3c2.7,2.2,6.7,3.9,12.5,3.9c2.8,0,5.1-0.5,7-1.3c-0.4-1.9-3.3-5.2-10.5-5.8
									C733.4,448.4,732,452,731.9,452.3z"/>
							</g>
						</g>
					</g>
				</g>
			</g>
			<g>
				<path class="st82" d="M705.2,411.5c2.7-4.5,5.2-6,8.9-6.6c3.1-0.5,7.7,0.7,10,2.8c2.2,1.9,3.6,4.4,4,5.8c0.3,1,1.2,1.1,1.5,0.5
					c0-4.1-2.3-9.1-7.2-11.4c-5.1-2.4-10.9-2.2-15.3,2.2c-1.3,1.3-2.9,4.5-3.1,5.7C703.8,411.1,704.7,412.3,705.2,411.5z"/>
				<path class="st81" d="M727.2,414.1c-1.3-1.4-2.9-2.3-4.8-2.7c-1.8-0.4-3.7-0.1-5.4,0.6C720.5,412,724,412.7,727.2,414.1z"/>
				<path class="st82" d="M780.4,411.5c-2.7-4.5-5.2-6-8.9-6.6c-3.1-0.5-7.7,0.7-10,2.8c-2.2,1.9-3.6,4.4-4,5.8
					c-0.3,1-1.2,1.1-1.5,0.5c0-4.1,2.3-9.1,7.2-11.4c5.1-2.4,10.9-2.2,15.3,2.2c1.3,1.3,2.9,4.5,3.1,5.7
					C781.8,411.1,780.9,412.3,780.4,411.5z"/>
				<path class="st81" d="M758.5,414.1c1.3-1.4,2.9-2.3,4.8-2.7c1.8-0.4,3.7-0.1,5.4,0.6C765.2,412,761.7,412.7,758.5,414.1z"/>
			</g>
		</g>
		<g>
			<path class="st71" d="M684.7,417.2l-8.6-2.9l-0.2-9.9c0,0,1.8-25.5-13.7-22.1v-30.8c0,0-5.5-61.3,82.1-60.2
				c0,0,16.2-0.1,27.2,4.9c14.9,6.8,24,21.4,32.1,6.9c0,0,4.3,5.5,0,10.4c0,0,4.3,2.4,6.7-3.3c0,0,4.6,18.9-5.5,22.4
				c0,0,8.7,0.6,13.9-5.8c0,0,1.4,12.7-6.7,16.5c0,0,8.7-0.6,10.7-4.9c0,0,1.7,62.7-93.4,34.7c1.7,4,4.3,7.7,7.5,11
				c0,0-26.4-1.3-51.2-17.3L684.7,417.2z"/>
		</g>
	</g>
</g>
<g id="INTERFACE" class="st69">
	<path class="st101" d="M962,750H62c-6.6,0-12-5.4-12-12V555c0-6.6,5.4-12,12-12h900c6.6,0,12,5.4,12,12v183
		C974,744.6,968.6,750,962,750z"/>
	<path class="st102" d="M384.8,577.5H177.2c-6.6,0-12-5.4-12-12v-45c0-6.6,5.4-12,12-12h207.5c6.6,0,12,5.4,12,12v45
		C396.8,572.1,391.4,577.5,384.8,577.5z"/>
	<path class="st102" d="M962,84.5h-91.5c-6.6,0-12-5.4-12-12V62c0-6.6,5.4-12,12-12H962c6.6,0,12,5.4,12,12v10.5
		C974,79.1,968.6,84.5,962,84.5z"/>
</g>
</svg>
