<?xml version="1.0" encoding="utf-8"?>
<!-- Generator: Adobe Illustrator 20.1.0, SVG Export Plug-In . SVG Version: 6.00 Build 0)  -->
<svg version="1.0" id="Calque_1" xmlns="http://www.w3.org/2000/svg" xmlns:xlink="http://www.w3.org/1999/xlink" x="0px" y="0px"
	 viewBox="0 0 183.2 567.1" style="enable-background:new 0 0 183.2 567.1;" xml:space="preserve">
<style type="text/css">
	.st0{fill:#EA9628;}
	.st1{fill:#F9DAB4;}
	.st2{fill:#7F5732;}
	.st3{fill:#BDCCD4;}
	.st4{fill:#EFC4A0;}
	.st5{fill:#F4EFED;}
	.st6{fill:#E2DCD9;}
	.st7{fill:#C1272D;}
	.st8{fill:#F4D3B0;}
	.st9{fill:#E08A22;}
	.st10{fill:#EDA672;}
	.st11{fill:#FFFFFF;}
	.st12{fill:#4C0C0A;}
	.st13{fill:#E88567;}
</style>
<g>
	<g>
		<g>
			<path class="st0" d="M4,328.2c0,0,20.5-10.2,16.8-53.3C17,231.6-10,148.8,4,113s33.2-62.2,74.8-62.2c41.6,0,79,26.4,60.8,113.9
				s27,104.5,27,104.5s-6.2,1.2-10.4,0c0,0,60.8,95.9,0,155c-60.8,59.1-120.5-7.6-122.6-14.6c0,0,12.5,0,19.2-15.5
				c0,0-25.5,1.5-29.1-15.8c0,0,15.6-8.4,14.5-39C38.3,339.3,18.5,350.9,4,328.2z"/>
		</g>
	</g>
	<g>
		<g>
			<path class="st1" d="M38.9,463.2c0,0,4.9,40.5,4.9,66.7c0,26.2-0.5,37.2,9.7,37.2c12.2,0,11-10.4,11-36.9c0-26.5,4.4-67,4.4-67
				H38.9z"/>
		</g>
	</g>
	<g>
		<g>
			<path class="st2" d="M64.4,548.4c-2.9-1.4-6.4-2.2-10-2.2c-3.9,0-7.4,0.9-10.5,2.4c0.4,12.8,2.2,18.5,9.6,18.5
				C62.3,567.1,64.1,561.6,64.4,548.4z"/>
		</g>
	</g>
	<g>
		<g>
			<path class="st1" d="M93.6,463.2c0,0,4.9,40.5,4.9,66.7c0,26.2-0.5,37.2,9.7,37.2c12.2,0,11-10.4,11-36.9c0-26.5,4.4-67,4.4-67
				H93.6z"/>
		</g>
	</g>
	<g>
		<g>
			<path class="st2" d="M119.1,548.4c-2.9-1.4-6.4-2.2-10-2.2c-3.9,0-7.4,0.9-10.5,2.4c0.4,12.8,2.2,18.5,9.6,18.5
				C117,567.1,118.8,561.6,119.1,548.4z"/>
		</g>
	</g>
	<g>
		<g>
			<path class="st0" d="M93,47.8c0,0-24.3-13.9-6.6-41.6c0,0-2.3,9,4.6,11.8c0,0,2.1-17.1,15.1-18.1c0,0-3.4,11.6-0.8,15.9
				c0,0,3.7-9.8,15.4-8.2c0,0-8.3,5.3-5.3,14.4c0,0,2.8-6,11.2-3.9c0,0-7.8,6-7.5,13c0,0,6-1,7.5-2.2c0,0-3.4,17.4-19.9,19.8
				L93,47.8z"/>
		</g>
	</g>
	<g>
		<g>
			<path class="st2" d="M88.7,51.2c0,0-1.6-4.5,5.3-4.7c6.9-0.2,16.4,0.9,15.7,6.5c-0.7,5.5-5.7,5.2-5.7,5.2L88.7,51.2z"/>
		</g>
	</g>
	<g>
		<g>
			<path class="st3" d="M127.5,493.3H34.8c-5.1-28.9-11.7-88.8-6.8-119h106.2C139.5,404.3,132.8,464.2,127.5,493.3z"/>
		</g>
	</g>
	<g>
		<g>
			<g>
				<g>
					<path class="st1" d="M21.5,367.8c0,0-3.1,17.2,1.4,27.4c4.5,10.2,9.2,16.1,14.6,14.1c5.4-2-3.2-12.6-3.7-13.4
						c0,0,2.5,1.3,3.4-0.5c0.9-1.7,1.5-15.8-0.8-23.8L21.5,367.8z"/>
				</g>
			</g>
			<g>
				<g>
					<path class="st4" d="M35.8,398.7c-1-1.5-1.8-2.5-1.9-2.8c0,0-2.6-0.9-3.6-5.8C30.2,390.1,28.6,397.6,35.8,398.7z"/>
				</g>
			</g>
			<g>
				<g>
					<path class="st1" d="M136.4,367.8c0,0,3.1,17.2-1.4,27.4c-4.5,10.2-9.2,16.1-14.6,14.1c-5.4-2,3.2-12.6,3.7-13.4
						c0,0-2.5,1.3-3.4-0.5c-0.9-1.7-1.5-15.8,0.8-23.8L136.4,367.8z"/>
				</g>
			</g>
			<g>
				<g>
					<path class="st4" d="M122.2,398.7c1-1.5,1.8-2.5,1.9-2.8c0,0,2.6-0.9,3.6-5.8C127.8,390.1,129.3,397.6,122.2,398.7z"/>
				</g>
			</g>
			<g>
				<g>
					<path class="st5" d="M143.2,363.7c-6.4-110.4-36.7-130.6-36.7-130.6H79h0H51.5c0,0-30.7,32.8-36.7,130.6c0,0,9.3,8.6,21.6,7.8
						l-0.6,4c0,0,21.1,2.5,43.2,2.5l0,0c0,0,0,0,0,0c0,0,0,0,0,0h0c22.1,0,43.2-2.5,43.2-2.5l-0.6-4
						C133.9,372.3,143.2,363.7,143.2,363.7z"/>
				</g>
			</g>
			<g>
				<g>
					<path class="st6" d="M127.3,371.3c-1.8,0.3-3.7,0.4-5.7,0.3c0,0-7.4-87.4-10.5-103.2C111.1,268.3,123.9,340.5,127.3,371.3z"/>
				</g>
			</g>
			<g>
				<g>
					<path class="st6" d="M30.6,371.3c1.8,0.3,3.7,0.4,5.7,0.3c0,0,7.4-87.4,10.5-103.2C46.9,268.3,34,340.5,30.6,371.3z"/>
				</g>
			</g>
		</g>
		<g>
			<g>
				<path class="st7" d="M83.2,257.9h-8.8c-1.3,0-2.4-1.1-2.4-2.4v-4.2c0-1.3,1.1-2.4,2.4-2.4h8.8c1.3,0,2.4,1.1,2.4,2.4v4.2
					C85.6,256.8,84.5,257.9,83.2,257.9z"/>
			</g>
		</g>
		<g>
			<g>
				<polygon class="st7" points="75.9,253.4 81.9,253.4 86.9,334.4 78.8,346.7 70.6,334 				"/>
			</g>
		</g>
		<g>
			<g>
				<polygon class="st6" points="65,261.3 78.8,247.6 92.7,261.3 107.1,233.1 51.5,233.1 				"/>
			</g>
		</g>
	</g>
	<g>
		<g>
			<g>
				<path class="st8" d="M126.6,171.1c0,0,9.1-11.4,17.7-4.5c8.7,6.8-2.1,40-27.6,40.2L126.6,171.1z"/>
			</g>
		</g>
		<g>
			<g>
				<path class="st8" d="M30.7,171.1c0,0-9.1-11.4-17.7-4.5c-8.7,6.8,2.1,40,27.6,40.2L30.7,171.1z"/>
			</g>
		</g>
		<g>
			<g>
				<path class="st1" d="M136.7,144.8c0,56.1-26,101.7-58,101.7s-58-45.5-58-101.7c0-26.4,25.6-40.4,52.7-42
					c15.9-0.9,36.2-7.7,48.4-0.2C133.1,109.7,136.7,130.4,136.7,144.8z"/>
			</g>
		</g>
		<g>
			<g>
				<path class="st9" d="M123.6,109.7c5,9.2,11.6,36.6,8.8,56.5c2.1-1.2,4.6-2.1,7.2-1.7c15.5-74.8-9.6-104.9-43.2-112L64.1,81.5
					l-2.4,29.6C61.8,111.1,118.2,100,123.6,109.7z"/>
			</g>
		</g>
		<g>
			<g>
				<path class="st0" d="M18.9,164.1c0,0,69.6-22.4,77.5-111.7l-75.5,52.3L18.9,164.1z"/>
			</g>
		</g>
	</g>
	<g>
		<path class="st10" d="M87.4,194.3c-2.8-1.5-9.4-1.3-14.5-0.5c-0.7,0.1-1.4,0.2-1.9,0.6c-0.5,0.4-0.4,1-0.1,1.6
			c1.4,1.5,3.3,2.9,5.9,4.1c0.8,0.4,1.7,0.8,2.7,0.8c1.4,0,2.7-0.8,3.8-1.6C85,198,88.5,196,87.4,194.3z"/>
		<path class="st11" d="M54.8,166.1c3.9,0.9,7.1,3.1,8.5,7.1c0.8,2.4,0,10.8-3.6,14c-1.5,1.4-3.6,2.6-5.6,2.8
			c-3.6,0.4-9.1,0.7-12.1-1.8c-2.6-2.2-4-5.4-4.5-8.7c-0.4-2.6-0.7-5.4,0.6-7.7c2.1-4,7-5.5,11.4-6.6L54.8,166.1z"/>
		<path class="st12" d="M45,183.3c-2.5-3.1-2.7-7.5-0.5-10.8c0.8-1.2,1.9-2.3,3.3-3c1.4-0.7,3.1-0.9,4.6-0.4
			c2.4,0.8,3.7,3.1,4.2,5.3c0.8,3.5,0.2,7.6-2.9,10c-1.3,1-3,1.6-4.7,1.3C47.3,185.6,46,184.5,45,183.3z"/>
		<path class="st12" d="M36.3,177c1-4.1,3.6-7.3,9.1-9.8c3.4-1.5,7.9-1.4,11.3-0.1c2.3,0.9,4.7,3.4,6.1,7c0.4,1.1,1.7,1,1.8,0.3
			c-0.4-6.9-6.6-10.9-10.8-11.8c-6.4-1.4-13.6,1.4-17.6,7.5c-1.2,1.8-1.8,3.9-1.8,5.3C34.5,177.4,36.1,178.1,36.3,177z"/>
		<path class="st12" d="M36.6,174.4c-2.3,0.1-4.6,0.3-6.9,0.4c1.9,1.2,4,2.5,6.3,2.6C36.1,176.1,35.8,175.5,36.6,174.4z"/>
		<g>
			<path class="st11" d="M100.8,166.1c-3.9,0.9-7.1,3.1-8.5,7.1c-0.8,2.4,0,10.8,3.6,14c1.5,1.4,3.6,2.6,5.6,2.8
				c3.6,0.4,9.1,0.7,12.1-1.8c2.6-2.2,4-5.4,4.5-8.7c0.4-2.6,0.7-5.4-0.6-7.7c-2.1-4-7-5.5-11.4-6.6L100.8,166.1z"/>
			<path class="st12" d="M110.5,183.3c2.5-3.1,2.7-7.5,0.5-10.8c-0.8-1.2-1.9-2.3-3.3-3c-1.4-0.7-3.1-0.9-4.6-0.4
				c-2.4,0.8-3.7,3.1-4.2,5.4c-0.8,3.5-0.2,7.6,2.9,10c1.3,1,3,1.6,4.7,1.3C108.2,185.6,109.5,184.5,110.5,183.3z"/>
			<path class="st12" d="M119.2,177c-1-4.1-3.6-7.3-9.1-9.8c-3.4-1.5-7.9-1.4-11.3-0.1c-2.3,0.9-4.7,3.4-6.1,7
				c-0.4,1.1-1.7,1-1.8,0.3c0.4-6.9,6.6-10.9,10.8-11.8c6.4-1.4,13.6,1.4,17.6,7.5c1.2,1.8,1.8,3.9,1.8,5.3
				C121,177.4,119.5,178.1,119.2,177z"/>
			<path class="st12" d="M118.9,174.4c2.3,0.1,4.6,0.3,6.9,0.4c-1.9,1.2-4,2.5-6.3,2.6C119.4,176.1,119.7,175.5,118.9,174.4z"/>
		</g>
		<g>
			<g>
				<g>
					<path class="st13" d="M99.5,215.7c-0.3-0.9-0.6-1.8-0.9-2.8c-0.8-1.4-0.8,1.9-1.6,2.6c-0.8,0.6-1.8,1-2.8,1.4
						c-2.7,1.1-5.5,2.1-8.2,3.2c-3.6,2.8,8.4-2.1,11.2-3.8c0.5-0.3,1.4-0.4,1.7,0.1C99.9,218,100.1,216.9,99.5,215.7z"/>
				</g>
			</g>
			<g>
				<g>
					<path class="st13" d="M71.8,220c-2.7-1.2-5.4-2.3-8.1-3.5c-0.9-0.4-1.9-0.8-2.7-1.5c-0.8-0.7-0.7-4-1.5-2.6
						c-0.3,0.9-0.7,1.8-1,2.7c-0.6,1.2-0.4,2.2,0.6,0.6c0.3-0.5,1.2-0.4,1.7,0C63.5,217.6,75.3,223,71.8,220z"/>
				</g>
			</g>
			<g>
				<g>
					<path class="st13" d="M73.4,225.1c3.8,1.6,7.2,2.3,10.9,0.7c6.1-2.6,10.1-6.7,11.1-9.2c0,0-10.2-1.2-13.1-1.5
						c-2.3-0.2-4.6-0.3-6.9-0.2c-2.7,0.1-12.4,1.7-12.4,1.7C63.9,218.4,69.6,223.5,73.4,225.1z"/>
				</g>
			</g>
			<g>
				<g>
					<path class="st13" d="M62.4,216.4c1-1,5.7-3.2,7.9-3.9c3.1-1.1,6.3-1.5,9.4-1.4c3.1,0.1,6,0.6,8.4,1.5c2,0.7,7.3,3,8.1,3.8
						c1,1-7.8,2.3-16,2.3C71,218.7,61.3,217.4,62.4,216.4z"/>
				</g>
			</g>
		</g>
	</g>
</g>
</svg>
