<?xml version="1.0" encoding="utf-8"?>
<!-- Generator: Adobe Illustrator 20.1.0, SVG Export Plug-In . SVG Version: 6.00 Build 0)  -->
<svg version="1.1" id="Calque_1" xmlns="http://www.w3.org/2000/svg" xmlns:xlink="http://www.w3.org/1999/xlink" x="0px" y="0px"
	 viewBox="0 0 173 533" style="enable-background:new 0 0 173 533;" xml:space="preserve">
<style type="text/css">
	.st0{fill:#EA9628;}
	.st1{fill:#F9DAB4;}
	.st2{fill:#7F5732;}
	.st3{fill:#BDCCD4;}
	.st4{fill:#EFC4A0;}
	.st5{fill:#F4EFED;}
	.st6{fill:#E2DCD9;}
	.st7{fill:#C1272D;}
	.st8{fill:#F4D3B0;}
	.st9{fill:#E08A22;}
	.st10{fill:#EDA672;}
	.st11{fill:#4C0C0A;}
	.st12{fill:#E88567;}
	.st13{fill:#FFFFFF;}
	.st14{fill:#B2543F;}
</style>
<g>
	<g>
		<g>
			<path class="st0" d="M3.9,308.8c0,0,19.3-9.6,15.8-50.1C16.1,218.1-9.3,140.3,3.9,106.6S35,48.1,74.1,48.1
				c39.1,0,74.2,24.8,57.1,107.1c-17.1,82.3,25.4,98.2,25.4,98.2s-5.9,1.1-9.8,0c0,0,57.1,90.1,0,145.6
				c-57.1,55.5-113.2-7.2-115.2-13.7c0,0,11.7,0,18.1-14.5c0,0-23.9,1.4-27.3-14.9c0,0,14.6-7.9,13.7-36.6
				C36.1,319.2,17.5,330.1,3.9,308.8z"/>
		</g>
	</g>
	<g>
		<g>
			<path class="st1" d="M36.7,435.7c0,0,4.6,38,4.6,62.7s-0.5,35,9.1,35c11.4,0,10.3-9.7,10.3-34.7c0-24.9,4.1-63,4.1-63H36.7z"/>
		</g>
	</g>
	<g>
		<g>
			<path class="st2" d="M60.6,515.7c-2.8-1.3-6-2.1-9.4-2.1c-3.6,0-7,0.8-9.9,2.3c0.4,12,2.1,17.4,9,17.4
				C58.7,533.3,60.3,528.2,60.6,515.7z"/>
		</g>
	</g>
	<g>
		<g>
			<path class="st1" d="M88.1,435.7c0,0,4.6,38,4.6,62.7s-0.5,35,9.1,35c11.4,0,10.3-9.7,10.3-34.7c0-24.9,4.1-63,4.1-63H88.1z"/>
		</g>
	</g>
	<g>
		<g>
			<path class="st2" d="M112,515.7c-2.8-1.3-6-2.1-9.4-2.1c-3.6,0-7,0.8-9.9,2.3c0.4,12,2.1,17.4,9,17.4
				C110.1,533.3,111.7,528.2,112,515.7z"/>
		</g>
	</g>
	<g>
		<g>
			<path class="st0" d="M87.5,45.4c0,0-22.9-13.1-6.2-39.1c0,0-2.1,8.5,4.4,11.1c0,0,1.9-16,14.1-17c0,0-3.2,10.9-0.8,15
				c0,0,3.5-9.2,14.4-7.7c0,0-7.8,5-4.9,13.6c0,0,2.6-5.6,10.6-3.6c0,0-7.4,5.6-7.1,12.2c0,0,5.6-1,7.1-2.1c0,0-3.2,16.3-18.7,18.6
				L87.5,45.4z"/>
		</g>
	</g>
	<g>
		<g>
			<path class="st2" d="M83.4,48.6c0,0-1.5-4.2,4.9-4.4c6.5-0.2,15.4,0.9,14.7,6.1c-0.7,5.2-5.3,4.9-5.3,4.9L83.4,48.6z"/>
		</g>
	</g>
	<g>
		<g>
			<path class="st3" d="M119.9,464H32.8c-4.8-27.1-11-83.4-6.3-111.8h99.8C131.2,380.4,124.9,436.7,119.9,464z"/>
		</g>
	</g>
	<g>
		<g>
			<g>
				<g>
					<path class="st1" d="M20.3,346.1c0,0-2.9,16.1,1.3,25.7c4.2,9.6,8.6,15.2,13.7,13.3c5.1-1.9-3-11.8-3.4-12.5
						c0,0,2.3,1.2,3.2-0.5c0.8-1.6,1.4-14.8-0.8-22.4L20.3,346.1z"/>
				</g>
			</g>
			<g>
				<g>
					<path class="st4" d="M33.7,375.1c-0.9-1.4-1.7-2.4-1.8-2.6c0,0-2.4-0.8-3.4-5.5C28.5,367,27,374.1,33.7,375.1z"/>
				</g>
			</g>
			<g>
				<g>
					<path class="st1" d="M128.3,346.1c0,0,2.9,16.1-1.3,25.7c-4.2,9.6-8.6,15.2-13.7,13.3c-5.1-1.9,3-11.8,3.4-12.5
						c0,0-2.3,1.2-3.2-0.5c-0.8-1.6-1.4-14.8,0.8-22.4L128.3,346.1z"/>
				</g>
			</g>
			<g>
				<g>
					<path class="st4" d="M114.9,375.1c0.9-1.4,1.7-2.4,1.8-2.6c0,0,2.4-0.8,3.4-5.5C120.2,367,121.6,374.1,114.9,375.1z"/>
				</g>
			</g>
			<g>
				<g>
					<path class="st5" d="M134.6,342.2c-6-103.7-34.5-122.7-34.5-122.7H74.3h0H48.5c0,0-28.8,30.9-34.5,122.7c0,0,8.7,8.1,20.3,7.3
						l-0.6,3.8c0,0,19.9,2.4,40.6,2.4l0,0c0,0,0,0,0,0c0,0,0,0,0,0h0c20.7,0,40.6-2.4,40.6-2.4l-0.6-3.8
						C125.9,350.3,134.6,342.2,134.6,342.2z"/>
				</g>
			</g>
			<g>
				<g>
					<path class="st6" d="M119.7,349.3c-1.7,0.3-3.5,0.4-5.4,0.3c0,0-7-82.1-9.9-97C104.5,252.6,116.6,320.4,119.7,349.3z"/>
				</g>
			</g>
			<g>
				<g>
					<path class="st6" d="M28.9,349.3c1.7,0.3,3.5,0.4,5.4,0.3c0,0,7-82.1,9.9-97C44.1,252.6,32.1,320.4,28.9,349.3z"/>
				</g>
			</g>
		</g>
		<g>
			<g>
				<path class="st7" d="M78.3,242.8H70c-1.2,0-2.2-1-2.2-2.3v-3.9c0-1.3,1-2.3,2.2-2.3h8.2c1.2,0,2.2,1,2.2,2.3v3.9
					C80.5,241.8,79.5,242.8,78.3,242.8z"/>
			</g>
		</g>
		<g>
			<g>
				<polygon class="st7" points="71.4,238.6 77.1,238.6 81.8,314.6 74.1,326.2 66.5,314.3 				"/>
			</g>
		</g>
		<g>
			<g>
				<polygon class="st6" points="61.2,246 74.2,233.2 87.2,246 100.7,219.5 48.5,219.5 				"/>
			</g>
		</g>
	</g>
	<g>
		<g>
			<g>
				<path class="st8" d="M119,161.3c0,0,8.5-10.7,16.7-4.3c8.2,6.4-1.9,37.6-25.9,37.8L119,161.3z"/>
			</g>
		</g>
		<g>
			<g>
				<path class="st8" d="M29,161.3c0,0-8.5-10.7-16.7-4.3c-8.2,6.4,1.9,37.6,25.9,37.8L29,161.3z"/>
			</g>
		</g>
		<g>
			<g>
				<path class="st1" d="M128.6,136.5c0,52.7-24.4,95.5-54.5,95.5s-54.5-42.8-54.5-95.5c0-24.8,24-37.9,49.5-39.4
					c14.9-0.9,34-7.2,45.4-0.1C125.2,103.5,128.6,123,128.6,136.5z"/>
			</g>
		</g>
		<g>
			<g>
				<path class="st9" d="M116.2,103.5c4.7,8.6,10.9,34.4,8.3,53.1c2-1.1,4.3-1.9,6.8-1.6c14.5-70.3-9-98.5-40.6-105.2L60.4,77.1
					l-2.2,27.8C58.2,104.9,111.2,94.4,116.2,103.5z"/>
			</g>
		</g>
		<g>
			<g>
				<path class="st0" d="M17.9,154.7c0,0,65.4-21,72.8-104.9L19.7,99L17.9,154.7z"/>
			</g>
		</g>
	</g>
	<g>
		<path class="st10" d="M81.2,180.9c-2.7-1.4-8.8-1.3-13.6-0.5c-0.6,0.1-1.3,0.2-1.8,0.6c-0.5,0.3-0.3,1-0.1,1.5
			c1.3,1.4,3.1,2.7,5.5,3.9c0.8,0.4,1.6,0.7,2.5,0.7c1.3,0,2.5-0.8,3.5-1.5C79,184.3,82.3,182.4,81.2,180.9z"/>
		<path class="st11" d="M91,196.8c0,0.1,1.8,0,2,0c0.5-0.1,1.2-0.2,1.4-0.8c0.1-0.2,0.1-0.5,0.2-0.7c0.1-0.2,0.2-0.5,0.5-0.5
			c0.2,0,0.5,0.1,0.6,0.3c0.1,0.2,0.2,0.4,0.2,0.7c0,0.3,0.1,0.7,0.1,1c0,0.3,0.1,0.6,0,0.8c-0.1,0.3-0.4,0.5-0.7,0.3
			c-0.3-0.1-0.4-0.7-0.7-0.7c-0.2,0-0.4,0.1-0.5,0.2c-0.8,0.7-1.5,1.5-1.9,2.5c-0.2,0.5-2.5,1.2-2.5,2.3
			C89.7,200.2,90.8,198.8,91,196.8z"/>
		<path class="st11" d="M58.7,196.7c0,0.1-4,0.1-4.2,0c-0.5-0.1-1.2-0.2-1.4-0.8c-0.1-0.2-0.1-0.5-0.2-0.7c-0.1-0.2-0.2-0.5-0.5-0.5
			c-0.2,0-0.5,0.1-0.6,0.3c-0.1,0.2-0.2,0.4-0.2,0.7c0,0.3-0.1,0.7-0.1,1c0,0.3-0.1,0.6,0,0.8c0.1,0.3,0.4,0.5,0.7,0.3
			c0.3-0.1,0.4-0.7,0.7-0.7c0.2,0,0.4,0.1,0.5,0.2c0.8,0.7,1.5,1.5,1.9,2.5c0.2,0.5,1.8,2.7,1.8,2.9
			C56.9,200.8,58.8,198.7,58.7,196.7z"/>
		<g>
			<g>
				<g>
					<path class="st12" d="M89.6,203.8c0,0-3.9,12.2-13.9,12.9c-14,1.1-18.1-12.9-18.1-12.9H89.6z"/>
				</g>
			</g>
			<g>
				<g>
					<path class="st11" d="M55.4,200c0.4,1.1,3.3,5.4,3.6,5.8c0.7,1.2,1.7,2.3,2.9,3.3c2.7,2.2,6.6,3.8,12.4,3.8
						c2.7,0,5-0.5,6.9-1.3c3-1.3,4.5-2.8,6.2-4.9c2.1-2.7,3.8-5,4.8-6.8c0.6-1,0.6-2.6-0.3-3.1c-0.1-0.1-3.5-0.1-4.1-0.1H59.1
						C57.4,196.7,54.8,198.3,55.4,200z"/>
				</g>
			</g>
			<g>
				<g>
					<path class="st13" d="M85.5,201.1c1.9-0.7,2.4-2.2,2.4-4.5l-28.9,0c0,2.1,0.8,3.6,2.4,4.3C65.7,202.3,79.5,203.5,85.5,201.1z"
						/>
				</g>
			</g>
			<g>
				<g>
					<path class="st14" d="M61.9,209.1c2.7,2.2,6.6,3.8,12.4,3.8c2.7,0,5-0.5,6.9-1.3c-0.4-1.9-3.3-5.2-10.4-5.8
						C63.4,205.3,62,208.8,61.9,209.1z"/>
				</g>
			</g>
			<g>
				<g>
					<path class="st12" d="M89.2,196.7c0,0-2.6-4-15.4-4c-7.9,0-16.3,4.1-16.3,4.1L89.2,196.7z"/>
				</g>
			</g>
		</g>
		<g>
			<path class="st11" d="M32.4,168.9c2.9-4.9,5.7-6.6,9.7-7.2c3.4-0.5,8.3,0.7,10.9,3c2.4,2.1,3.9,4.8,4.4,6.3
				c0.3,1.1,1.4,1.2,1.6,0.6c0-4.5-2.5-9.9-7.9-12.4c-5.5-2.6-11.9-2.4-16.7,2.3c-1.5,1.4-3.2,5-3.4,6.2
				C30.9,168.5,31.9,169.7,32.4,168.9z"/>
			<path class="st11" d="M33.2,166.6c-2.1-0.3-4.3-0.6-6.4-0.9c1.6,1.5,3.2,3.1,5.4,3.5C32.4,168,32.2,167.4,33.2,166.6z"/>
			<path class="st10" d="M56.4,171.8c-1.4-1.5-3.2-2.5-5.2-2.9c-2-0.4-4.1-0.2-5.9,0.7C49.1,169.5,52.9,170.2,56.4,171.8z"/>
		</g>
		<g>
			<path class="st11" d="M114.4,168.9c-2.9-4.9-5.7-6.6-9.7-7.2c-3.4-0.5-8.3,0.7-10.9,3c-2.4,2.1-3.9,4.8-4.4,6.3
				c-0.3,1.1-1.4,1.2-1.6,0.6c0-4.5,2.5-9.9,7.9-12.4c5.5-2.6,11.9-2.4,16.7,2.3c1.5,1.4,3.2,5,3.4,6.2
				C116,168.5,115,169.7,114.4,168.9z"/>
			<path class="st11" d="M113.7,166.6c2.1-0.3,4.3-0.6,6.4-0.9c-1.6,1.5-3.2,3.1-5.4,3.5C114.5,168,114.6,167.4,113.7,166.6z"/>
			<path class="st10" d="M90.5,171.8c1.4-1.5,3.2-2.5,5.2-2.9c2-0.4,4.1-0.2,5.9,0.7C97.8,169.5,94,170.2,90.5,171.8z"/>
		</g>
	</g>
	<path class="st0" d="M110.4,153.8c-0.3-1-3.5-2.7-4.4-3.4c-1.6-1.2-3.3-2.3-5-3.3c-1.5-0.9-7.7-3.6-8.9-5.2c-1-1.4-1.4-3.3-1.1-5
		c1.2,2,3.3,3.2,5.5,4.1C102.9,143.6,108.4,146.7,110.4,153.8z"/>
	<path class="st0" d="M35.3,153.8c0.3-1,3.5-2.7,4.4-3.4c1.6-1.2,3.3-2.3,5-3.3c1.5-0.9,7.7-3.6,8.9-5.2c1-1.4,1.4-3.3,1.1-5
		c-1.2,2-3.3,3.2-5.5,4.1C42.9,143.6,37.3,146.7,35.3,153.8z"/>
</g>
</svg>
