<?xml version="1.0" encoding="utf-8"?>
<!-- Generator: Adobe Illustrator 20.1.0, SVG Export Plug-In . SVG Version: 6.00 Build 0)  -->
<svg version="1.1" id="Calque_1" xmlns="http://www.w3.org/2000/svg" xmlns:xlink="http://www.w3.org/1999/xlink" x="0px" y="0px"
	 viewBox="0 0 156 156" style="enable-background:new 0 0 156 156;" xml:space="preserve">
<style type="text/css">
	.st0{fill:#FFFFFF;}
	.st1{fill:#B2B2B2;}
	.st2{fill:#F4F4F4;}
</style>
<g>
	<circle class="st0" cx="78" cy="78" r="77.8"/>
	<g>
		<path class="st1" d="M74.1,0.2c2.6,0,5.2,0,7.8,0c0.1,0.1,0.2,0.1,0.3,0.1c1.4,0,2.8,0.2,4.2,0.3c2,0.2,3.9,0.5,5.8,0.8
			c3.4,0.6,6.7,1.5,10,2.6c4.2,1.4,8.2,3.1,12,5.1c1.9,1,3.8,2.1,5.6,3.3c2.2,1.4,4.3,2.9,6.3,4.5c1.7,1.3,3.3,2.7,4.8,4.1
			c2.4,2.3,4.8,4.7,6.9,7.3c1.4,1.7,2.7,3.4,3.9,5.2c1.6,2.3,3,4.6,4.4,7c1.4,2.6,2.7,5.3,3.8,8.1c1,2.4,1.8,4.7,2.5,7.2
			c0.6,1.9,1.1,3.8,1.5,5.7c0.6,2.9,1.1,5.7,1.3,8.7c0.1,1.5,0.3,2.9,0.3,4.4c0,3.1,0.1,6.2-0.1,9.2c-0.1,1.7-0.3,3.3-0.5,5
			c-0.3,2.3-0.7,4.5-1.2,6.7c-0.8,3.2-1.7,6.4-2.8,9.5c-1.4,3.6-2.9,7.1-4.8,10.5c-1.4,2.6-3,5-4.6,7.4c-2,2.9-4.2,5.6-6.6,8.1
			c-1.4,1.5-2.9,2.9-4.4,4.3c-1.6,1.5-3.2,2.8-4.9,4.2c-2.2,1.8-4.6,3.4-7,4.9c-2.6,1.6-5.3,3-8,4.3c-1.7,0.8-3.5,1.5-5.3,2.2
			c-0.6,0.2-0.6,0.2-0.6-0.5c0-13,0-25.9,0-38.9c0-4,0-7.9,0-11.9c0-0.6,0-0.6,0.6-0.6c1.4,0,2.8,0,4.2,0c3.6,0,7.1,0,10.7,0
			c0,0,0,0,0.1-0.1c0.1-0.1,0.1-0.3,0.1-0.4c0.1-1,0.2-2.1,0.3-3.1c0.1-1.4,0.3-2.8,0.5-4.1c0.1-1,0.2-2,0.3-3
			c0.1-1.4,0.3-2.7,0.4-4.1c0.1-0.7,0.2-1.5,0.2-2.2c0.1-0.8,0.2-1.7,0.2-2.5c0,0,0,0-0.1-0.1c-0.2,0-0.5,0-0.7,0
			c-5.5,0-10.9,0-16.4,0c-0.4,0-0.6-0.1-0.5-0.5c0-0.8,0-1.5,0-2.3c0.1-3.4-0.2-6.8,0.2-10.2c0.2-1.7,0.9-3,2.5-3.8
			c1.4-0.7,2.9-0.8,4.4-0.8c3.5-0.1,6.9,0,10.4,0c0,0,0,0,0.1-0.1c0-4.4,0-8.8,0-13.2c0-2.1,0-4.2,0-6.3c0,0,0,0-0.1-0.1
			c-0.2,0-0.4,0-0.7,0c-4.7,0-9.4,0-14.2,0c-1.7,0-3.3,0-5,0.2c-1.8,0.2-3.6,0.4-5.4,0.9c-2.7,0.7-5.2,1.7-7.4,3.3
			c0,0-0.1,0-0.1,0.1c-0.1,0.2-0.3,0.2-0.5,0.3c-0.9,0.8-1.8,1.6-2.6,2.5c-1.3,1.5-2.3,3.3-3.1,5.2c-1.1,2.8-1.7,5.7-2,8.7
			c-0.1,1.6-0.2,3.3-0.2,4.9c0,3.5,0,7.1,0,10.6c0,0.7,0,0.7-0.7,0.7c-3.6,0-7.3,0-10.9,0c0,0,0,0-0.1,0.1c0,4.3,0,8.6,0,12.9
			c0,2.2,0,4.4,0,6.5c0,0,0,0,0.1,0.1c3.6,0,7.3,0,10.9,0c0.7,0,0.7,0,0.7,0.7c0,7.8,0,15.7,0,23.5c0,10.7,0,21.3,0,32
			c0,0.6,0,0.6-0.6,0.6c-2.3,0-4.6,0.1-6.9-0.1c-1.4-0.1-2.8-0.2-4.2-0.3c-1.9-0.2-3.8-0.5-5.7-0.8c-3.4-0.6-6.8-1.5-10.1-2.6
			c-2.4-0.8-4.7-1.7-7-2.7c-3-1.3-5.8-2.8-8.6-4.4c-2.6-1.6-5.1-3.3-7.6-5.1c-1.9-1.5-3.9-3.1-5.6-4.8c-1.8-1.7-3.6-3.5-5.2-5.4
			c-1.6-1.8-3.1-3.7-4.6-5.7c-2.5-3.4-4.7-7-6.6-10.7c-0.9-1.7-1.7-3.5-2.4-5.2c-1.4-3.2-2.5-6.6-3.4-10c-0.9-3.4-1.6-6.9-2-10.4
			c-0.2-1.8-0.4-3.5-0.5-5.3c0-0.1,0-0.3-0.1-0.4c0-2.6,0-5.2,0-7.8c0.1-0.1,0.1-0.2,0.1-0.3c0-1.4,0.2-2.8,0.3-4.2
			c0.2-2,0.5-3.9,0.8-5.8c0.6-3.4,1.5-6.8,2.6-10.1c0.8-2.3,1.7-4.6,2.6-6.8c1.2-2.8,2.6-5.5,4.1-8.1c1.6-2.8,3.4-5.5,5.4-8
			c1.5-1.9,3.1-3.9,4.8-5.6c1.7-1.8,3.5-3.6,5.4-5.2c1.8-1.6,3.7-3.1,5.7-4.6c3.4-2.5,7-4.7,10.7-6.6c1.7-0.9,3.5-1.7,5.2-2.4
			c3.2-1.4,6.6-2.5,10-3.4c3.4-0.9,6.9-1.6,10.4-2c1.8-0.2,3.5-0.4,5.3-0.5C73.9,0.3,74,0.4,74.1,0.2z"/>
		<path class="st2" d="M122.4,42.2C122.3,42.2,122.3,42.2,122.4,42.2C122.3,42.2,122.3,42.2,122.4,42.2z"/>
		<path class="st2" d="M89.6,46.5C89.6,46.5,89.6,46.5,89.6,46.5C89.6,46.5,89.6,46.5,89.6,46.5z"/>
		<path class="st2" d="M122.3,61.8C122.3,61.7,122.3,61.7,122.3,61.8C122.3,61.7,122.3,61.7,122.3,61.8z"/>
		<path class="st2" d="M69.6,79.4C69.6,79.4,69.6,79.4,69.6,79.4C69.6,79.4,69.6,79.4,69.6,79.4z"/>
		<path class="st2" d="M122.4,79.4C122.4,79.4,122.4,79.4,122.4,79.4C122.4,79.4,122.4,79.4,122.4,79.4z"/>
		<path class="st2" d="M69.5,98.9C69.6,98.9,69.6,99,69.5,98.9C69.6,99,69.6,98.9,69.5,98.9z"/>
		<path class="st2" d="M120.3,99C120.3,99,120.4,98.9,120.3,99C120.4,98.9,120.3,99,120.3,99z"/>
	</g>
</g>
</svg>
