<?xml version="1.0" encoding="utf-8"?>
<!-- Generator: Adobe Illustrator 20.1.0, SVG Export Plug-In . SVG Version: 6.00 Build 0)  -->
<svg version="1.1" id="Calque_1" xmlns="http://www.w3.org/2000/svg" xmlns:xlink="http://www.w3.org/1999/xlink" x="0px" y="0px"
	 viewBox="0 0 307 668" style="enable-background:new 0 0 307 668;" xml:space="preserve">
<style type="text/css">
	.st0{fill:#EA9628;}
	.st1{fill:#F9DAB4;}
	.st2{fill:#7F5732;}
	.st3{fill:#BDCCD4;}
	.st4{fill:#EFC4A0;}
	.st5{fill:#F4EFED;}
	.st6{fill:#E2DCD9;}
	.st7{fill:#C1272D;}
	.st8{fill:#F4D3B0;}
	.st9{fill:#E08A22;}
	.st10{fill:#EDA672;}
	.st11{fill:#4C0C0A;}
	.st12{fill:#E88567;}
	.st13{fill:#FFFFFF;}
	.st14{fill:#B2543F;}
</style>
<g>
	<g>
		<g>
			<path class="st0" d="M250,215c-0.4,0.6-0.8,1.3-1.2,1.9c-0.8,1.3-1.6,2.6-2.5,3.9c-0.8,1.2-1.6,2.5-2.4,3.7
				c-0.5,0.7-1,1.5-1.5,2.2c-1,1.5-2,3-3.1,4.5c-0.5,0.8-1.1,1.5-1.6,2.3c-0.5,0.8-1.1,1.5-1.6,2.3c-0.4,0.6-0.8,1.2-1.3,1.8
				c-1.2,1.7-2.5,3.4-3.9,5.2c0,0,0,0,0,0.1c0,0.1-0.1,0.1-0.1,0.2c-11.8,15.6-20.8,30-27.5,43.2c-37.8,74.9-2.5,111.5-2.5,111.5
				s-8.9-2.3-13.7-6.5c0,0,20,164.6-97.2,204.4c-14.2,4.8-27.1,7.2-39,7.7c-20,0.8-36.8-3.8-51-11.5V325.8c1.7-3.8,3.4-7.8,5.1-12.2
				c22.1-59.2,38.5-185.4,79.4-223.9c40.9-38.5,82.7-61.3,137.6-35.2c4.4,2.1,8.7,4.5,12.8,7c0,0,0,0,0,0c3.2,2,6.2,4.4,9.1,6.3
				c0,0,0.1,0,0.1,0.1c0,0,0,0,0,0h0.1c0,0,0,0,0,0c0.3,0.2,0.6,0.5,1,0.7c0.3,0.2,0.6,0.5,0.9,0.7c0.4,0.3,0.7,0.6,1.1,0.9
				c0.1,0.1,0.2,0.1,0.2,0.2s0.2,0.1,0.2,0.2c0.4,0.3,0.8,0.7,1.2,1c0.4,0.3,0.8,0.7,1.2,1c0.4,0.3,0.8,0.7,1.2,1.1
				c0.4,0.3,0.8,0.7,1.1,1.1c0.4,0.4,0.8,0.7,1.1,1.1c0.4,0.4,0.7,0.7,1.1,1.1s0.7,0.8,1.1,1.1c0.3,0.4,0.7,0.8,1.1,1.1
				c0.3,0.4,0.7,0.7,1,1.1c0.4,0.4,0.7,0.8,1.1,1.2c2.3,2.8,4.5,5.6,6.5,8.7l0,0c0,0,0.1,0.1,0.1,0.1c0.2,0.2,0.3,0.5,0.5,0.7
				c0.1,0.1,0.2,0.2,0.2,0.3C283.5,119.6,283.9,159.9,250,215z"/>
		</g>
	</g>
	<g>
		<g>
			<path class="st1" d="M22.5,626.2c0,0-10.4,17-22.5,38v-48.7L22.5,626.2z"/>
		</g>
	</g>
	<g>
		<g>
			<path class="st0" d="M242.6,59.8c0,0-23.4-33.6,17.3-59c0,0-8.6,10.4-1.3,18.5c0,0,13.4-21.2,31.2-14.4c0,0-11.7,13.2-11,20.4
				c0,0,11.1-10.7,25.4-1.2c0,0-14.3,1.8-16,15.7c0,0,7.4-6.1,17.2,1.9c0,0-14.1,2.9-18,12.4c0,0,8.5,2.3,11.3,1.8
				c0,0-15.4,20.7-38.6,13.6L242.6,59.8z"/>
		</g>
	</g>
	<g>
		<g>
			<path class="st2" d="M234.8,61.5c0,0,0.6-7,9.9-3c9.2,4,21,11.5,16.6,18.4c-4.5,6.9-10.8,3.4-10.8,3.4L234.8,61.5z"/>
		</g>
	</g>
	<g>
		<g>
			<path class="st3" d="M92.3,516c-2.1,7.5-5.2,16-9.1,25.1c0,0,0,0,0,0c-8.3,19.2-20,41.2-32.2,62.1C36,628.7,20.2,652.8,8.9,668.6
				L0,664.4l-0.1,0c0,0,0-0.1,0.1-0.1V472.1l74.8,35.5l1.2,0.6l0,0L92.3,516z"/>
		</g>
	</g>
	<g>
		<g>
			<g>
				<g>
					<path class="st1" d="M99.3,508.7c0,0-6.7,24.6-19,35.2c-12.3,10.6-22.2,15.5-28.1,9.5s12.1-14.5,13.2-15.3c0,0-4,0.1-4.1-2.9
						c-0.1-2.8,7.9-21.7,16-30.9L99.3,508.7z"/>
				</g>
			</g>
			<g>
				<g>
					<path class="st4" d="M61.1,540.6c2.2-1.4,4-2.2,4.3-2.5c0,0,4,0.5,8.4-5.4C73.9,532.8,71.2,543.6,61.1,540.6z"/>
				</g>
			</g>
			<g>
				<g>
					<path class="st5" d="M110.7,507.6c0,0-4.7,1.5-11.5,1.7c-4.1,0.1-9-0.3-14-1.7c-2.5-0.8-5.1-1.8-7.7-3.2c0,0,0,0,0,0
						c0,0,0,0,0,0c0,0,0,0-0.1,0c0,0-0.1,0-0.2,0l-0.2,0.4v0l0,0.2l-0.9,3.4l0,0l-0.5,1.5c0,0-0.6,0.1-1.8-0.7c0,0-0.1-0.1-0.2-0.1
						h0c-2.9-1-8.8-2.9-16.4-5.8c-11-4.2-25.6-10-40.2-17c-5.8-2.7-11.7-5.5-17-8.3V339.8c36.8-44.2,64.5-58.5,70.4-61.3
						c0.8-0.4,1.2-0.5,1.2-0.5l0.1,0l36.2,17.2l36.3,17.2c0,0,0.1,0.2,0.4,0.8c0,0,0,0.1,0.1,0.1
						C147.9,320.3,166.5,369.9,110.7,507.6z"/>
				</g>
			</g>
			<g>
				<g>
					<path class="st6" d="M85.1,507.6c-2.6-0.7-5.2-1.8-7.7-3.2c0,0,45-119.8,50.9-142.6C128.2,361.7,99.9,465,85.1,507.6z"/>
				</g>
			</g>
			<g>
				<g>
					<path class="st6" d="M41.2,324.8C33,336.9,15.9,365.1,0,391.7v-8.2c0,0,0,0,0,0C17.9,357.6,35,333.5,41.2,324.8z"/>
					<path class="st6" d="M43.3,321.9c-0.2,0.2-0.3,0.5-0.6,0.8C42.9,322.5,43.1,322.2,43.3,321.9z"/>
				</g>
			</g>
		</g>
		<g>
			<g>
				<path class="st7" d="M98,330.5L86.4,325c-1.7-0.8-2.5-2.9-1.6-4.7l2.6-5.5c0.8-1.7,2.9-2.5,4.6-1.7l11.6,5.5
					c1.7,0.8,2.5,2.9,1.6,4.7l-2.6,5.5C101.8,330.6,99.7,331.3,98,330.5z"/>
			</g>
		</g>
		<g>
			<g>
				<polygon class="st7" points="91.1,320 99.2,323.8 55,433.6 36.5,444.7 33.7,423 				"/>
			</g>
		</g>
		<g>
			<g>
				<polygon class="st6" points="71.8,323.5 98.6,314.2 108.4,340.9 145.1,312.8 71.7,278 				"/>
			</g>
		</g>
	</g>
	<g>
		<g>
			<g>
				<path class="st8" d="M209.6,243.3c0,0,19-9.3,26.2,5.1c7.2,14.4-27.8,51.4-61.6,35.7L209.6,243.3z"/>
			</g>
		</g>
		<g>
			<g>
				<path class="st8" d="M83.3,183.2c0,0-4.8-20.7-20.5-17.1s-22.3,54,11.1,70.3L83.3,183.2z"/>
			</g>
		</g>
		<g>
			<g>
				<path class="st1" d="M239.5,214.9c-35.2,74-97.9,117.7-140.2,97.7c-42.2-20.1-47.9-96.3-12.7-170.4
					c16.5-34.8,59.1-37.1,95.8-22.2c21.5,8.7,52.6,12.5,63.8,30.1C256.8,166.4,248.5,196,239.5,214.9z"/>
			</g>
		</g>
		<g>
			<g>
				<path class="st9" d="M244.1,160.4c0.9,15.2-7.6,55.5-23.8,80c3.5-0.3,7.3,0.2,10.6,2.3c67.3-88.9,53.1-144.2,13.2-174.8
					L183.4,86l-21.6,37.5C161.8,123.6,243.2,144.3,244.1,160.4z"/>
			</g>
		</g>
		<g>
			<g>
				<path class="st0" d="M72,166.6c0,0,105.8,14.2,172.2-98.6L111.8,89.6L72,166.6z"/>
			</g>
		</g>
	</g>
	<g>
		<path class="st10" d="M143.4,245.5c-2.8-3.8-11.5-7.7-18.8-9.7c-0.9-0.3-1.9-0.6-2.9-0.4c-0.9,0.1-1.1,1.1-1.1,2.1
			c0.9,2.8,2.6,5.9,5.2,9.1c0.9,1,1.8,2.1,3,2.8c1.9,0.9,4.1,0.6,6,0.3C138,248.9,143.9,248.5,143.4,245.5z"/>
		<path class="st11" d="M146.5,274.4c-0.1,0.2,2.5,1.2,2.9,1.3c0.8,0.3,1.8,0.4,2.5-0.1c0.3-0.2,0.5-0.6,0.8-0.9
			c0.3-0.2,0.7-0.5,1-0.4c0.3,0.1,0.6,0.5,0.6,0.9c0.1,0.3-0.1,0.7-0.2,1.1c-0.2,0.5-0.4,1-0.5,1.6c-0.1,0.4-0.3,0.8-0.6,1.1
			c-0.3,0.3-0.9,0.4-1.2,0c-0.3-0.4,0-1.2-0.5-1.5c-0.2-0.2-0.6-0.1-0.9,0c-1.5,0.5-3.1,1.2-4.3,2.2c-0.6,0.6-4.3,0-5,1.4
			C142.5,278.3,144.9,277.1,146.5,274.4z"/>
		<path class="st11" d="M101.3,252.7c-0.1,0.2-5.7-2.7-6-2.8c-0.7-0.4-1.5-1.1-1.4-2c0-0.4,0.1-0.7,0.2-1.2c0-0.4-0.1-0.8-0.3-1
			c-0.3-0.2-0.7-0.2-1,0.1c-0.3,0.2-0.5,0.5-0.7,0.8c-0.3,0.4-0.6,0.9-0.9,1.3c-0.3,0.4-0.5,0.7-0.5,1.2c0,0.4,0.3,0.9,0.7,0.9
			c0.5,0,0.9-0.6,1.5-0.5c0.3,0.1,0.5,0.4,0.6,0.7c0.6,1.4,1.1,3.1,1,4.7c0,0.8,0.7,5,0.6,5.3C96.1,257.3,100,255.7,101.3,252.7z"/>
		<g>
			<g>
				<g>
					<path class="st12" d="M139.9,283.3c0,0-13.7,14.4-28.1,8.9C91.4,284.4,95.1,262,95.1,262L139.9,283.3z"/>
				</g>
			</g>
			<g>
				<g>
					<path class="st11" d="M94.4,255.1c-0.1,1.8,1,9.8,1.1,10.5c0.3,2.1,0.9,4.4,2,6.6c2.3,4.9,6.7,9.8,14.8,13.6
						c3.9,1.9,7.3,2.6,10.6,2.8c5.1,0.2,8.2-0.9,11.9-2.7c4.8-2.4,8.6-4.5,11.3-6.3c1.4-1,2.5-3.3,1.7-4.5c-0.1-0.2-4.8-2.5-5.7-2.9
						L101.9,253C99.5,251.8,94.7,252.4,94.4,255.1z"/>
				</g>
			</g>
			<g>
				<g>
					<path class="st13" d="M135.8,276.8c3.2,0.3,4.7-1.4,6.3-4.7l-40.5-19.3c-1.4,3-1.2,5.6,0.5,7.7
						C107.3,265.2,125.9,276.1,135.8,276.8z"/>
				</g>
			</g>
			<g>
				<g>
					<path class="st14" d="M97.5,272.3c2.3,4.9,6.7,9.8,14.8,13.6c3.9,1.9,7.3,2.6,10.6,2.8c0.8-2.9-1.2-9.5-10.7-15
						C102.2,267.8,97.8,272,97.5,272.3z"/>
				</g>
			</g>
			<g>
				<g>
					<path class="st12" d="M144.1,273.1c0,0-1-7.3-18.9-15.9c-11.1-5.3-25.6-5.1-25.6-5.1L144.1,273.1z"/>
				</g>
			</g>
		</g>
		<g>
			<path class="st11" d="M82.9,196.2c7.4-4.9,12.4-5.4,18.5-3.5c5.1,1.6,11.2,6.6,13.3,11.6c2,4.6,2.3,9.3,1.9,11.7
				c-0.2,1.7,1.1,2.5,1.9,1.9c3-6.3,3.1-15.5-2.8-22.7c-6-7.4-15.1-11.4-25-7.8c-3,1.1-7.7,4.9-8.9,6.4
				C81.1,194.6,81.6,197,82.9,196.2z"/>
			<path class="st11" d="M85.6,193.4c-2.8-1.8-5.6-3.7-8.4-5.5c1.2,3.1,2.5,6.5,5.2,8.5C83.4,195,83.7,194,85.6,193.4z"/>
			<path class="st10" d="M114.7,216.2c-0.9-3-2.8-5.7-5.4-7.6c-2.5-1.9-5.6-2.9-8.8-3C105.9,208.1,110.7,211.8,114.7,216.2z"/>
		</g>
		<g>
			<path class="st11" d="M198.1,251c-0.8-8.8-3.6-13-8.9-16.5c-4.4-3-12.2-4.5-17.3-3.1c-4.8,1.4-8.7,4.2-10.3,5.9
				c-1.2,1.3-2.7,0.8-2.7-0.2c2.9-6.3,10.1-12.2,19.4-12.1c9.5,0.1,18.4,4.5,21.8,14.5c1.1,3,1.2,9,0.7,10.9
				C200.5,251.4,198.2,252.5,198.1,251z"/>
			<path class="st11" d="M198.5,247.1c3.2,1,6.4,2,9.6,3c-3.2,1.1-6.6,2.1-9.9,1.4C198.7,249.7,199.3,248.9,198.5,247.1z"/>
			<path class="st10" d="M162.5,239c2.9-1.2,6.2-1.4,9.3-0.6s5.8,2.5,7.9,4.9C174.3,240.7,168.4,239.2,162.5,239z"/>
		</g>
	</g>
	<path class="st0" d="M202.5,227.1c0.3-1.7-3.1-6.2-3.9-7.7c-1.5-2.7-3.1-5.3-4.8-8c-1.4-2.3-8.5-10.3-9-13.2
		c-0.5-2.7,0.2-5.6,1.7-7.8c0.3,3.6,2.6,6.7,5,9.3C198.7,207.8,204.4,215.8,202.5,227.1z"/>
	<path class="st0" d="M97.1,176.9c1.1-1.2,6.7-1.6,8.4-1.8c3-0.6,6.1-1,9.2-1.4c2.8-0.3,13.3,0.1,15.9-1.4c2.4-1.3,4.2-3.6,4.9-6.3
		c-3,2-6.8,2.2-10.4,2C114.4,167.8,104.7,168.2,97.1,176.9z"/>
	<path class="st13" d="M0,664.3v0.1l-0.1,0C0,664.4,0,664.3,0,664.3z"/>
</g>
</svg>
