<?xml version="1.0" encoding="utf-8"?>
<!-- Generator: Adobe Illustrator 20.1.0, SVG Export Plug-In . SVG Version: 6.00 Build 0)  -->
<svg version="1.1" id="Calque_1" xmlns="http://www.w3.org/2000/svg" xmlns:xlink="http://www.w3.org/1999/xlink" x="0px" y="0px"
	 viewBox="0 0 198 475" style="enable-background:new 0 0 198 475;" xml:space="preserve">
<style type="text/css">
	.st0{fill:#808080;}
	.st1{fill:#3A332D;}
	.st2{fill:#EFC4A0;}
	.st3{fill:#FFFFFF;}
	.st4{fill:#F9DAB4;}
	.st5{fill:#EA9628;}
	.st6{fill:#E08A22;}
	.st7{fill:#F4D3B0;}
	.st8{fill:#EDA672;}
	.st9{fill:#4C0C0A;}
	.st10{fill:#B2543F;}
</style>
<g>
	<g>
		<g>
			<path class="st0" d="M132.8,404.3c-14.3-26.5-16.3-55-30.6-81.5c-2-3.3-3.9-6.5-5.8-9.8l-42.1-0.1L42.5,464.4h35.8l14-107.3h10.6
				l14,107.3h35.8l-2.3-32.7C144.4,422.8,138.5,413.7,132.8,404.3z"/>
			<path class="st0" d="M132.8,404.3c5.7,9.4,11.6,18.5,17.6,27.4l-8.5-118.6L96.3,313c1.9,3.3,3.8,6.5,5.8,9.8
				C116.4,349.3,118.5,377.8,132.8,404.3z"/>
		</g>
	</g>
	<g>
		<g>
			<path class="st1" d="M134.2,447.4h-0.4c-11,0-20,9.1-20,20.3v0.5c0,3.6,2.9,6.5,6.4,6.5h27.6c3.5,0,6.4-2.9,6.4-6.5v-0.5
				C154.1,456.5,145.2,447.4,134.2,447.4z"/>
		</g>
	</g>
	<g>
		<g>
			<path class="st1" d="M61.5,447.4h-0.4c-11,0-20,9.1-20,20.3v0.5c0,3.6,2.9,6.5,6.4,6.5h27.6c3.5,0,6.4-2.9,6.4-6.5v-0.5
				C81.5,456.5,72.5,447.4,61.5,447.4z"/>
		</g>
	</g>
	<g>
		<g>
			<path class="st2" d="M47.5,320.6c0,0-1.5,7.1,5.4,8.1c-0.9-1.4-1.7-2.4-1.9-2.6C51,326.1,48.5,325.3,47.5,320.6z"/>
		</g>
	</g>
	<g>
		<g>
			<path class="st2" d="M148.3,320.6c-1,4.7-3.5,5.5-3.5,5.5c-0.1,0.2-0.9,1.2-1.9,2.6C149.8,327.7,148.3,320.6,148.3,320.6z"/>
		</g>
	</g>
	<g>
		<g>
			<path class="st3" d="M54.1,317.1c0,0,19.6,4,43.8,4c0,0,0,0,0,0c0,0,0,0,0,0c1.1,0,2.2,0,3.2,0c-15.7-26-29-52.4-40.4-79.1
				C57.8,260.8,55,285.9,54.1,317.1z"/>
			<path class="st3" d="M125.5,198.6H121l-23.1,50l-23.1-50h-4.5c0,0-5,14.6-9.5,43.3c11.4,26.7,24.7,53.1,40.4,79.1
				c22.7-0.3,40.5-3.9,40.5-3.9C139.4,238.6,125.5,198.6,125.5,198.6z"/>
		</g>
	</g>
	<g>
		<g>
			<path class="st4" d="M49.7,242c-4.2,15.6-5.4,35.3-6.8,55.8c0,0-2.5,2.7-2.9,5.8c-0.1,1-2.9,12.2,1.4,21.8
				c4.3,9.6,8.8,15.3,14,13.4c5.2-1.9-3.1-11.9-3.5-12.6c0,0,2.4,1.2,3.2-0.5c0.8-1.6,1.5-14.9-0.3-22.6l6.4-58.9L49.7,242z"/>
		</g>
	</g>
	<g>
		<g>
			<path class="st4" d="M140.6,325.6c0.9,1.7,3.2,0.5,3.2,0.5c-0.4,0.8-8.7,10.8-3.5,12.6c5.2,1.9,9.7-3.7,14-13.4
				c4.3-9.6,1.5-20.8,1.4-21.8c-0.4-3.1-2.9-5.8-2.9-5.8c-1.4-20.5-2.6-40.2-6.8-55.8l-11.6,2.1l6.4,58.9
				C139.1,310.7,139.8,324,140.6,325.6z"/>
		</g>
	</g>
	<g>
		<g>
			<path class="st3" d="M45.9,243c0,0,6.4,4.4,18,6.2c-3.6-8.2-7.1-16.5-10.4-24.8C49.7,231.1,46.5,238,45.9,243z"/>
			<path class="st3" d="M97.9,249.9L97.9,249.9h25.9c16.6-0.3,26-6.9,26-6.9c-1.5-13.9-23.5-41.9-23.5-41.9l-4.5-0.6H97.9h0H74
				l-4.5,0.6c0,0-9,11.4-15.9,23.3c3.3,8.3,6.7,16.5,10.4,24.8c2.5,0.4,5.1,0.6,8,0.7H97.9z"/>
		</g>
	</g>
	<g>
		<g>
			<g>
				<path class="st5" d="M192.2,115.9c8.3-43.8-0.6-92.6-46.2-107C62.3-17.5,32.4,25.5,32.4,25.5C21,22.2,10,38.2,6.8,60.8
					c4.4,21.2,9.2,42.2,14.5,63l79.1,39.8L192.2,115.9z"/>
				<path class="st5" d="M5.8,74.5c0,25,2.7,42.9,2.7,42.9l12.8,6.4C15.9,103,11.2,82,6.8,60.8C6.2,65.2,5.8,69.8,5.8,74.5z"/>
			</g>
		</g>
		<g>
			<g>
				<path class="st6" d="M12.6,97.1v33.7h10.5c-3.6-13.4-6.9-26.9-9.9-40.5C12.8,92.6,12.6,94.8,12.6,97.1z"/>
				<path class="st6" d="M185.5,97.5c0-14.1-7-27.2-18.7-34.8l-6-3.9c-8.4-5.5-19.1-6.1-28-1.4l-27.4,14.3c-4,2.1-8.8,2.1-12.9,0.1
					L64.2,57.2c-9-4.6-19.7-3.9-28.1,1.8l-5.3,3.6C21.3,69,15,79.1,13.2,90.3c3.1,13.6,6.4,27.1,9.9,40.5h162.4V97.5z"/>
			</g>
		</g>
		<g>
			<g>
				<path class="st7" d="M4.6,114.2c-11.8,6.1,4.5,46.2,27.8,49.5l0-0.3c-4.9-16.1-9.3-32.3-13.4-48.6C15,112.6,9.9,111.4,4.6,114.2
					z"/>
				<path class="st7" d="M19,114.7c4.1,16.3,8.5,32.5,13.4,48.6L27,121.2C27,121.2,23.8,117.3,19,114.7z"/>
			</g>
		</g>
		<g>
			<g>
				<path class="st7" d="M194,114.2c-11.8-6.1-22.4,7.1-22.4,7.1l-5.4,42.4C189.5,160.4,205.8,120.3,194,114.2z"/>
			</g>
		</g>
		<g>
			<g>
				<path class="st4" d="M22.2,150.2c0,11.9,5.5,23.1,14.9,30.3l1,0.7c-5.9-17.9-11.1-35.9-15.8-54.1V150.2z"/>
				<path class="st4" d="M146.8,191.5l14.2-10.9c9.4-7.2,14.9-18.4,14.9-30.3v-49.7L154,86.2c-7.5-4.9-17-5.4-24.9-1.3l-24.3,12.7
					c-3.6,1.9-7.8,1.9-11.4,0.1L68.1,84.8c-8-4.1-17.5-3.5-25,1.6l-20.9,14.2v26.6c4.7,18.2,10,36.2,15.8,54.1l13.3,10.2
					C79.6,213.1,118.5,213.1,146.8,191.5z"/>
			</g>
		</g>
	</g>
	<path class="st8" d="M97.8,162.9c0.9,0.4,1.9,0.9,2.9,0.9c1.6,0,2.9-0.9,4.1-1.8c2-1.5,5.9-3.7,4.7-5.5c-3.1-1.6-10.3-1.5-15.9-0.5
		c-0.7,0.1-1.5,0.3-2.1,0.7c-0.6,0.4-0.4,1.1-0.1,1.8C92.9,160,95,161.6,97.8,162.9z"/>
	<g>
		<path class="st3" d="M61.2,148.6c3.2,2.7,9.3,2.4,13.3,1.9c2.2-0.3,4.5-1.6,6.1-3c3.9-3.6,4.8-12.7,3.9-15.4
			c-1.5-4.4-5-6.8-9.3-7.8l-5.8-1c-4.8,1.2-10.2,2.8-12.5,7.2c-1.4,2.6-1,5.6-0.6,8.5C56.8,142.7,58.4,146.2,61.2,148.6z"/>
		<path class="st9" d="M68.8,145.9c1.8,0.3,3.8-0.4,5.2-1.5c3.4-2.6,4.1-7.1,3.2-11c-0.6-2.4-1.9-5-4.6-5.9
			c-1.6-0.5-3.5-0.3-5.1,0.4c-1.5,0.7-2.7,1.9-3.6,3.3c-2.3,3.6-2.1,8.4,0.6,11.8C65.6,144.5,67.1,145.7,68.8,145.9z"/>
		<path class="st3" d="M127.1,150.5c4,0.5,10,0.7,13.3-1.9c2.9-2.4,4.4-5.9,4.9-9.5c0.4-2.9,0.7-5.9-0.6-8.5
			c-2.3-4.4-7.7-6-12.5-7.2l-5.8,1c-4.3,0.9-7.8,3.4-9.3,7.8c-0.9,2.6,0,11.8,3.9,15.4C122.6,148.9,124.9,150.3,127.1,150.5z"/>
		<path class="st9" d="M127.6,144.5c1.4,1.1,3.3,1.8,5.2,1.5c1.8-0.3,3.2-1.5,4.3-2.8c2.7-3.4,2.9-8.2,0.6-11.8
			c-0.9-1.3-2.1-2.5-3.6-3.3c-1.5-0.7-3.4-1-5.1-0.4c-2.6,0.9-4,3.4-4.6,5.9C123.5,137.4,124.2,141.9,127.6,144.5z"/>
		<path class="st9" d="M55,136.2c1.1-4.5,3.9-8,10-10.7c3.7-1.6,8.7-1.6,12.4-0.1c2.5,1,5.2,3.7,6.7,7.7c0.5,1.2,1.8,1.1,2,0.3
			c-0.5-7.5-7.2-11.9-11.9-12.9c-7-1.5-15,1.5-19.3,8.2c-1.3,2-1.9,4.3-1.9,5.8C53.1,136.6,54.7,137.3,55,136.2z"/>
		<g>
			<path class="st9" d="M116.7,133c1.5-3.9,4.2-6.7,6.7-7.7c3.7-1.5,8.7-1.5,12.4,0.1c6.1,2.7,8.9,6.2,10,10.7
				c0.3,1.1,1.9,0.4,2-1.7c0-1.5-0.6-3.8-1.9-5.8c-4.3-6.7-12.3-9.7-19.3-8.2c-4.6,1-11.4,5.4-11.9,12.9
				C114.9,134.1,116.3,134.3,116.7,133z"/>
		</g>
	</g>
	<path class="st5" d="M80.7,108.7c0.1-4.1,0.1-8.2,0.2-12.3c-0.9,0.7-1.8,1.3-2.7,2c-0.5-0.9-0.9-1.8-1.4-2.6
		c-9.5-0.6-19.1,0.9-28,4.2c2,4.1,3.6,8.4,4.8,12.8C62.3,110.1,71.5,108.7,80.7,108.7z"/>
	<path class="st5" d="M147.2,111.9c1.2-4.4,2.8-8.7,4.8-12.8c-8.9-3.4-18.5-4.8-28-4.2c-0.5,0.9-0.9,1.8-1.4,2.6
		c-0.9-0.7-1.8-1.3-2.7-2c0.1,4.1,0.1,8.2,0.2,12.3C129.3,107.8,138.5,109.2,147.2,111.9z"/>
	<g>
		<path class="st9" d="M99.9,201.6c2.7-0.3,5-0.5,7.8-2.5c-5.3,0.9-10.7,0.9-15.4,0C94.4,200.9,97.2,201.9,99.9,201.6z"/>
		<g>
			<path class="st9" d="M120.2,181.6c0.3-0.6,0.7-1.2,1-1.8c0.5-1.2,1.5-2.3,2.5-3.2c0.2-0.2,0.4-0.3,0.7-0.3
				c0.4,0.1,0.5,0.7,0.9,0.9c0.3,0.2,0.7-0.1,0.9-0.4c0.1-0.3,0.1-0.7,0-1.1c-0.1-0.4-0.1-0.9-0.2-1.3c0-0.3-0.1-0.6-0.2-0.9
				c-0.2-0.3-0.5-0.5-0.8-0.4c-0.3,0.1-0.5,0.4-0.6,0.7c-0.1,0.3-0.1,0.6-0.3,0.9c-0.3,0.7-1.1,0.9-1.8,1c-0.3,0-2.6,0.2-2.6,0
				c-0.2,2.6-0.3,5.2-0.5,7.8c0-0.3,0.4-0.7,0.5-0.9C119.8,182.3,120,181.9,120.2,181.6z"/>
			<path class="st9" d="M73.5,177.2c0.4-0.2,0.5-0.8,0.9-0.9c0.3,0,0.5,0.1,0.7,0.3c1,0.9,1.9,2,2.5,3.2c0.3,0.6,0.6,1.2,1,1.8
				c0.2,0.3,0.4,0.7,0.5,1c0.1,0.2,0.5,0.7,0.5,0.9c-0.2-2.6,1.1-5.3,1-7.9c0,0.1-3.8,0.1-4,0c-0.7-0.1-1.5-0.3-1.8-1
				c-0.1-0.3-0.2-0.6-0.3-0.9c-0.1-0.3-0.3-0.6-0.6-0.7c-0.3-0.1-0.6,0.2-0.8,0.4c-0.2,0.3-0.2,0.6-0.2,0.9
				c-0.1,0.4-0.1,0.9-0.2,1.3c0,0.4-0.1,0.7,0,1.1C72.8,177.1,73.2,177.4,73.5,177.2z"/>
			<g>
				<g>
					<g>
						<path class="st9" d="M80.9,187.3c1,1.5,2.2,2.9,3.8,4.2c3.5,2.8,8.5,4.9,15.9,4.9c3.5,0,6.4-0.6,8.9-1.7
							c3.8-1.6,6.4-3.9,7.9-6.9c1.9-3.6,2.5-4.9,3.7-8.1c0.5-1.3,0.8-3.3-0.3-4c-0.1-0.1-2-0.2-2.9-0.2H81.2c-2.2,0-4.2,2.2-3.4,4.2
							C78.3,181.3,80.6,186.8,80.9,187.3z"/>
					</g>
				</g>
				<g>
					<g>
						<path class="st3" d="M84,181.1c5.5,1.7,23.3,3.2,30.9,0.2c2.5-1,3-2.8,3-5.7l-37.1,0C80.9,178.3,82,180.2,84,181.1z"/>
					</g>
				</g>
				<g>
					<g>
						<path class="st10" d="M109.5,194.8c-0.5-2.4-4.3-6.7-13.3-7.4c-9.6-0.8-11.4,3.8-11.5,4.1c3.5,2.8,8.5,4.9,15.9,4.9
							C104.1,196.4,107.1,195.8,109.5,194.8z"/>
					</g>
				</g>
			</g>
		</g>
	</g>
	<path d="M31,125.2c1.2,0.9,1.6,2.6,2,4.1c0.2,0.8,0.2,1.9,1.4,1.9c1.6,0,1.6,1.1,1.7,2.2c0.4,3.9,1.3,7.6,2.7,11.2
		c4.6,11.9,13.9,17.8,27,17.1c11.9-0.6,20.3-7.7,23.5-19.8c0.9-3.4,1.2-7,1.3-10.5c0.1-2.8,1.2-5.8,3.3-7.2c6.8-4.4,14.8-0.1,15.3,8
		c0.2,2.9,0.5,5.7,1.1,8.5c2.6,12.3,11,19.8,23.3,20.9c12.8,1.1,22.7-4.9,27.4-16.9c0.9-2.4,1.4-4.9,2.2-7.3c0.8-2.4-0.8-6,3.3-6.8
		c0.2,0,0.3-0.8,0.4-1.2c0.6-2,1.6-3.8,3-5.4c2.4-2.7,0.8-7.4-2.7-8.2c-4.9-1.1-9.8-1.9-14.7-2.1c-14.9-0.7-29.8-0.8-43.7,6.3
		c-0.4,0.2-0.9,0.4-1.2,0.3c-7.5-1.9-15.4,0.6-23.1-3c-8.7-4-18.7-4-24.5-4c-12.1,0-20.3,0.9-28.5,2.7c-1.1,0.2-2.4,0.2-2.4,1.7
		C29.2,120.4,28.3,123.1,31,125.2z M123.5,118.4c8.7-1.9,17.5-2.4,26.3-0.9c8.9,1.4,13.5,8.1,12,17c-0.7,4-1.6,8-3.4,11.7
		c-4.4,9.2-11.8,13.7-18.3,13.7c-17.5,0-26.8-8.6-28.4-22.8c-0.1-0.5-0.1-1.1-0.1-1.7C110.4,125.1,113.4,120.7,123.5,118.4z
		 M48.1,118c10.9-2.4,21.8-1.8,32.3,1.7c6.5,2.1,8.7,6.1,8.3,13c-0.1,2.4-0.4,4.8-0.9,7.2c-2.6,12.8-11.2,19.9-24.2,20.1
		c-12.9,0.2-22-8-24.9-22.4c-0.4-2-0.7-4.2-0.7-6.2C38,124.3,41.4,119.5,48.1,118z"/>
</g>
</svg>
