<?xml version="1.0" encoding="utf-8"?>
<!-- Generator: Adobe Illustrator 20.1.0, SVG Export Plug-In . SVG Version: 6.00 Build 0)  -->
<svg version="1.1" id="Calque_1" xmlns="http://www.w3.org/2000/svg" xmlns:xlink="http://www.w3.org/1999/xlink" x="0px" y="0px"
	 viewBox="0 0 338 649" style="enable-background:new 0 0 338 649;" xml:space="preserve">
<style type="text/css">
	.st0{fill:#808080;}
	.st1{fill:#3A332D;}
	.st2{fill:#EFC4A0;}
	.st3{fill:#FFFFFF;}
	.st4{fill:#F9DAB4;}
	.st5{fill:#EA9628;}
	.st6{fill:#E08A22;}
	.st7{fill:#F4D3B0;}
	.st8{fill:#EDA672;}
	.st9{fill:#4C0C0A;}
	.st10{fill:#B2543F;}
</style>
<g>
	<g>
		<g>
			<polygon class="st0" points="379.4,409.1 265.2,466.7 350.3,671.5 396.8,647.8 344.2,499 357.9,492 447,622.3 493.6,598.7 			"/>
		</g>
	</g>
	<g>
		<g>
			<path class="st2" d="M274,488.3c-2.1-1.2-3.9-2-4.2-2.2c0,0-3.8,0.6-8.2-4.8C261.6,481.3,264.4,491.5,274,488.3z"/>
		</g>
	</g>
	<g>
		<g>
			<path class="st3" d="M327.4,448.5c31.5-16,54.3-34,54.3-34C326.9,314,282.4,271,282.4,271l-5.8,3l3,80.2l-63.1-49.7l-5.9,3
				c0,0,8.4,61.3,57.3,164.8C268,472.2,296.1,464.4,327.4,448.5L327.4,448.5L327.4,448.5L327.4,448.5L327.4,448.5z"/>
		</g>
	</g>
	<g>
		<g>
			<path class="st4" d="M240.7,463.9c0.5,1.3,4.2,17.7,16.3,27.4c11.9,9.8,21.6,14,27,8.2c5.4-5.8-11.9-13.3-12.9-14.1
				c0,0,3.9,0,3.9-2.8c0-2.6-7.9-20.4-15.3-29.2l-30.6-80.9l-16.5,4.9c4.9,23.1,16.3,49.4,27.9,77.1
				C240.7,454.6,239.2,459.7,240.7,463.9z"/>
		</g>
	</g>
	<g>
		<g>
			<path class="st4" d="M391.2,387.5c0.8,1.1,11.8,13.8,12.5,29.3c0.9,15.4-1.4,25.7-9.3,26.6c-7.9,1-3.7-17.5-3.7-18.7
				c0,0-2.3,3.2-4.6,1.5c-2.1-1.5-11.8-18.4-14.6-29.6l-47.3-72.4l13.7-10.4c15.8,17.6,30.3,42.3,45.8,68
				C383.6,381.9,388.6,383.7,391.2,387.5z"/>
		</g>
	</g>
	<g>
		<g>
			<path class="st3" d="M285.2,273.7l-6.2,2.2l-31.1,15.8l0,0l-31.1,15.8l-5.4,3.7c0,0-10.2,50.8-2.9,70c0,0,16.5,2.3,38.4-8.3
				l33.7-17.1l0,0l33.7-17.1c21.4-11.4,29.3-26.1,29.3-26.1C332.3,295.4,285.2,273.7,285.2,273.7z"/>
		</g>
	</g>
	<g>
		<g>
			<g>
				<path class="st5" d="M76.7,242.6c0,0-15.5-21.5-31.9-54c-19.5-38.4-18.1-77.4,2.2-81.3c0,0,10.5-75.7,136.8-96.6
					C252.6-0.5,296.4,57,314.6,119.5l-87.9,122.8L76.7,242.6z"/>
			</g>
		</g>
		<g>
			<g>
				<path class="st6" d="M90.8,257.3l-22.2-43.8c-9.2-18-8.9-39.4,0.8-56.9l4.5-8.3c7.2-13,20.7-20.9,35.3-20.9l46.4,0
					c6.6,0.1,12.9-3.2,16.6-8.5l26.2-36.6c8.6-12,22.7-18.2,37.4-16.6l10.4,1.2c20.1,2.3,38,14.6,47.3,32.9l22,43.3L90.8,257.3
					L90.8,257.3z"/>
			</g>
		</g>
		<g>
			<g>
				<path class="st7" d="M103.2,235.3c0,0-22.5-10.1-33.7,5.6c-11.3,15.8,36.4,57.1,68.8,46.1L103.2,235.3z"/>
			</g>
		</g>
		<g>
			<g>
				<path class="st7" d="M291.4,139.7c0,0,5.1-24.1,24.4-24c19.4,0.2,24.6,63.1-3.4,82.7L291.4,139.7z"/>
			</g>
		</g>
		<g>
			<g>
				<path class="st4" d="M316.8,224l-11.3,23.7c-22.5,46.8-73.1,72.5-124.2,63.1l-25.8-4.8c-16.9-3.2-31.4-14.2-39.3-29.6
					l-32.8-64.6l17.8-32.2c6.4-11.5,18.4-18.6,31.4-18.6l41.3,0c5.9,0,11.4-2.8,14.8-7.6l23.3-32.5c7.6-10.5,20.3-16.4,33.3-14.8
					l38,4.2l32.8,64.6C324,190.2,324.2,208.5,316.8,224z"/>
			</g>
		</g>
	</g>
	<path class="st8" d="M233.9,226.8c-5.2,0-14.4,4.9-21.1,9.8c-0.9,0.6-1.8,1.3-2.3,2.3c-0.5,0.9,0.3,1.8,1,2.4
		c3,1.1,6.9,1.7,11.3,1.6c1.5,0,3-0.1,4.4-0.8c2.1-1.1,3.2-3.2,4.1-5.1C233.1,233.7,236.7,228.3,233.9,226.8z"/>
	<g>
		<path class="st3" d="M168,207.6c6.2-1.6,12.4-0.7,17.2,3.9c2.9,2.9,7.8,15.3,5.1,22.5c-1.2,3-3.2,6.2-5.9,8
			c-4.8,3.2-12.6,7.7-18.5,6.2c-5.3-1.2-9.6-4.7-12.7-9.1c-2.4-3.5-4.8-7.2-4.7-11.4c0.2-7.2,6-12.8,11.5-17.6L168,207.6z"/>
		<path class="st9" d="M166.7,239.1c-5.8-2.7-9.3-8.8-8.6-15c0.3-2.3,1.1-4.7,2.6-6.7c1.5-2,3.9-3.5,6.2-3.9c4-0.6,7.5,1.9,9.8,4.6
			c3.7,4.4,5.8,10.7,3.1,16.4c-1.1,2.4-3.2,4.5-5.7,5.3C171.5,240.6,168.9,240.1,166.7,239.1z"/>
		<path class="st3" d="M234.6,173.8c-4.9,4-7.9,9.6-7,16.2c0.6,4,7.8,15.3,15.2,17.4c3.1,0.8,6.9,1.1,10,0c5.4-2,13.6-5.6,16-11.3
			c2.2-5,1.9-10.5,0.1-15.6c-1.4-4-3-8.2-6.4-10.6c-6-4.1-13.9-2.7-21-1.1L234.6,173.8z"/>
		<path class="st9" d="M260.8,191.3c1.2-6.3-1.6-12.6-7-15.8c-2-1.1-4.4-1.9-6.9-1.8c-2.5,0.1-5.1,1.1-6.8,2.7
			c-2.9,2.9-2.9,7.2-2,10.6c1.4,5.6,5.2,11,11.4,12.2c2.6,0.5,5.6,0.1,7.7-1.5C259.3,196,260.4,193.6,260.8,191.3z"/>
		<path class="st9" d="M149.6,236.3c-1.5-6.6-0.3-13,6-20.6c3.7-4.6,10.3-7.7,16.1-8.3c4-0.4,9.2,1.5,13.8,5.6
			c1.5,1.3,3.1,0.2,2.8-1c-5.5-9.5-17.3-10.7-24-8.9c-10,2.7-18.5,11.8-19.6,23.5c-0.3,3.5,0.3,6.8,1.3,8.8
			C147.2,238.1,149.9,237.9,149.6,236.3z"/>
		<g>
			<path class="st9" d="M267.8,176.3c-4.4-5.1-10.3-7.9-20.2-7.3c-5.9,0.3-12.3,3.7-16.1,8.1c-2.6,3-4.2,8.3-3.6,14.4
				c0.2,1.9-1.7,2.6-2.4,1.7c-4.4-10.1,1.6-20.2,6.9-24.6c8.1-6.5,20.5-8,30.5-2c3,1.8,5.3,4.3,6.3,6.2
				C270.5,175.4,268.8,177.5,267.8,176.3z"/>
		</g>
	</g>
	<path class="st5" d="M151.2,169.5c-12.8,5.5-24.3,13.8-33.7,24c5.3,4,10.3,8.5,14.7,13.4c9.5-9.4,20.6-17.3,32.5-23.2
		c-2.6-5.4-5.2-10.7-7.8-16.1c-0.8,1.5-1.5,3-2.2,4.5C153.5,171.1,152.4,170.3,151.2,169.5z"/>
	<path class="st5" d="M212.1,137c12-7.1,25.5-11.5,39.2-13.1c0.1,6.6,0.8,13.3,2.2,19.8c-13.2,2.2-26.1,6.5-37.9,12.6
		c-2.8-5.3-5.6-10.5-8.4-15.8c1.7,0.2,3.3,0.6,4.9,0.8C212,139.9,212,138.5,212.1,137z"/>
	<g>
		<path class="st9" d="M259.6,283.2c-6.3,4.7-13.3,8.3-20,10.2c3.9,1,8.2,0.5,11.5-1.7C254.6,289.5,257.5,287.8,259.6,283.2z"/>
		<g>
			<path class="st9" d="M259.7,245c0.1,0.2,3.1-1.6,3.3-1.8c0.8-0.6,1.7-1.4,1.7-2.5c0-0.5-0.2-0.9-0.3-1.4c-0.1-0.5,0-1,0.4-1.3
				c0.3-0.3,0.9-0.2,1.3,0.1c0.4,0.2,0.7,0.6,0.9,1c0.4,0.5,0.7,1.1,1.1,1.6c0.3,0.5,0.7,0.9,0.7,1.5c0,0.5-0.3,1.2-0.9,1.2
				c-0.6,0-1.2-0.7-1.8-0.6c-0.4,0.1-0.6,0.5-0.7,0.8c-0.7,1.8-1.3,3.9-1.1,5.8c0.1,1-0.1,2-0.1,3c0,0.5-0.1,1.1-0.1,1.7
				c0,0.4-0.1,1.2,0,1.6C262.8,252,261.3,248.6,259.7,245z"/>
			<path class="st9" d="M208.9,270.7c0.1,0.2-4.9,2.6-5.2,2.7c-0.9,0.3-2.2,0.6-3-0.1c-0.4-0.2-0.6-0.7-1-1
				c-0.4-0.4-0.8-0.6-1.2-0.5c-0.4,0.1-0.7,0.6-0.7,1.1c0,0.5,0.1,0.9,0.3,1.3c0.2,0.6,0.4,1.2,0.7,1.8c0.2,0.5,0.4,1.1,0.8,1.4
				s1.1,0.4,1.4,0c0.4-0.5,0.1-1.4,0.6-1.8c0.3-0.3,0.7-0.2,1-0.1c1.9,0.5,3.9,1.3,5.4,2.5c0.8,0.7,1.7,1.1,2.5,1.7
				c0.4,0.3,0.9,0.6,1.4,0.9c0.3,0.2,1,0.6,1.3,0.9C210.9,278.4,210.9,274,208.9,270.7z"/>
			<g>
				<g>
					<g>
						<path class="st9" d="M208,278.1c1.7,1.5,8.3,7.2,9.1,7.7c2.2,1.3,4.8,2.3,7.7,2.9c6.4,1.4,14.3,0.7,23.9-4.2
							c4.6-2.3,7.9-5,10.5-8c3.9-4.7,5.7-9.2,5.8-14.1c0-6,0.1-8-0.5-13.1c-0.2-2.1-1.2-4.8-3.1-5c-0.3,0-2.8,1.1-3.8,1.7
							l-47.9,24.3C206.7,271.7,205.6,275.9,208,278.1z"/>
					</g>
				</g>
				<g>
					<g>
						<path class="st3" d="M257.4,255.4c2.6-2.9,2.1-5.7,0.2-9.4l-48.2,24.5c1.8,3.5,4.4,5.2,7.7,5.1
							C225.4,274.1,249.4,264.4,257.4,255.4z"/>
					</g>
				</g>
				<g>
					<g>
						<path class="st10" d="M224.7,288.7c6.4,1.4,14.3,0.7,23.9-4.2c4.6-2.3,7.9-5,10.5-8c-2.2-2.9-9.9-5.8-22.2-0.8
							C224,281.1,224.7,288.2,224.7,288.7z"/>
					</g>
				</g>
			</g>
		</g>
	</g>
	<path d="M141.1,203.4c7.6-3.8,20.5-10.5,34.5-11c12.4-0.4,21-8.9,32-11.4c0.6-0.1,1.1-0.7,1.4-1.3c13.3-18.3,32.7-28,52.6-37
		c6.5-3,13.5-5.2,20.5-7c5.1-1.2,10.2,3.7,8.9,8.8c-0.8,3.1-1,6-0.4,9c0.1,0.6,0.6,1.6,0.3,1.8c-4.7,3.8-0.3,7.4,0.2,11.1
		c0.6,3.7,1.6,7.2,1.9,10.9c1.9,18.6-7,33.1-24.4,40.1c-16.6,6.6-32.6,2.4-44.1-11.8c-2.7-3.3-4.9-6.7-7.1-10.3
		c-6.1-10.1-19.3-10.5-25.2-0.2c-1.8,3.2-1.3,7.7,0.4,11.6c2.1,4.7,4.1,9.4,5.2,14.5c3.7,17.8-2.4,32.6-17.6,41.2
		c-16.5,9.6-32.5,8-46.4-4.4c-4.2-3.8-7.8-8.1-11-12.9c-0.9-1.4-1.6-2.8-3.8-1.7c-1.6,0.8-2.3-0.7-3.1-1.6c-1.6-1.6-3.2-3.5-5.4-4
		c-4.8-0.9-5.4-5.1-7.1-8.3c-1-1.9,0.7-2.9,2-3.9C115.3,217.9,125.3,211.4,141.1,203.4z M176.5,261.4c16.7-8.9,23.3-23.8,18.2-42.1
		c-0.9-3.4-2.1-6.7-3.5-10c-4-9.2-9.5-12.9-19.3-11.3c-16.1,2.4-30.6,8.9-43.1,19.2c-7.9,6.4-9.1,14.8-4.5,24
		c1.4,2.7,3.2,5.2,5.1,7.5C142.5,265.6,159.9,270.2,176.5,261.4z M275.9,210.8c8.5-4.4,15.2-15,14.8-30c-0.2-6.1-1.5-11.8-3.2-17.4
		c-3.9-12.6-14.3-18.2-26.7-14.2c-12.5,4-23.7,10.4-33.7,18.6c-11.7,9.7-12.6,17.4-4.4,30.1c0.4,0.7,0.8,1.4,1.2,2.1
		C235.2,217.4,253.1,222.4,275.9,210.8z"/>
</g>
</svg>
