<?xml version="1.0" encoding="utf-8"?>
<!-- Generator: Adobe Illustrator 20.1.0, SVG Export Plug-In . SVG Version: 6.00 Build 0)  -->
<svg version="1.1" id="Calque_1" xmlns="http://www.w3.org/2000/svg" xmlns:xlink="http://www.w3.org/1999/xlink" x="0px" y="0px"
	 viewBox="0 0 338 649" style="enable-background:new 0 0 338 649;" xml:space="preserve">
<style type="text/css">
	.st0{fill:#808080;}
	.st1{fill:#EFC4A0;}
	.st2{fill:#FFFFFF;}
	.st3{fill:#F9DAB4;}
	.st4{fill:#EA9628;}
	.st5{fill:#E08A22;}
	.st6{fill:#F4D3B0;}
	.st7{fill:#EDA672;}
	.st8{fill:#4C0C0A;}
	.st9{fill:#B2543F;}
</style>
<g>
	<g>
		<g>
			<path class="st0" d="M338,455.5v43.7l0,0l0,0v149.2l-66.1-143.6l0.1,0l0,0l-6.9-15.1v0v-0.1v0l-1-1.7v0l-8.7-18.8l0,0l0,0
				l2.2-1.4l0.1-0.1l52.6-29.3l0.1-0.1l0.2-0.1c0,0,0,0,0,0h0.1l0.1,0l0.2,0.1v0c0,0.1,0.1,0.1,0.2,0.2c0.2,0.1,0.4,0.3,0.6,0.4
				c0.2,0.1,0.2,0.2,0.4,0.3c0.4,0.2,0.7,0.5,1.1,0.7c0.1,0,0.1,0.1,0.2,0.1c0.1,0,0.1,0.1,0.2,0.1c1.5,0.9,3,1.8,4.5,2.7
				c1.2,0.7,2.5,1.4,3.7,2.1c0.4,0.2,0.7,0.4,1,0.6c0.9,0.5,1.8,1,2.7,1.5c1.8,1.1,3.6,2.3,5.3,3.5c0.3,0.2,0.6,0.4,0.9,0.6
				c0.6,0.4,1.2,0.8,1.9,1.2c0.2,0.1,0.4,0.3,0.6,0.4c0.2,0.1,0.3,0.2,0.5,0.4C335.9,453.9,337,454.7,338,455.5z"/>
			<path class="st0" d="M338,423.2v32.4c-1-0.8-2.1-1.6-3.2-2.5c-0.2-0.1-0.3-0.2-0.5-0.4c-0.2-0.1-0.4-0.3-0.6-0.4
				c-0.6-0.4-1.2-0.8-1.9-1.2c-0.3-0.2-0.6-0.4-0.9-0.6c-1.7-1.2-3.5-2.6-5.3-3.7c-0.9-0.5-1.8-0.8-2.7-1.8h0
				c-3.9-1.9-7.8-4.3-11.7-6.6c-0.1-0.1-0.3-0.2-0.4-0.3l0.1-0.1l26.9-14.8L338,423.2z"/>
		</g>
	</g>
	<g>
		<g>
			<path class="st1" d="M252.1,484.1c0,0,3.2,10.4,13,6.8c-2.3-1.1-4-1.9-4.3-2.1C260.7,488.8,256.8,489.6,252.1,484.1z"/>
		</g>
	</g>
	<g>
		<g>
			<path class="st2" d="M211.9,371c34.5,26.8,71.2,51.8,110.8,74.5c-1.3,0.8-2.8,1.6-4.2,2.4c-31.7,17.6-60.3,26.7-60.3,26.7
				C236.7,433,221.9,398.1,211.9,371z"/>
			<path class="st2" d="M338,355.5V436c-0.1,0-0.2,0.1-0.2,0.1c-4.7,3-9.6,5.9-14.9,8.9h0l0,0.2c-0.4-0.2-0.7-0.3-1-0.5
				c-1.2-0.7-2.5-1.4-3.7-2.1c-1.5-0.9-3-1.7-4.5-2.6c-0.1,0-0.1-0.1-0.2-0.1c-0.1,0-0.2-0.1-0.2-0.1c-0.4-0.2-0.8-0.4-1.1-0.6
				c-0.2-0.1-0.3-0.2-0.5-0.3c-0.3-0.2-0.6-0.3-0.9-0.5c0,0,0,0,0,0c-0.1-0.1-0.2-0.1-0.3-0.2c-31.2-18.5-60.6-38.5-88.6-59.7l0,0
				c-3.3-2.5-6.6-5-9.8-7.5c-11-29.8-16-50-18-58.8v-0.8c0,0,0,0,0,0c0-0.1,0-0.1-0.1-0.2c-0.9-2.7-0.9-4-0.9-4l5.9-3.3l2.7,2l0,0.1
				l5.3,4l0.2,0.1c0,0,0,0,0,0l58.4,42.7l-5.4-71.1l0-0.3v-8l0-0.1l-0.3-3.2l5.9-3.3c0,0,1,1,3,2.9l0,0c0.5,0.4,1,0.9,1.5,1.5
				c7,7,21.8,22.6,41.5,48.1c1.3,1.7,2.7,3.5,4.1,5.4c6.9,9,14.3,19.2,22.1,30.6C337.9,355.3,337.9,355.4,338,355.5z"/>
		</g>
	</g>
	<g>
		<g>
			<path class="st3" d="M197.7,379.3c5.9,23.6,18.7,50.3,31.8,78.3c0,0-1.3,5.3,0.5,9.7c0.5,1.4,5.1,18.1,17.8,27.6
				s22.8,13.6,28.2,7.4c5.4-6.3-12.8-13.3-13.8-14c0,0,4-0.2,3.9-3.1c-0.1-2.7-8.9-20.7-16.9-29.5l-34.7-82.1L197.7,379.3z"/>
		</g>
	</g>
	<g>
		<g>
			<path class="st3" d="M338,325v34.2l-0.2-0.3l-23.5-33.1l-4-5.6l1.2-1l12.5-10.2c1,1,2,2,2.9,3c0,0,0,0,0.1,0.1
				C330.7,316.1,334,320.4,338,325z"/>
		</g>
	</g>
	<g>
		<g>
			<path class="st2" d="M193.3,383.3c0,0,11.7,1.2,28.1-5c-10.7-8.1-21.3-16.4-31.7-24.9C189.6,365,190.4,376.3,193.3,383.3z"/>
			<path class="st2" d="M266.6,354.4L266.6,354.4l34.1-18.9c21.6-12.6,29.1-28,29.1-28c-12.1-17.2-61.5-37.8-61.5-37.8l-6.3,2.6
				l-31.4,17.5l0,0l-31.4,17.5l-5.5,4.1c0,0-3.5,21.6-3.8,42.3c10.4,8.5,20.9,16.8,31.7,24.9c3.5-1.3,7.2-3,11.1-5L266.6,354.4z"/>
		</g>
	</g>
	<g>
		<g>
			<g>
				<path class="st4" d="M292.7,109.5C271.6,45.9,224.3-11.6,153.8,2.8C24.7,29.2,16.7,107.5,16.7,107.5c-17.4,3.9-20.1,33-7.9,65.1
					C30,197.2,51.7,221.3,74,244.8l133-5.5L292.7,109.5z"/>
				<path class="st4" d="M17.6,191.2c18.3,32.9,35,54.4,35,54.4l21.5-0.9c-22.3-23.4-43.9-47.5-65.2-72.2
					C11.2,178.7,14.2,185,17.6,191.2z"/>
			</g>
		</g>
		<g>
			<g>
				<path class="st5" d="M43,216l24.5,44.2l13.8-7.7c-14.5-15-28.7-30.3-42.7-45.9C40,209.9,41.4,213,43,216z"/>
				<path class="st5" d="M270.4,90.2c-10.3-18.5-29.1-30.6-50-32.1l-10.7-0.8c-15.1-1.1-29.5,6-37.8,18.6l-25.6,38.7
					c-3.8,5.7-10,9.2-16.8,9.5L81.7,126c-15.1,0.5-28.8,9.3-35.6,22.9l-4.4,8.6c-7.8,15.4-8.7,33.2-2.9,49.2
					c14,15.5,28.1,30.8,42.7,45.9L294.7,134L270.4,90.2z"/>
			</g>
		</g>
		<g>
			<g>
				<path class="st6" d="M45,244.3c-11,16.7,39.7,57.4,72.7,44.7l-0.3-0.4c-18.2-17.6-35.8-35.7-53.1-54.1
					C57.6,234.6,50,236.8,45,244.3z"/>
				<path class="st6" d="M64.3,234.5c17.3,18.4,34.9,36.5,53.1,54.1l-37.8-51.3C79.6,237.2,72.5,234.4,64.3,234.5z"/>
			</g>
		</g>
		<g>
			<g>
				<path class="st6" d="M293.8,106c-20,0.6-24.2,25.6-24.2,25.6l23.8,59.7C321.6,169.9,313.7,105.4,293.8,106z"/>
			</g>
		</g>
		<g>
			<g>
				<path class="st3" d="M94.4,278.8c8.7,15.6,24.2,26.3,41.7,29l1.8,0.3c-20.8-19.2-40.8-39.1-60.3-59.4L94.4,278.8z"/>
				<path class="st3" d="M288.1,242l10.7-24.8c7.1-16.3,6.1-35.1-2.6-50.7L260,101.3l-39.3-2.9c-13.4-1-26.3,5.3-33.6,16.5
					l-22.7,34.4c-3.4,5.1-8.9,8.2-15,8.5l-42.5,1.6c-13.5,0.5-25.6,8.3-31.7,20.3l-17,33.9l19.4,35c19.5,20.4,39.5,40.2,60.3,59.4
					l24.9,3.7C215.7,319.4,266.9,291,288.1,242z"/>
			</g>
		</g>
	</g>
	<path class="st7" d="M203,240.2c1.5-0.1,3.1-0.3,4.4-0.9c2.1-1.1,3.2-3.3,4.1-5.4c1.6-3.5,5-9.1,2.1-10.6
		c-5.3,0.1-14.6,5.6-21.3,10.9c-0.8,0.7-1.7,1.4-2.3,2.4s0.3,1.8,1.1,2.4C194.4,240,198.4,240.5,203,240.2z"/>
	<g>
		<path class="st2" d="M144.5,248.1c6.3,1.2,13.9-3.6,18.9-7.1c2.7-1.9,4.7-5.3,5.7-8.4c2.5-7.5-3-20.3-6.1-23
			c-5.1-4.7-11.6-5.3-17.9-3.4l-8.2,3c-5.4,5.1-11.3,11.1-11.2,18.6c0,4.3,2.8,8.1,5.4,11.5C134.4,243.6,139.1,247,144.5,248.1z"/>
		<path class="st8" d="M152.6,239.1c2.6-1,4.6-3.2,5.7-5.7c2.5-5.9,0.2-12.3-3.8-16.7c-2.6-2.8-6.2-5.2-10.3-4.4
			c-2.5,0.5-4.9,2.1-6.4,4.2c-1.5,2.1-2.2,4.5-2.4,6.9c-0.4,6.5,3.4,12.6,9.4,15.1C147.2,239.6,150,240,152.6,239.1z"/>
		<path class="st2" d="M232.4,202.5c5.6-2.3,13.7-6.3,16-12.3c2.1-5.2,1.5-11-0.5-16.1c-1.6-4.1-3.3-8.3-7-10.7
			c-6.2-4-14.5-2.3-21.7-0.3l-6.8,5.5c-5,4.4-7.8,10.2-6.5,17c0.7,4.1,8.6,15.5,16.4,17.3C225.4,203.7,229.4,203.7,232.4,202.5z"/>
		<path class="st8" d="M228.6,194.3c2.7,0.4,5.7-0.1,7.9-1.9c2.1-1.7,3.2-4.3,3.6-6.8c1-6.5-2.1-13-7.8-16c-2.1-1.1-4.6-1.8-7.1-1.6
			c-2.6,0.2-5.2,1.2-7,3.2c-2.8,3.1-2.7,7.5-1.7,11C218.1,187.9,222.3,193.3,228.6,194.3z"/>
		<path class="st8" d="M127.3,236.4c-1.9-6.8-0.7-13.4,5.3-21.4c3.7-4.8,10.3-8.3,16.3-9.2c4.1-0.5,9.5,1.1,14.4,5.2
			c1.5,1.3,3.1,0.1,2.8-1.1c-6-9.5-18.2-10.4-25-8.3c-10.3,3.1-18.6,12.9-19.3,24.9c-0.2,3.6,0.6,7.1,1.7,9
			C125,238.3,127.8,238.1,127.3,236.4z"/>
		<g>
			<path class="st8" d="M206,187.2c-0.8-6.3,0.7-11.8,3.2-14.9c3.9-4.6,10.3-8.4,16.4-9c10-0.9,16.3,1.6,21,6.8
				c1.2,1.3,2.8-0.9,1.3-3.7c-1-1.9-3.5-4.5-6.8-6.2c-10.6-5.7-23.2-3.8-31.3,3.3c-5.4,4.6-11.1,15.4-6.2,25.6
				C204.4,189.9,206.4,189.1,206,187.2z"/>
		</g>
	</g>
	<path class="st4" d="M140.9,181.6c-2.9-5.5-5.8-10.9-8.7-16.3c-0.7,1.6-1.4,3.1-2.1,4.7c-1.3-0.8-2.5-1.6-3.7-2.5
		c-12.9,6.2-24.5,15.1-33.7,26c5.6,4,10.9,8.4,15.7,13.2C117.8,196.7,128.8,188.3,140.9,181.6z"/>
	<path class="st4" d="M230.7,137.1c-1.6-6.7-2.6-13.5-3-20.4c-14.2,2.1-27.9,7.2-39.9,14.9c0.1,1.5,0.1,3,0.1,4.5
		c-1.7-0.2-3.4-0.5-5.1-0.7c3.1,5.4,6.2,10.6,9.2,16C204.1,144.8,217.1,139.9,230.7,137.1z"/>
	<g>
		<path class="st8" d="M234.1,289.5c3.3-2.4,6.3-4.4,8.4-9.1c-6.3,5-13.3,9-20.1,11.2C226.3,292.6,230.7,291.9,234.1,289.5z"/>
		<g>
			<path class="st8" d="M246,248.4c0-1,0.1-2.1,0-3.1c-0.2-1.9,0.2-4.1,0.9-6c0.1-0.4,0.3-0.7,0.7-0.9c0.7-0.2,1.2,0.6,1.9,0.5
				c0.5,0,0.9-0.7,0.8-1.2c-0.1-0.5-0.4-1-0.8-1.4c-0.4-0.5-0.8-1.1-1.2-1.6c-0.2-0.4-0.6-0.8-0.9-1c-0.4-0.2-0.9-0.3-1.3,0
				s-0.5,0.9-0.4,1.4c0.1,0.5,0.2,0.9,0.3,1.4c0,1.1-0.9,2-1.7,2.6c-0.3,0.2-3.3,2.1-3.4,2c1.7,3.5,3.4,7,5.1,10.6
				c-0.1-0.3,0-1.2,0-1.6C246.1,249.5,246.1,249,246,248.4z"/>
			<path class="st8" d="M181.7,276.8c0.4-0.5,0-1.5,0.5-1.9c0.3-0.2,0.7-0.2,1.1-0.1c1.9,0.5,4,1.1,5.5,2.3c0.8,0.6,1.8,1.2,2.6,1.7
				c0.5,0.3,1,0.6,1.4,0.9c0.3,0.2,1.1,0.5,1.3,0.9c-2.1-3.3-2.4-7.7-4.5-11.1c0.1,0.2-5,2.8-5.3,3c-1,0.4-2.2,0.6-3.1,0
				c-0.4-0.3-0.7-0.7-1-1c-0.3-0.3-0.9-0.5-1.3-0.4c-0.4,0.2-0.7,0.6-0.7,1.1s0.2,0.9,0.3,1.3c0.3,0.6,0.5,1.2,0.8,1.9
				c0.2,0.5,0.4,1,0.8,1.4C180.6,277.1,181.3,277.2,181.7,276.8z"/>
			<g>
				<g>
					<g>
						<path class="st8" d="M198.7,284.6c2.4,1.2,5.1,2.2,8,2.8c6.6,1.2,14.8,0.2,24.5-5.1c4.6-2.6,8.1-5.5,10.5-8.7
							c3.8-4.9,5.5-9.8,5.3-14.9c-0.2-6.1-0.3-8.3-1.1-13.4c-0.4-2.1-1.5-4.9-3.4-5c-0.3,0-2.8,1.3-3.9,1.9L190.2,269
							c-2.9,1.6-3.9,5.9-1.4,8C190.8,278.6,197.8,284.1,198.7,284.6z"/>
					</g>
				</g>
				<g>
					<g>
						<path class="st2" d="M198.3,274.2c8.5-1.8,32.9-12.8,40.8-22.3c2.5-3,1.9-5.9-0.2-9.7l-48.7,27
							C192,272.7,194.8,274.4,198.3,274.2z"/>
					</g>
				</g>
				<g>
					<g>
						<path class="st9" d="M241.7,273.5c-2.4-2.9-10.5-5.6-22.8,0c-13.2,6-12.2,13.3-12.1,13.8c6.6,1.2,14.8,0.2,24.5-5.1
							C235.8,279.6,239.2,276.7,241.7,273.5z"/>
					</g>
				</g>
			</g>
		</g>
	</g>
	<path d="M87.7,239.5c2.3,0.4,4,2.3,5.7,3.9c0.8,0.9,1.7,2.4,3.3,1.5c2.1-1.1,2.9,0.2,3.9,1.7c3.4,4.8,7.3,9.1,11.7,12.8
		c14.7,12.3,31.3,13.2,47.9,2.7c15.2-9.5,21-25,16.5-43.2c-1.3-5.2-3.5-10-5.9-14.7c-1.9-3.8-2.7-8.5-0.9-11.8
		c5.7-10.8,19.3-10.9,25.9-0.7c2.3,3.6,4.9,7.1,7.7,10.4c12.4,14.2,29,18,45.9,10.5c17.7-7.9,26.3-23,23.6-42.1
		c-0.6-3.7-1.7-7.4-2.4-11.2c-0.7-3.8-5.4-7.2-0.7-11.4c0.2-0.2-0.2-1.3-0.3-1.9c-0.7-3.1-0.7-6.1,0-9.4c1.2-5.4-4.4-10.3-9.5-8.8
		c-7.2,2.1-14.2,4.7-20.9,8c-20.2,10-39.7,20.7-52.8,40.1c-0.3,0.5-0.8,1.2-1.4,1.3c-11.2,3.1-19.7,12-32.5,13
		c-14.4,1.1-27.5,8.4-35.1,12.7c-16,8.8-26.1,16-35.4,24.3c-1.2,1.1-3,2.1-1.9,4C82,234.5,82.7,238.7,87.7,239.5z M204.3,162.9
		c10-8.9,21.3-15.9,33.9-20.4c12.8-4.6,23.6,0.8,28.1,13.5c2,5.8,3.6,11.7,4.1,17.9c1,15.3-5.5,26.6-14,31.4
		c-23,12.7-41.6,8.3-54-9.3c-0.5-0.7-0.9-1.4-1.4-2.1C192,181.3,192.6,173.4,204.3,162.9z M105,217.5c12.6-11.1,27.2-18.3,43.7-21.4
		c10.1-1.9,15.9,1.7,20.3,11c1.6,3.3,3,6.7,4.1,10.1c5.9,18.6-0.2,34.3-17.1,44.1c-16.8,9.6-34.8,5.5-49-11.3
		c-2.1-2.4-4-4.9-5.5-7.6C96.3,233.1,97.2,224.4,105,217.5z"/>
</g>
</svg>
