<?xml version="1.0" encoding="utf-8"?>
<!-- Generator: Adobe Illustrator 20.1.0, SVG Export Plug-In . SVG Version: 6.00 Build 0)  -->
<svg version="1.1" id="Calque_1" xmlns="http://www.w3.org/2000/svg" xmlns:xlink="http://www.w3.org/1999/xlink" x="0px" y="0px"
	 viewBox="0 0 158.3 282.3" style="enable-background:new 0 0 158.3 282.3;" xml:space="preserve">
<style type="text/css">
	.st0{fill:#808080;}
	.st1{fill:#3A332D;}
	.st2{fill:#EFC4A0;}
	.st3{fill:#FFFFFF;}
	.st4{fill:#F9DAB4;}
	.st5{fill:#EA9628;}
	.st6{fill:#E08A22;}
	.st7{fill:#F4D3B0;}
	.st8{fill:#EDA672;}
	.st9{fill:#4C0C0A;}
</style>
<g>
	<g>
		<path class="st0" d="M57,175.1l-5.7,74.4h17.6l6.9-52.6h5.2l6.9,52.6h15.9c-1.2-25.2-5.2-49.8-10.7-74.2L57,175.1z"/>
		<path class="st0" d="M100,175.2l-2.5,0c1,2.9,2.1,5.8,3.2,8.7L100,175.2z"/>
		<path class="st0" d="M97.5,175.2l-4.4,0c5.5,24.5,9.5,49.1,10.7,74.2h1.6l-4.7-65.6C99.6,181,98.5,178.1,97.5,175.2z"/>
	</g>
</g>
<g>
	<g>
		<path class="st1" d="M96.3,241.1h-0.2c-5.4,0-9.8,4.5-9.8,9.9v0.2c0,1.8,1.4,3.2,3.1,3.2h13.5c0.4,0,0.7-0.1,1-0.2
			c-0.1-3.3-0.3-6.6-0.5-9.9C101.7,242.3,99.1,241.1,96.3,241.1z"/>
		<path class="st1" d="M103.9,254.3c1.2-0.4,2.1-1.6,2.1-3V251c0-2.6-1-4.9-2.6-6.7C103.7,247.6,103.8,250.9,103.9,254.3z"/>
	</g>
</g>
<g>
	<g>
		<path class="st1" d="M60.6,241.1h-0.2c-5.4,0-9.8,4.5-9.8,9.9v0.2c0,1.8,1.4,3.2,3.1,3.2h13.5c1.7,0,3.1-1.4,3.1-3.2V251
			C70.4,245.5,66,241.1,60.6,241.1z"/>
	</g>
</g>
<g>
	<g>
		<path class="st2" d="M53.7,178.9c0,0-0.7,3.5,2.6,4c-0.5-0.7-0.9-1.2-0.9-1.3C55.4,181.6,54.2,181.2,53.7,178.9z"/>
	</g>
</g>
<g>
	<g>
		<path class="st2" d="M103.2,178.9c-0.5,2.3-1.7,2.7-1.7,2.7c-0.1,0.1-0.5,0.6-0.9,1.3C103.9,182.4,103.2,178.9,103.2,178.9z"/>
	</g>
</g>
<g>
	<g>
		<path class="st3" d="M82.8,134.1l-0.3,0.7c0.4,0.8,0.8,1.7,1.2,2.5C83.4,136.3,83.1,135.2,82.8,134.1z"/>
		<path class="st3" d="M82.5,134.9l-4,8.6L67.1,119h-2.2c0,0-6.8,19.7-7.9,58.1c0,0,9.6,1.9,21.5,1.9c0,0,0,0,0,0s0,0,0,0
			c6,0,11.4-0.5,15.3-1c-3-13.6-6.4-27.1-10-40.7C83.3,136.6,82.9,135.7,82.5,134.9z"/>
		<path class="st3" d="M98.3,177.5c1-0.2,1.6-0.3,1.6-0.3C98.8,138.7,92,119,92,119h-2.2l-7,15.1c0.3,1.1,0.6,2.2,0.9,3.3
			c1.9,4.1,3.8,8.2,5.3,12.6C91.9,159.3,95,168.4,98.3,177.5z"/>
		<path class="st3" d="M98.3,177.5c-3.3-9-6.4-18.2-9.3-27.5c-1.6-4.3-3.4-8.5-5.3-12.6c3.6,13.6,7.1,27.1,10,40.7
			C95.7,177.9,97.2,177.6,98.3,177.5z"/>
	</g>
</g>
<g>
	<g>
		<path class="st4" d="M54.8,140.4c-2.1,7.7-2.7,17.3-3.4,27.4c0,0-1.2,1.3-1.4,2.8c-0.1,0.5-1.4,6,0.7,10.7
			c2.1,4.7,4.3,7.5,6.9,6.6c2.5-0.9-1.5-5.8-1.7-6.2c0,0,1.2,0.6,1.6-0.3c0.4-0.8,0.7-7.3-0.1-11.1l3.2-28.9L54.8,140.4z"/>
	</g>
</g>
<g>
	<g>
		<path class="st4" d="M99.4,181.4c0.1,0.2,0.3,0.3,0.4,0.4c-0.2-0.6-0.5-1.3-0.7-1.9C99.2,180.6,99.3,181.2,99.4,181.4z"/>
		<path class="st4" d="M106.2,181.2c2.1-4.7,0.8-10.2,0.7-10.7c-0.2-1.5-1.4-2.8-1.4-2.8c-0.7-10-1.3-19.7-3.4-27.4l-5.7,1l3.2,28.9
			c-0.7,2.8-0.6,7.2-0.4,9.6c0.2,0.6,0.5,1.3,0.7,1.9c0.5,0.2,1.2-0.1,1.2-0.1c-0.1,0.1-0.4,0.5-0.8,1.1c0.6,1.6,1.2,3.1,1.7,4.7
			C103.4,186.4,104.8,184.2,106.2,181.2z"/>
		<path class="st4" d="M100.2,182.7c-1.1,1.6-2.8,4.4-0.9,5.1c0.9,0.3,1.8,0.2,2.7-0.4C101.4,185.9,100.8,184.3,100.2,182.7z"/>
	</g>
</g>
<g>
	<g>
		<path class="st3" d="M66.7,120l-2.2,0.3c0,0-10.8,13.7-11.5,20.6c0,0,4.6,3.2,12.8,3.4h12.7h0h7c-0.6-2.3-1.2-4.5-1.8-6.8
			c-2.8-5.8-5.8-11.5-8.5-17.4H66.7z"/>
		<path class="st3" d="M78.5,120L78.5,120h-3.3c2.7,5.9,5.7,11.6,8.5,17.4c-1.6-5.8-3.1-11.6-4.8-17.4H78.5z"/>
		<path class="st3" d="M85.5,144.2h1.3c-1-2.3-2-4.6-3.1-6.8C84.3,139.7,84.9,141.9,85.5,144.2z"/>
		<path class="st3" d="M104,140.8c-0.7-6.8-11.5-20.6-11.5-20.6l-2.2-0.3H78.9c1.6,5.8,3.2,11.6,4.8,17.4c1.1,2.2,2.1,4.5,3.1,6.8
			h4.4C99.3,144,104,140.8,104,140.8z"/>
	</g>
</g>
<g>
	<g>
		<g>
			<path class="st5" d="M33.3,58.2c0,12.3,1.3,21.1,1.3,21.1l31.1,15.7c-7.2-20.3-15-40.4-24.3-59.8C36.9,38.2,33.3,47.3,33.3,58.2z
				"/>
			<path class="st5" d="M61,55c-2-7-2-14-2-21C59,41,59,48,61,55c3.8,14.7,7.8,29.1,11.9,43.5l6.8,3.4l45-23.4
				c4.1-21.5-0.3-45.4-22.7-52.5c-41-13-55.7,8.1-55.7,8.1c-1.7-0.5-3.3-0.1-4.9,0.9c9.3,19.4,17.1,39.6,24.3,59.8l7.1,3.6
				C68.8,84.1,64.8,69.6,61,55z"/>
		</g>
	</g>
	<g>
		<g>
			<path class="st6" d="M48.2,50.6l-2.6,1.8c-5.6,3.8-8.9,10.1-8.9,16.9v16.5h25.9c-4.4-11.9-9-23.8-14-35.4
				C48.4,50.4,48.3,50.5,48.2,50.6z"/>
			<path class="st6" d="M61,55c-0.6-2.1-1-4.1-1.3-6.2c-3.8-1.2-7.9-0.6-11.3,1.6c5.1,11.6,9.7,23.5,14,35.4h6.8
				C66.5,75.6,63.7,65.3,61,55z"/>
			<path class="st6" d="M69.3,85.8h52.1V69.5c0-6.9-3.4-13.3-9.2-17.1l-2.9-1.9c-4.1-2.7-9.4-3-13.7-0.7l-13.4,7c-2,1-4.3,1-6.3,0
				l-13.9-7.1c-0.7-0.4-1.5-0.7-2.2-0.9c0.3,2.1,0.7,4.1,1.3,6.2C63.7,65.3,66.5,75.6,69.3,85.8z"/>
		</g>
	</g>
	<g>
		<g>
			<path class="st7" d="M32.7,77.6c-5.8,3,2.2,22.7,13.6,24.3l-2.7-20.8C43.7,81.1,38.5,74.6,32.7,77.6z"/>
		</g>
	</g>
	<g>
		<g>
			<path class="st7" d="M125.6,77.6c-5.8-3-11,3.5-11,3.5l-2.7,20.8C123.4,100.3,131.4,80.6,125.6,77.6z"/>
		</g>
	</g>
	<g>
		<g>
			<path class="st4" d="M53.7,62.9c-0.7,0.3-1.4,0.7-2.1,1.1l-10.2,7v24.4c0,5.8,2.7,11.3,7.3,14.9l7,5.4c6.3,4.8,13.7,7.5,21.2,7.9
				c-2.1-4.4-4.1-8.8-5.8-13.5C65.6,94.2,60,78.4,53.7,62.9z"/>
			<path class="st4" d="M79.9,123.5c-5.5-20-11.4-40.1-16.8-60.6c-3-1.3-6.4-1.3-9.4,0C60,78.4,65.6,94.2,71,110
				c1.7,4.7,3.7,9.1,5.8,13.5C77.8,123.5,78.9,123.5,79.9,123.5z"/>
			<path class="st4" d="M102.4,115.5l7-5.4c4.6-3.5,7.3-9,7.3-14.9V71L106,63.9c-3.7-2.4-8.3-2.6-12.2-0.6l-11.9,6.2
				c-1.8,0.9-3.8,0.9-5.6,0l-12.4-6.3c-0.2-0.1-0.5-0.2-0.8-0.3c5.4,20.5,11.3,40.6,16.8,60.6C87.8,123.3,95.8,120.7,102.4,115.5z"
				/>
		</g>
	</g>
</g>
<g>
	<path class="st8" d="M79.6,104.4c0.4,0.2,0.9,0.4,1.4,0.4c0.8,0,1.4-0.4,2-0.9c1-0.7,2.9-1.8,2.3-2.7c-1.5-0.8-5.1-0.7-7.8-0.3
		c-0.4,0.1-0.7,0.1-1,0.3c-0.3,0.2-0.2,0.6-0.1,0.9C77.2,102.9,78.3,103.7,79.6,104.4z"/>
	<path class="st5" d="M57.7,79c0.8,0,1.5,0.1,2.3,0.2c-0.8-2-1.5-4.1-2.3-6.1C57.9,75.1,57.9,77,57.7,79z"/>
	<path class="st5" d="M65.9,73.3c-2.7-0.7-5.4-1-8.2-1c0,0.3,0,0.5,0.1,0.8c0.8,2,1.6,4.1,2.3,6.1c2.7,0.3,5.3,0.8,7.9,1.5
		C67.2,78.2,66.5,75.7,65.9,73.3z"/>
	<path class="st5" d="M70.9,81.7c0.7-1.9,1.4-3.7,2.2-5.6c-0.5,0.2-1.1,0.3-1.6,0.5c-0.1-0.5-0.1-1-0.2-1.5
		c-1.8-0.8-3.6-1.4-5.4-1.8c0.7,2.5,1.4,5,2,7.4C68.9,81,69.9,81.3,70.9,81.7z"/>
	<path class="st5" d="M104.1,78.6c-0.2-2.2-0.2-4.5,0.1-6.7c-4.7,0-9.3,0.9-13.6,2.8c-0.1,0.5-0.1,1-0.2,1.5
		c-0.5-0.2-1.1-0.3-1.6-0.5c0.7,1.9,1.4,3.7,2.2,5.6C94.6,79.9,99.4,78.8,104.1,78.6z"/>
	<g>
		<path class="st8" d="M79.7,104.5c0.4,0.2,0.9,0.4,1.4,0.4c0.8,0,1.4-0.4,2-0.9c1-0.7,2.9-1.8,2.3-2.7c-1.5-0.8-5.1-0.7-7.8-0.3
			c-0.4,0.1-0.7,0.1-1,0.3c-0.3,0.2-0.2,0.6-0.1,0.9C77.3,103.1,78.4,103.9,79.7,104.5z"/>
		<path class="st3" d="M59,88.9c-0.7,1.1-0.5,2.5-0.3,3.8c0.3,2,0.9,2.8,3,2.8c1.4,0,2.9,0.1,4.3,0.1c0,0,0,0,0.1,0
			c-1.1-3.1-2.2-6.2-3.3-9.3C61.1,86.9,59.7,87.6,59,88.9z"/>
		<path class="st3" d="M70.2,95.2c0.6-0.3,1-0.7,1.4-1.2c-0.7-2.5-1.4-4.9-2.1-7.4c-0.5-0.2-1.1-0.4-1.6-0.5l-2.8-0.4
			c-0.8,0.2-1.6,0.4-2.4,0.7c1.1,3.1,2.2,6.2,3.3,9.3C67.5,95.7,68.9,95.7,70.2,95.2z"/>
		<path class="st3" d="M72.6,89.9c-0.4-1.5-1.6-2.6-3-3.2c0.7,2.5,1.4,4.9,2.1,7.4C72.5,92.8,73,91.2,72.6,89.9z"/>
		<path class="st9" d="M69.5,94.4c0.8-0.6,1.3-1.4,1.6-2.3c-0.6-2.1-1.2-4.2-1.8-6.3c-0.2-0.1-0.3-0.2-0.5-0.2
			c-0.9-0.3-1.9-0.2-2.7,0.2c-0.8,0.4-1.4,1-1.9,1.7c-0.3,0.4-0.5,0.9-0.6,1.4c0.7,2,1.4,3.9,2.1,5.9c0.3,0.2,0.7,0.4,1.1,0.4
			C67.8,95.4,68.8,95,69.5,94.4z"/>
		<path class="st9" d="M64.6,93.7c0.3,0.4,0.7,0.8,1.2,1c-0.7-2-1.4-3.9-2.1-5.9C63.1,90.5,63.5,92.4,64.6,93.7z"/>
		<path class="st9" d="M71.2,88.7c-0.3-1.1-0.8-2.3-1.9-2.9c0.6,2.1,1.2,4.2,1.8,6.3C71.5,91,71.5,89.8,71.2,88.7z"/>
		<g>
			<path class="st3" d="M90.1,95.3c0.6,0.2,1.3,0.2,2,0.3c2.1,0.1,4.3,0.1,6.4,0.2c1,0,1.7,0,2.3-0.7c0.6-0.8,1-1.8,1.2-2.8
				c0.2-1.2,0.4-2.5-0.3-3.6c-1.1-1.8-3.8-2.5-6.1-3l-2.8,0.4c-2.1,0.4-3.8,1.4-4.6,3.3C87.5,91,88.1,94.7,90.1,95.3z"/>
			<path class="st9" d="M95.1,94.4c0.7,0.6,1.8,0.9,2.7,0.8c0.9-0.2,1.7-0.8,2.2-1.5c1.4-1.8,1.5-4.3,0.3-6.2
				c-0.5-0.7-1.1-1.3-1.9-1.7c-0.8-0.4-1.8-0.5-2.7-0.2c-1.4,0.5-2.1,1.8-2.4,3.1C92.9,90.7,93.3,93.1,95.1,94.4z"/>
			<path class="st9" d="M88.3,90.5c0.7-1.9,2.1-3.3,3.3-3.8c1.8-0.7,4.3-0.8,6.1,0c3,1.3,4.4,3,4.9,5.3c0.1,0.6,1,0.2,1-0.9
				c0-0.7-0.3-1.8-0.9-2.8c-2.1-3.3-6-4.8-9.4-4c-2.3,0.5-5.6,2.6-5.8,6.3C87.4,91,88.1,91.1,88.3,90.5z"/>
		</g>
		<path class="st9" d="M58,88.4c-0.6,1-0.9,2.1-0.9,2.8c0,1,0.8,1.4,1,0.9c0.5-2.2,1.9-3.9,4.9-5.2c-0.2-0.7-0.5-1.3-0.7-2
			C60.5,85.6,59,86.7,58,88.4z"/>
		<path class="st9" d="M69,86.8c0.2,0.1,0.4,0.2,0.7,0.4c-0.2-0.7-0.4-1.5-0.6-2.2c-0.6-0.3-1.1-0.5-1.6-0.6
			c-1.7-0.4-3.6-0.2-5.3,0.5c0.2,0.6,0.5,1.3,0.7,2c0,0,0,0,0.1,0C64.7,86,67.2,86,69,86.8z"/>
		<path class="st9" d="M72.3,90.5c0.2,0.6,0.9,0.5,1,0.1c-0.2-2.9-2.2-4.8-4.2-5.8c0.2,0.7,0.4,1.5,0.6,2.2
			C70.7,87.8,71.7,88.9,72.3,90.5z"/>
		<path class="st9" d="M78,116.7C78,116.7,78,116.7,78,116.7C78,116.7,78,116.7,78,116.7C78,116.7,78,116.7,78,116.7z"/>
		<path class="st9" d="M81.3,117.8c1.2-0.1,2.2-0.2,3.5-1.1c-2.3,0.4-4.7,0.4-6.8,0c0,0,0,0,0,0.1C78.9,117.5,80.1,118,81.3,117.8z"
			/>
		<path class="st9" d="M90.4,113.2c0.4,0.1,1,0.4,0.9,0.9c0.1,0,0.3,0,0.4,0c0.1-0.5,0.3-1.1,0.4-1.6c0-0.1,0.1-0.2,0-0.4
			s-0.1-0.2-0.2-0.3c-0.3-0.1-0.5,0.3-0.8,0.4c-0.3,0.1-0.6-0.1-0.9-0.1c-0.8-0.1-4.1-1-7.3-1.2c-2.2-0.2-4.4,0-6.6,0.4
			c0.1,0.3,0.2,0.6,0.3,1C81,111.4,85.5,111.5,90.4,113.2z"/>
		<path class="st9" d="M76.5,111.2c-1,0.2-2,0.5-2.9,0.9c-0.4,0.2-1,0.4-1.5,0.5c0.1,0.3,0.2,0.5,0.3,0.8c1.4-0.5,2.9-0.9,4.4-1.2
			C76.6,111.9,76.6,111.6,76.5,111.2z"/>
		<path class="st9" d="M70.9,112.7c-0.5,0-0.7-0.9-0.9-0.7c0,1.2,0.2,2.8,0.5,2.4c0.4-0.3,0.1-0.1,0.2-0.5c0.5-0.2,1-0.4,1.6-0.6
			c-0.1-0.3-0.2-0.5-0.3-0.8C71.6,112.7,71.2,112.8,70.9,112.7z"/>
	</g>
</g>
<path d="M68.3,82.1c-0.2-0.6-0.4-1.3-0.5-1.9c-2.8-0.5-5.4-0.5-7.2-0.5c-0.1,0-0.2,0-0.4,0c0.2,0.5,0.4,1,0.6,1.5
	C63.3,81.2,65.8,81.5,68.3,82.1z"/>
<path d="M72.8,98.4c-0.1-0.4-0.2-0.8-0.3-1.2c-1.1,1.8-2.6,3.2-4.5,4.1c0.1,0.3,0.2,0.6,0.3,0.9C70.1,101.3,71.7,100,72.8,98.4z"/>
<path d="M62.3,102.5c-6.3,0.1-10.8-3.9-12.2-11c-0.2-1-0.4-2-0.4-3.1c0-3.4,1.6-5.8,5-6.5c2-0.4,4.1-0.7,6.1-0.7
	c-0.2-0.5-0.4-1-0.6-1.5c-5.7,0-9.7,0.4-13.6,1.3c-0.5,0.1-1.2,0.1-1.2,0.9c0,1.2-0.4,2.6,0.9,3.6c0.6,0.5,0.8,1.3,1,2
	c0.1,0.4,0.1,0.9,0.7,0.9c0.8,0,0.8,0.5,0.8,1.1c0.2,1.9,0.6,3.7,1.3,5.5c2.2,5.8,6.8,8.7,13.2,8.4c1.8-0.1,3.5-0.5,4.9-1.2
	c-0.1-0.3-0.2-0.6-0.3-0.9C66.4,102,64.5,102.5,62.3,102.5z"/>
<path d="M70.6,82.8c3.2,1.1,4.3,3,4.1,6.4c-0.1,1.2-0.2,2.4-0.5,3.5c-0.3,1.7-0.9,3.2-1.7,4.5c0.1,0.4,0.2,0.8,0.3,1.2
	c0.9-1.3,1.6-2.9,2.1-4.7c0.5-1.7,0.6-3.4,0.7-5.1c0.1-1.4,0.6-2.8,1.6-3.5c3.3-2.2,7.2-0.1,7.5,3.9c0.1,1.4,0.3,2.8,0.5,4.2
	c1.3,6,5.4,9.7,11.4,10.3c6.3,0.6,11.2-2.4,13.4-8.3c0.4-1.2,0.7-2.4,1.1-3.6c0.4-1.2-0.4-2.9,1.6-3.4c0.1,0,0.1-0.4,0.2-0.6
	c0.3-1,0.8-1.9,1.5-2.6c1.2-1.3,0.4-3.6-1.3-4c-2.4-0.5-4.8-0.9-7.2-1c-7.3-0.3-14.6-0.4-21.4,3.1c-0.2,0.1-0.4,0.2-0.6,0.1
	c-3.7-0.9-7.5,0.3-11.3-1.4c-1.6-0.7-3.2-1.2-4.9-1.5c0.2,0.6,0.3,1.3,0.5,1.9C69.1,82.3,69.8,82.5,70.6,82.8z M91.7,82.1
	c4.3-0.9,8.6-1.2,12.9-0.5c4.4,0.7,6.6,4,5.9,8.3c-0.3,2-0.8,3.9-1.7,5.7c-2.2,4.5-5.8,6.7-9,6.7c-8.6,0-13.2-4.2-14-11.2
	c0-0.3,0-0.5-0.1-0.8C85.3,85.4,86.7,83.3,91.7,82.1z"/>
</svg>
