<?xml version="1.0" encoding="utf-8"?>
<!-- Generator: Adobe Illustrator 20.1.0, SVG Export Plug-In . SVG Version: 6.00 Build 0)  -->
<svg version="1.1" id="Calque_1" xmlns="http://www.w3.org/2000/svg" xmlns:xlink="http://www.w3.org/1999/xlink" x="0px" y="0px"
	 viewBox="0 0 158.3 282.3" style="enable-background:new 0 0 158.3 282.3;" xml:space="preserve">
<style type="text/css">
	.st0{fill:#808080;}
	.st1{fill:#3A332D;}
	.st2{fill:#EFC4A0;}
	.st3{fill:#FFFFFF;}
	.st4{fill:#F9DAB4;}
	.st5{fill:#EA9628;}
	.st6{fill:#E08A22;}
	.st7{fill:#F4D3B0;}
	.st8{fill:#EDA672;}
	.st9{fill:#4C0C0A;}
</style>
<g>
	<g>
		<path class="st0" d="M101.4,220.8c0.8,1.3,1.6,2.6,2.5,3.8l-4-55.1l-11.6,0c1.9,6.8,3.9,13.6,6,20.3
			C98.4,199.8,95.4,210.8,101.4,220.8z"/>
		<path class="st0" d="M101.4,220.8c-6-10-3-21-7-31c-2.1-6.7-4.1-13.5-6-20.3l-31.4-0.1l-5.7,74.4h17.6l6.9-52.6h5.2l6.9,52.6h17.6
			l-1.4-19.1C103,223.3,102.2,222.1,101.4,220.8z"/>
	</g>
</g>
<g>
	<g>
		<path class="st1" d="M96.1,235.3h-0.2c-5.4,0-9.8,4.5-9.8,9.9v0.2c0,1.8,1.4,3.2,3.1,3.2h13.5c1.7,0,3.1-1.4,3.1-3.2v-0.2
			C105.9,239.8,101.5,235.3,96.1,235.3z"/>
	</g>
</g>
<g>
	<g>
		<path class="st1" d="M60.5,235.3h-0.2c-5.4,0-9.8,4.5-9.8,9.9v0.2c0,1.8,1.4,3.2,3.1,3.2h13.5c1.7,0,3.1-1.4,3.1-3.2v-0.2
			C70.3,239.8,65.9,235.3,60.5,235.3z"/>
	</g>
</g>
<g>
	<g>
		<path class="st2" d="M53.6,173.1c0,0-0.7,3.5,2.6,4c-0.5-0.7-0.9-1.2-0.9-1.3C55.3,175.8,54.1,175.4,53.6,173.1z"/>
	</g>
</g>
<g>
	<g>
		<path class="st2" d="M103.1,173.1c-0.5,2.3-1.7,2.7-1.7,2.7c-0.1,0.1-0.5,0.6-0.9,1.3C103.8,176.6,103.1,173.1,103.1,173.1z"/>
	</g>
</g>
<g>
	<g>
		<path class="st3" d="M78.3,137.8L67,113.3h-2.2c0,0-6.8,19.7-7.9,58.1c0,0,9.6,1.9,21.5,1.9c0,0,0,0,0,0s0,0,0,0
			c4,0,7.8-0.2,11-0.5c-3.5-12.1-6.8-24.4-10.3-36.6L78.3,137.8z"/>
		<path class="st3" d="M91.9,113.3h-2.2l-10.6,23c3.4,12.2,6.8,24.4,10.3,36.6c6.3-0.6,10.5-1.4,10.5-1.4
			C98.7,132.9,91.9,113.3,91.9,113.3z"/>
	</g>
</g>
<g>
	<g>
		<path class="st4" d="M54.7,134.6c-2.1,7.7-2.7,17.3-3.4,27.4c0,0-1.2,1.3-1.4,2.8c-0.1,0.5-1.4,6,0.7,10.7
			c2.1,4.7,4.3,7.5,6.9,6.6c2.5-0.9-1.5-5.8-1.7-6.2c0,0,1.2,0.6,1.6-0.3c0.4-0.8,0.7-7.3-0.1-11.1l3.2-28.9L54.7,134.6z"/>
	</g>
</g>
<g>
	<g>
		<path class="st4" d="M99.3,175.6c0.4,0.8,1.6,0.3,1.6,0.3c-0.2,0.4-4.3,5.3-1.7,6.2c2.5,0.9,4.8-1.8,6.9-6.6
			c2.1-4.7,0.8-10.2,0.7-10.7c-0.2-1.5-1.4-2.8-1.4-2.8c-0.7-10-1.3-19.7-3.4-27.4l-5.7,1l3.2,28.9
			C98.6,168.3,98.9,174.8,99.3,175.6z"/>
	</g>
</g>
<g>
	<g>
		<path class="st3" d="M66.6,114.2l-2.2,0.3c0,0-10.8,13.7-11.5,20.6c0,0,4.6,3.2,12.8,3.4h12.7h0h1.3c-2.3-8.1-4.6-16.2-7-24.2
			H66.6z"/>
		<path class="st3" d="M103.8,135c-0.7-6.8-11.5-20.6-11.5-20.6l-2.2-0.3H78.3h0h-5.7c2.4,8,4.7,16.1,7,24.2h11.4
			C99.2,138.3,103.8,135,103.8,135z"/>
	</g>
</g>
<g>
	<g>
		<g>
			<path class="st5" d="M33.2,52.4c0,12.3,1.3,21.1,1.3,21.1l29.7,15c-6.9-19.6-15.1-38.5-25.8-56.2C35.3,36.6,33.2,44,33.2,52.4z"
				/>
			<path class="st5" d="M124.6,72.7c4.1-21.5-0.3-45.4-22.7-52.5c-41-13-55.7,8.1-55.7,8.1c-2.8-0.8-5.5,0.7-7.8,3.8
				c10.7,17.7,18.9,36.6,25.8,56.2l15.3,7.7L124.6,72.7z"/>
		</g>
	</g>
	<g>
		<g>
			<path class="st6" d="M45.4,46.6c-5.6,3.8-8.9,10.1-8.9,16.9V80h24.7c-4.4-11.6-9.3-23-15-34L45.4,46.6z"/>
			<path class="st6" d="M121.3,63.7c0-6.9-3.4-13.3-9.2-17.1l-2.9-1.9c-4.1-2.7-9.4-3-13.7-0.7l-13.4,7c-2,1-4.3,1-6.3,0l-13.9-7.1
				c-4.4-2.2-9.7-1.9-13.8,0.9L46.2,46c5.7,11,10.6,22.3,15,34h60.1V63.7z"/>
		</g>
	</g>
	<g>
		<g>
			<path class="st7" d="M32.6,71.9c-5.8,3,2.2,22.7,13.6,24.3l-2.7-20.8C43.6,75.3,38.4,68.8,32.6,71.9z"/>
		</g>
	</g>
	<g>
		<g>
			<path class="st7" d="M125.5,71.9c-5.8-3-11,3.5-11,3.5l-2.7,20.8C123.3,94.5,131.3,74.9,125.5,71.9z"/>
		</g>
	</g>
	<g>
		<g>
			<path class="st4" d="M102.3,109.8l7-5.4c4.6-3.5,7.3-9,7.3-14.9V65.2l-10.7-7.1c-3.7-2.4-8.3-2.6-12.2-0.6l-11.9,6.2
				c-1.8,0.9-3.8,0.9-5.6,0l-12.4-6.3c-3.7-1.9-8.2-1.7-11.7,0.5C60.7,77,67.5,97,73.6,117.3C83.5,118.7,93.9,116.2,102.3,109.8z"/>
			<path class="st4" d="M51.5,58.2l-10.2,7v24.4c0,5.8,2.7,11.3,7.3,14.9l7,5.4c5.4,4.2,11.7,6.7,18.1,7.6C67.5,97,60.7,77,52,57.9
				C51.8,58,51.6,58.1,51.5,58.2z"/>
		</g>
	</g>
</g>
<g>
	<path class="st8" d="M78.2,99.1c0.4,0.2,0.9,0.4,1.4,0.4c0.8,0,1.4-0.4,2-0.9c1-0.7,2.9-1.8,2.3-2.7c-1.5-0.8-5.1-0.7-7.8-0.3
		c-0.4,0.1-0.7,0.1-1,0.3c-0.3,0.2-0.2,0.6-0.1,0.9C75.8,97.7,76.9,98.5,78.2,99.1z"/>
	<g>
		<path class="st3" d="M58.2,83.3c-0.7,1.3-0.5,2.7-0.3,4.2c0.2,1.8,1,3.5,2.4,4.7c1.4,1.1,3.7,1.2,5.6,1c-1.4-4.2-2.9-8.4-4.5-12.5
			C60.1,81.2,58.9,82,58.2,83.3z"/>
		<path class="st3" d="M69.8,91.5c1.9-1.8,2.4-6.2,1.9-7.5c-0.7-2.1-2.5-3.3-4.6-3.8l-2.8-0.5c-1,0.2-2,0.5-2.9,0.9
			c1.6,4.1,3,8.3,4.5,12.5c0.3,0,0.6-0.1,0.9-0.1C67.9,92.9,69,92.3,69.8,91.5z"/>
		<path class="st9" d="M68.1,84.7c-0.3-1.2-0.9-2.4-2.2-2.9c-0.8-0.3-1.7-0.2-2.5,0.2c-0.4,0.2-0.8,0.5-1.1,0.8
			c1,2.6,1.9,5.2,2.8,7.9c0.5-0.1,1.1-0.3,1.5-0.7C68.2,88.8,68.6,86.6,68.1,84.7z"/>
		<path class="st9" d="M61.6,83.6c-1.1,1.8-1,4.1,0.3,5.8c0.5,0.6,1.2,1.2,2.1,1.4c0.4,0.1,0.7,0,1.1-0.1c-0.9-2.6-1.9-5.3-2.8-7.9
			C62,83.1,61.8,83.4,61.6,83.6z"/>
		<path class="st3" d="M92.6,93c1.9,0.2,4.9,0.4,6.5-1c1.4-1.2,2.2-2.9,2.4-4.7c0.2-1.4,0.4-2.9-0.3-4.2c-1.1-2.1-3.8-2.9-6.1-3.5
			l-2.8,0.5c-2.1,0.5-3.8,1.7-4.6,3.8c-0.4,1.3,0,5.8,1.9,7.5C90.4,92.3,91.5,92.9,92.6,93z"/>
		<path class="st9" d="M92.8,90.1c0.7,0.5,1.6,0.9,2.5,0.7c0.9-0.1,1.6-0.7,2.1-1.4c1.3-1.7,1.4-4,0.3-5.8c-0.4-0.7-1-1.2-1.8-1.6
			c-0.8-0.4-1.7-0.5-2.5-0.2c-1.3,0.4-2,1.7-2.2,2.9C90.8,86.6,91.1,88.8,92.8,90.1z"/>
		<path class="st9" d="M57.2,82.3c-0.6,1-0.9,2.1-0.9,2.8c0,1,0.8,1.4,1,0.9c0.5-2.1,1.8-3.7,4.4-5c-0.2-0.6-0.5-1.3-0.7-1.9
			C59.4,79.8,58.1,80.9,57.2,82.3z"/>
		<path class="st9" d="M68.2,80.7c1.2,0.5,2.5,1.8,3.3,3.8c0.2,0.6,0.9,0.5,1,0.1c-0.2-3.7-3.6-5.8-5.8-6.3c-1.9-0.4-4-0.1-5.8,0.8
			c0.2,0.6,0.5,1.3,0.7,1.9c0.2-0.1,0.4-0.2,0.6-0.3C63.9,79.9,66.4,80,68.2,80.7z"/>
		<g>
			<path class="st9" d="M87.5,84.5c0.7-1.9,2.1-3.3,3.3-3.8c1.8-0.7,4.3-0.8,6.1,0c3,1.3,4.4,3,4.9,5.3c0.1,0.6,1,0.2,1-0.9
				c0-0.7-0.3-1.8-0.9-2.8c-2.1-3.3-6-4.8-9.4-4c-2.3,0.5-5.6,2.6-5.8,6.3C86.6,85,87.3,85.1,87.5,84.5z"/>
		</g>
	</g>
	<path class="st5" d="M54.1,69.2c1,2,1.8,4.1,2.4,6.3c0.9-0.3,1.8-0.5,2.6-0.7c-0.8-2.1-1.7-4.2-2.6-6.3
		C55.8,68.6,54.9,68.9,54.1,69.2z"/>
	<path class="st5" d="M69.9,67.4c-0.4,0.3-0.9,0.7-1.3,1c-0.2-0.4-0.5-0.9-0.7-1.3c-3.8-0.2-7.7,0.2-11.3,1.3
		c0.9,2.1,1.7,4.2,2.6,6.3c3.5-0.9,7.1-1.3,10.7-1.3C69.8,71.4,69.9,69.4,69.9,67.4z"/>
	<path class="st5" d="M102.9,76.4c0.6-2.2,1.4-4.3,2.4-6.3c-4.4-1.7-9.1-2.4-13.7-2.1c-0.2,0.4-0.5,0.9-0.7,1.3
		c-0.4-0.3-0.9-0.7-1.3-1c0,2,0.1,4,0.1,6C94.1,74.3,98.6,75,102.9,76.4z"/>
	<g>
		<path class="st9" d="M79.7,113.1c1.2-0.1,2.2-0.2,3.5-1.1c-2.4,0.4-4.8,0.4-6.8,0C77.3,112.7,78.5,113.2,79.7,113.1z"/>
		<path class="st9" d="M69.4,105.2c-0.1,0-0.3,0-0.4,0c-0.1,0.5-0.3,1.1-0.4,1.6c0,0.1-0.1,0.2,0,0.4c0,0.1,0.1,0.2,0.2,0.3
			c0.3,0.1,0.5-0.3,0.8-0.4c0.3-0.1,0.6,0.1,0.9,0.1c0,0,0.1,0,0.1,0c-0.1-0.4-0.3-0.8-0.4-1.2C69.7,105.9,69.3,105.6,69.4,105.2z"
			/>
		<path class="st9" d="M87.2,107.1c0.7-0.3,1.8-0.7,2.6-0.6c0.5,0,0.7,0.9,0.9,0.7c0-1.2-0.2-2.7-0.5-2.4c-0.4,0.3-0.1,0.1-0.2,0.5
			c-6,2.4-12.4,3.2-19.7,0.8c-0.1,0-0.1,0-0.2-0.1c0.1,0.4,0.3,0.8,0.4,1.2c1,0.2,4.1,1,7.2,1.2C80.9,108.7,84.2,108.3,87.2,107.1z"
			/>
	</g>
</g>
<path d="M74,89.3c0.5-1.7,0.6-3.4,0.7-5.1c0.1-1.4,0.6-2.8,1.6-3.5c3.3-2.2,7.2-0.1,7.5,3.9c0.1,1.4,0.3,2.8,0.5,4.2
	c1.3,6,5.4,9.7,11.4,10.3c6.3,0.6,11.2-2.4,13.4-8.3c0.4-1.2,0.7-2.4,1.1-3.6c0.4-1.2-0.4-2.9,1.6-3.4c0.1,0,0.1-0.4,0.2-0.6
	c0.3-1,0.8-1.9,1.5-2.6c1.2-1.3,0.4-3.6-1.3-4c-2.4-0.5-4.8-0.9-7.2-1c-7.3-0.3-14.6-0.4-21.4,3.1c-0.2,0.1-0.4,0.2-0.6,0.1
	c-3.7-0.9-7.5,0.3-11.3-1.4c-4.3-2-9.2-1.9-12-2c-0.1,0-0.2,0-0.3,0c0.2,0.5,0.4,1,0.6,1.5c3.3,0,6.5,0.5,9.7,1.5
	c3.2,1.1,4.3,3,4.1,6.4c-0.1,1.2-0.2,2.4-0.5,3.5c-0.8,4.1-3,7-6.2,8.6c0.1,0.3,0.2,0.6,0.3,0.9C70.7,96.3,72.9,93.4,74,89.3z
	 M90.8,77.8c4.3-0.9,8.6-1.2,12.9-0.5c4.4,0.7,6.6,4,5.9,8.3c-0.3,2-0.8,3.9-1.7,5.7c-2.2,4.5-5.8,6.7-9,6.7
	c-8.6,0-13.2-4.2-14-11.2c0-0.3,0-0.5-0.1-0.8C84.4,81,85.8,78.9,90.8,77.8z"/>
<path d="M61.4,98.1c-6.3,0.1-10.8-3.9-12.2-11c-0.2-1-0.4-2-0.4-3.1c0-3.4,1.6-5.8,5-6.5c2-0.4,4.1-0.7,6.1-0.7
	c-0.2-0.5-0.4-1-0.6-1.5c-5.8,0-9.7,0.4-13.6,1.3c-0.5,0.1-1.2,0.1-1.2,0.9c0,1.2-0.4,2.6,0.9,3.6c0.6,0.5,0.8,1.3,1,2
	c0.1,0.4,0.1,0.9,0.7,0.9c0.8,0,0.8,0.5,0.8,1.1c0.2,1.9,0.6,3.7,1.3,5.5c2.2,5.8,6.8,8.7,13.2,8.4c1.8-0.1,3.5-0.5,5-1.2
	c-0.1-0.3-0.2-0.6-0.3-0.9C65.5,97.6,63.6,98.1,61.4,98.1z"/>
</svg>
