<?xml version="1.0" encoding="utf-8"?>
<!-- Generator: Adobe Illustrator 20.1.0, SVG Export Plug-In . SVG Version: 6.00 Build 0)  -->
<svg version="1.1" id="Calque_1" xmlns="http://www.w3.org/2000/svg" xmlns:xlink="http://www.w3.org/1999/xlink" x="0px" y="0px"
	 viewBox="0 0 156 156" style="enable-background:new 0 0 156 156;" xml:space="preserve">
<style type="text/css">
	.st0{fill:#B2B2B2;}
	.st1{fill:#FEFEFE;}
</style>
<ellipse transform="matrix(1 -9.730982e-03 9.730982e-03 1 -0.7554 0.7627)" class="st0" cx="78" cy="78" rx="77.8" ry="77.8"/>
<g>
	<path class="st1" d="M120.4,48.2c-1.3,2.1-2.1,4.2-3.8,5.6c-0.9,0.8-1.6,2-2.9,2.3c-0.4,0.1-0.4,0.5-0.3,0.8
		c0.1,0.5,0.5,0.4,0.9,0.3c2.5-0.7,5.1-1.4,7.8-2.1c-2,2.7-4.2,5-6.7,7c-0.8,0.6-1.1,1.1-1,2.1c0.1,3.2,0.3,6.5-0.5,9.7
		c-0.8,3.1-1.3,6.2-2.6,9.2c-1.1,2.5-2.1,5-3.4,7.4c-1.5,2.7-3.4,5.1-5.3,7.5c-2.6,3.2-5.8,5.8-9.1,8.2c-1.7,1.2-3.6,2.3-5.5,3.2
		c-4.8,2.2-9.7,3.9-15,4.4c-6.5,0.6-12.9,0.6-19.2-0.9c-3.9-0.9-7.5-2.7-11.1-4.4c-0.2-0.1-0.4-0.5-0.6-0.8c3.8,0.1,7.4,0,10.9-1
		c2.5-0.7,5-1.7,7.3-3c1.7-1,3.3-2.1,5-3.1c0.4-0.2,0.6-0.4,0.5-0.8c-0.1-0.5-0.5-0.5-0.8-0.5c-1.5,0.1-2.9-0.2-4.3-0.6
		c-4.3-1.2-7.4-3.9-9.5-7.7c-0.5-0.8-1.3-1.4-1.3-2.5c2.5,0.5,6.3,0.1,7.8-1c-3.9-0.9-7.2-2.6-9.9-5.5c-2.8-3-3.7-6.6-4.5-10.7
		c2.8,1,5.2,2.2,8.3,1.7c-7.7-6.1-10.2-13.4-6.1-22.6c2.1,3,4.8,5.1,7.4,7.3c2.6,2.1,5.5,3.7,8.5,5.2c2.4,1.2,5,2,7.5,3
		c2.1,0.8,4.5,0.8,6.7,1.4c1.6,0.4,3.4-0.1,5,0.7c0.9,0.5,0.9-0.4,0.8-1.1c-0.4-2.4-0.6-4.9,0.1-7.3c1.3-4.3,3.5-7.9,7.5-10.4
		c5.1-3.2,10.4-3,15.8-1.2c1.6,0.5,3.2,1.6,4.4,2.9c0.5,0.6,1.1,0.9,1.9,0.8C114.1,51.2,116.9,49.5,120.4,48.2z"/>
</g>
</svg>
