<?xml version="1.0" encoding="utf-8"?>
<!-- Generator: Adobe Illustrator 20.1.0, SVG Export Plug-In . SVG Version: 6.00 Build 0)  -->
<svg version="1.0" id="Calque_1" xmlns="http://www.w3.org/2000/svg" xmlns:xlink="http://www.w3.org/1999/xlink" x="0px" y="0px"
	 viewBox="0 0 118 294.5" style="enable-background:new 0 0 118 294.5;" xml:space="preserve">
<style type="text/css">
	.st0{fill:#EA9628;}
	.st1{fill:#F9DAB4;}
	.st2{fill:#7F5732;}
	.st3{fill:#BDCCD4;}
	.st4{fill:#EFC4A0;}
	.st5{fill:#F4EFED;}
	.st6{fill:#E2DCD9;}
	.st7{fill:#C1272D;}
	.st8{fill:#F4D3B0;}
	.st9{fill:#E08A22;}
	.st10{fill:#EDA672;}
	.st11{fill:#FFFFFF;}
	.st12{fill:#4C0C0A;}
	.st13{fill:#E88567;}
	.st14{fill:#B2543F;}
</style>
<g>
	<g>
		<path class="st0" d="M65.5,126.1c6.8,28.9,14.4,55.1,23,82.9c1.4-1.1,2.8-2.3,4.2-3.7c28.6-27.8,0-73.1,0-73.1c2,0.5,4.9,0,4.9,0
			s-21.3-8-12.7-49.3c8.6-41.3-9.1-53.7-28.7-53.7c-19.6,0-28.6,12.4-35.2,29.3c0,0.1-0.1,0.2-0.1,0.3c9.4,12.3,19.3,24.4,28.6,37.2
			C56.5,106.1,62.5,115.1,65.5,126.1z"/>
		<path class="st0" d="M68.5,178.1c5,10,7,22,12,32c0.5,1,1.1,2,1.6,3.1c2.1-1.1,4.3-2.5,6.5-4.1c-8.6-27.8-16.3-54-23-82.9
			c-3-11-9-20-16-30C40.2,83.3,30.4,71.1,21,58.9c-0.6,1.7-1.1,3.5-1.3,5.6c7.5,19.3,14.2,39,20.9,58.6
			C47.5,143.1,59.5,159.1,68.5,178.1z"/>
		<path class="st0" d="M80.5,210.1c-5-10-7-22-12-32c-9-19-21-35-28-55c-6.7-19.7-13.4-39.3-20.9-58.6c-2.7,18.9,7.7,52.2,9.3,70.5
			c1.8,20.4-7.9,25.1-7.9,25.1c6.9,10.7,16.2,5.2,16.2,5.2c0.5,14.4-6.9,18.4-6.9,18.4c1.7,8.2,13.7,7.5,13.7,7.5
			c-3.2,7.3-9.1,7.3-9.1,7.3c0.9,2.9,22.5,27.3,47.1,14.7C81.6,212.1,81,211.1,80.5,210.1z"/>
	</g>
</g>
<g>
	<g>
		<path class="st1" d="M37.5,223.6c0,0,2.3,19.1,2.3,31.4s-0.3,17.6,4.6,17.6c5.7,0,5.2-4.9,5.2-17.4c0-12.5,2.1-31.6,2.1-31.6H37.5
			z"/>
	</g>
</g>
<g>
	<g>
		<path class="st2" d="M39.9,263.9c0.2,6,1.1,8.7,4.5,8.7c4.2,0,5-2.6,5.2-8.8c-1.4-0.7-3-1-4.7-1C43,262.8,41.3,263.2,39.9,263.9z"
			/>
	</g>
</g>
<g>
	<g>
		<path class="st1" d="M63.3,223.6c0,0,2.3,19.1,2.3,31.4s-0.3,17.6,4.6,17.6c5.7,0,5.2-4.9,5.2-17.4c0-12.5,2.1-31.6,2.1-31.6H63.3
			z"/>
	</g>
</g>
<g>
	<g>
		<path class="st2" d="M65.6,263.9c0.2,6,1.1,8.7,4.5,8.7c4.2,0,5-2.6,5.2-8.8c-1.4-0.7-3-1-4.7-1C68.8,262.8,67.1,263.2,65.6,263.9
			z"/>
	</g>
</g>
<g>
	<g>
		<path class="st0" d="M63,27.9l6.5,0.5c7.8-1.1,9.4-9.3,9.4-9.3c-0.7,0.5-3.5,1-3.5,1c-0.1-3.3,3.5-6.1,3.5-6.1
			c-4-1-5.3,1.8-5.3,1.8C72.1,11.5,76,9,76,9c-5.5-0.8-7.2,3.8-7.2,3.8c-1.2-2,0.4-7.5,0.4-7.5c-6.1,0.5-7.1,8.5-7.1,8.5
			c-3.3-1.3-2.2-5.6-2.2-5.6C51.5,21.3,63,27.9,63,27.9z"/>
	</g>
</g>
<g>
	<g>
		<path class="st2" d="M68.2,32.8c0,0,2.3,0.1,2.7-2.5c0.3-2.6-4.1-3.2-7.4-3.1c-3.3,0.1-2.5,2.2-2.5,2.2L68.2,32.8z"/>
	</g>
</g>
<g>
	<g>
		<path class="st3" d="M82.4,213.7c0.7-7.5,1.1-15.2,0.9-21.9c-1-3.4-2-6.7-3-10H70.2c3.8,9.2,5.9,19.5,10.3,28.3
			C81.1,211.3,81.8,212.5,82.4,213.7z"/>
		<path class="st3" d="M80.5,210.1c-4.4-8.8-6.5-19.1-10.3-28.3H32.4c-2.3,14.2,0.8,42.5,3.2,56.1h30.6h13.1
			c1.1-6,2.3-14.9,3.1-24.2C81.8,212.5,81.1,211.3,80.5,210.1z"/>
		<path class="st3" d="M82.5,181.8h-2.1c1,3.3,2,6.7,3,10C83.2,188.1,83,184.6,82.5,181.8z"/>
	</g>
</g>
<g>
	<g>
		<g>
			<g>
				<path class="st1" d="M36.7,191.7c0.4-0.8,0.7-7.4-0.4-11.2l-7-1.8c0,0-1.5,8.1,0.7,12.9c2.1,4.8,4.3,7.6,6.9,6.7
					c2.5-0.9-1.5-5.9-1.7-6.3C35.1,192,36.3,192.6,36.7,191.7z"/>
			</g>
		</g>
		<g>
			<g>
				<path class="st4" d="M33.4,189.2c0,0-0.7,3.5,2.6,4.1c-0.5-0.7-0.9-1.2-0.9-1.3C35.1,192,33.9,191.6,33.4,189.2z"/>
			</g>
		</g>
		<g>
			<g>
				<path class="st1" d="M75.9,198.2c-0.2-0.6-0.4-1.3-0.6-1.9C75,197.1,75.1,197.9,75.9,198.2z"/>
				<path class="st1" d="M82.8,191.6c0.1-0.2,0.2-0.4,0.2-0.6c-1.1-3.8-2.3-7.5-3.3-11.3l-3.2,0.8c-1.1,3.8-0.8,10.4-0.4,11.2
					c0.4,0.8,1.6,0.3,1.6,0.3c-0.1,0.3-2,2.6-2.4,4.3c0.2,0.6,0.4,1.3,0.6,1.9c0,0,0.1,0,0.1,0.1C78.5,199.2,80.7,196.4,82.8,191.6z
					"/>
				<path class="st1" d="M83.5,178.7l-3.8,1c1.1,3.8,2.2,7.5,3.3,11.3C84.8,186.1,83.5,178.7,83.5,178.7z"/>
			</g>
		</g>
		<g>
			<g>
				<path class="st4" d="M79.4,189.2c-0.5,2.3-1.7,2.7-1.7,2.7c-0.1,0.1-0.5,0.6-0.9,1.3C80.1,192.8,79.4,189.2,79.4,189.2z"/>
			</g>
		</g>
		<g>
			<g>
				<path class="st5" d="M79.9,180.2c4-0.9,6.8-3.4,6.8-3.4c-3-52-17.3-61.6-17.3-61.6h-8c1.7,3.5,3.1,7,4.1,10.8
					C69.9,144.9,74.7,162.5,79.9,180.2z"/>
				<path class="st5" d="M40.5,123.1c-0.3-0.8-0.5-1.6-0.8-2.4c-4.5,7.9-11.7,25-13.6,56.1c0,0,4.4,4,10.2,3.7l-0.3,1.9
					c0,0,10,1.2,20.4,1.2c0,0,0,0,0,0c0,0,0,0,0,0h0c5.3,0,10.5-0.3,14.3-0.6c-0.7-1.7-1.4-3.3-2.2-4.9
					C59.5,159.1,47.5,143.1,40.5,123.1z"/>
				<path class="st5" d="M76.5,180.5c1.2,0.1,2.3,0,3.4-0.3c-5.2-17.7-10-35.3-14.4-54.1c-1-3.8-2.4-7.4-4.1-10.8h-5h0h-13
					c0,0-1.5,1.7-3.7,5.5c0.3,0.8,0.5,1.6,0.8,2.4c7,20,19,36,28,55c0.8,1.6,1.5,3.2,2.2,4.9c3.7-0.3,6.1-0.6,6.1-0.6L76.5,180.5z"
					/>
			</g>
		</g>
		<g>
			<g>
				<path class="st6" d="M79.2,180.3c-0.1-1.3-0.3-2.8-0.5-4.3c-1.3-4.4-2.5-8.8-3.8-13.3c0.9,9.7,1.6,17.7,1.6,17.7
					C77.4,180.5,78.3,180.5,79.2,180.3z"/>
				<path class="st6" d="M71.5,131.8c0,0.2,0.1,0.5,0.1,0.8C71.6,132.1,71.5,131.8,71.5,131.8z"/>
				<path class="st6" d="M78.7,176c-1.9-14.4-6.1-38.6-7-43.4c0.8,5,2.2,18.7,3.2,30.1C76.1,167.2,77.4,171.6,78.7,176z"/>
			</g>
		</g>
		<g>
			<g>
				<path class="st6" d="M36.3,180.5c0,0,3.3-38.6,4.8-47.8c-0.9,5.3-6.1,34.5-7.5,47.7C34.5,180.5,35.4,180.5,36.3,180.5z"/>
				<path class="st6" d="M41.3,131.8c0,0-0.1,0.3-0.1,0.8C41.2,132.3,41.2,132.1,41.3,131.8z"/>
			</g>
		</g>
	</g>
	<g>
		<g>
			<path class="st7" d="M54.2,126.9h4.1c0.6,0,1.1-0.5,1.1-1.1v-2c0-0.6-0.5-1.1-1.1-1.1h-4.1c-0.6,0-1.1,0.5-1.1,1.1v2
				C53.1,126.4,53.6,126.9,54.2,126.9z"/>
		</g>
	</g>
	<g>
		<g>
			<path class="st7" d="M53.1,153.8l-0.6,9l3.8,6l3.8-5.8l-0.1-0.9c-2.3-4-4.6-8-6.8-12L53.1,153.8z"/>
			<path class="st7" d="M54.9,124.8l-1.6,25.3c2.2,4,4.5,8,6.8,12l-2.3-37.3H54.9z"/>
		</g>
	</g>
	<g>
		<g>
			<path class="st6" d="M56.3,122.1l6.5,6.4l2.1-4.2c-1-3.2-2.2-6.2-3.6-9.1h-18l6.4,13.3L56.3,122.1z"/>
			<path class="st6" d="M69.7,115.2h-8.3c1.4,2.9,2.6,5.9,3.6,9.1L69.7,115.2z"/>
		</g>
	</g>
</g>
<g>
	<g>
		<g>
			<path class="st8" d="M87.2,83.8c-4.1-3.2-8.4,2.1-8.4,2.1l-4.6,16.8C86.2,102.7,91.3,87.1,87.2,83.8z"/>
		</g>
	</g>
	<g>
		<g>
			<path class="st8" d="M25.3,83.8c-3.5,2.7-0.4,14.3,7.9,17.9c-2.2-6.2-4.3-12.4-6.6-18.6C26.2,83.3,25.7,83.5,25.3,83.8z"/>
			<path class="st8" d="M33.7,86c0,0-3.4-4.3-7-2.9c2.2,6.2,4.4,12.4,6.6,18.6c1.5,0.7,3.2,1.1,5.1,1.1L33.7,86z"/>
		</g>
	</g>
	<g>
		<g>
			<path class="st1" d="M63.4,119.8c11.6-5.5,20.2-24.1,20.2-46.3c0-6.8-1.7-16.5-7-19.8c-5.7-3.6-15.3-0.4-22.8,0.1
				c-11.4,0.7-22.2,6-24.4,15.9c6.8,8.6,13.6,17.3,20.1,26.3C55.2,104.1,60.1,111.5,63.4,119.8z"/>
			<path class="st1" d="M56.3,121.5c2.5,0,4.9-0.6,7.1-1.7c-3.3-8.3-8.3-15.7-13.9-23.8c-6.5-9-13.4-17.7-20.1-26.3
				c-0.3,1.2-0.4,2.5-0.4,3.8C29,100,41.2,121.5,56.3,121.5z"/>
		</g>
	</g>
	<g>
		<g>
			<path class="st9" d="M77.4,57c2.4,4.3,5.5,17.2,4.2,26.6c1-0.6,2.2-1,3.4-0.8c7.3-35.2-4.5-49.4-20.4-52.8L49.4,43.8l-1.1,13.9
				C48.3,57.7,74.9,52.4,77.4,57z"/>
		</g>
	</g>
	<g>
		<g>
			<path class="st0" d="M28.5,68.7l-0.5,14.1c0,0,3.5-1.1,8.3-4.1C33.7,75.3,31.1,72,28.5,68.7z"/>
			<path class="st0" d="M64.6,30.1L29,54.7l-0.5,13.9c2.6,3.3,5.2,6.6,7.8,10C46.3,72.5,62.1,58.5,64.6,30.1z"/>
		</g>
	</g>
</g>
<g>
	<path class="st10" d="M55.3,99.7c0.4,0.2,0.8,0.4,1.3,0.4c0.7,0,1.3-0.4,1.8-0.8c0.9-0.6,2.5-1.6,2-2.4c-1.3-0.7-4.4-0.6-6.8-0.2
		c-0.3,0.1-0.6,0.1-0.9,0.3c-0.3,0.2-0.2,0.5-0.1,0.8C53.2,98.4,54.1,99.1,55.3,99.7z"/>
	<path class="st11" d="M49,87c-0.6-1.9-2.2-2.9-4-3.3l-2.5-0.4c-0.7,0.2-1.4,0.4-2.1,0.6c2.4,3.1,4.8,6.3,7.1,9.5
		C49,91.7,49.3,88,49,87z"/>
	<path class="st11" d="M39,94c1.4,1.2,4,1,5.7,0.8c0.9-0.1,1.9-0.7,2.6-1.3c0.1-0.1,0.2-0.2,0.2-0.2c-2.4-3.2-4.7-6.3-7.1-9.5
		c-1.4,0.5-2.6,1.2-3.2,2.5c-0.6,1.1-0.4,2.4-0.3,3.6C37.1,91.5,37.7,93,39,94z"/>
	<path class="st12" d="M42.2,92.9c0.8,0.1,1.6-0.2,2.2-0.6c0.5-0.4,0.9-0.9,1.2-1.5c-1.4-1.8-2.7-3.6-4.1-5.4
		c-0.6,0.3-1,0.8-1.4,1.3c-1,1.6-0.9,3.6,0.3,5.1C40.9,92.3,41.5,92.8,42.2,92.9z"/>
	<path class="st12" d="M45.8,87.6c-0.2-1-0.8-2.1-2-2.5c-0.7-0.2-1.5-0.1-2.2,0.2c-0.1,0-0.1,0.1-0.2,0.1c1.4,1.8,2.8,3.6,4.1,5.4
		C46.1,89.8,46.1,88.6,45.8,87.6z"/>
	<path class="st12" d="M36.3,88.8c0.5-1.9,1.7-3.5,4.3-4.6c0,0,0,0,0,0c-0.4-0.5-0.7-1-1.1-1.5c-1.3,0.6-2.4,1.6-3.2,2.8
		c-0.6,0.9-0.8,1.8-0.8,2.5C35.5,88.9,36.2,89.3,36.3,88.8z"/>
	<path class="st12" d="M45.9,84.1c1.1,0.4,2.2,1.6,2.9,3.3c0.2,0.5,0.8,0.5,0.9,0.1c-0.2-3.2-3.1-5.1-5.1-5.5
		c-1.7-0.4-3.5-0.1-5.1,0.7c0.4,0.5,0.7,1,1.1,1.5C42.2,83.5,44.3,83.5,45.9,84.1z"/>
	<path class="st12" d="M36.4,87.6c-1.1,0.1-2.2,0.1-3.2,0.2c0.9,0.6,1.9,1.2,3,1.2C36.2,88.4,36.1,88,36.4,87.6z"/>
	<g>
		<path class="st11" d="M67,94.9c1.7,0.2,4.3,0.3,5.7-0.8c1.2-1,1.9-2.5,2.1-4.1c0.2-1.2,0.3-2.5-0.3-3.6c-1-1.9-3.3-2.6-5.4-3.1
			l-2.5,0.4c-1.8,0.4-3.4,1.5-4,3.3c-0.4,1.1,0,5.1,1.7,6.6C65.1,94.2,66,94.8,67,94.9z"/>
		<path class="st12" d="M67.2,92.3c0.6,0.5,1.4,0.8,2.2,0.6c0.8-0.1,1.4-0.6,1.8-1.2c1.2-1.5,1.3-3.5,0.3-5.1
			c-0.4-0.6-0.9-1.1-1.5-1.4c-0.7-0.3-1.5-0.4-2.2-0.2c-1.1,0.4-1.7,1.5-2,2.5C65.4,89.2,65.7,91.2,67.2,92.3z"/>
		<path class="st12" d="M62.8,87.4c0.7-1.7,1.8-2.9,2.9-3.3c1.6-0.6,3.8-0.7,5.3,0c2.6,1.2,3.8,2.7,4.3,4.6c0.1,0.5,0.8,0.2,0.8-0.8
			c0-0.6-0.3-1.6-0.8-2.5c-1.8-2.9-5.3-4.2-8.3-3.5c-2,0.4-4.9,2.3-5.1,5.5C62.1,87.9,62.6,87.9,62.8,87.4z"/>
		<path class="st12" d="M75.5,89c1.1,0,2.1-0.6,3-1.2c-1.1-0.1-2.2-0.1-3.2-0.2C75.6,88,75.5,88.4,75.5,89z"/>
	</g>
	<g>
		<g>
			<g>
				<path class="st13" d="M65,107.3c0.3-0.2,0.7-0.2,0.8,0c0.4,0.8,0.6,0.3,0.3-0.3c-0.1-0.4-0.3-0.9-0.4-1.3
					c-0.4-0.7-0.4,0.9-0.8,1.2c-0.4,0.3-0.9,0.5-1.3,0.6c-1.3,0.5-2.6,1-3.9,1.5C58,110.4,63.7,108.1,65,107.3z"/>
			</g>
		</g>
		<g>
			<g>
				<path class="st13" d="M47,107c0.1-0.2,0.5-0.2,0.8,0c1.3,0.9,6.9,3.4,5.2,2c-1.3-0.5-2.5-1.1-3.8-1.6c-0.4-0.2-0.9-0.4-1.3-0.7
					c-0.4-0.3-0.3-1.9-0.7-1.2c-0.2,0.4-0.3,0.9-0.5,1.3C46.4,107.3,46.5,107.8,47,107z"/>
			</g>
		</g>
		<g>
			<g>
				<path class="st13" d="M64.2,107.4c0,0-4.8-0.6-6.2-0.7c-0.5,0-0.9-0.1-1.4-0.1c1,1.6,2,3.2,2.8,4.9
					C62,110.3,63.7,108.5,64.2,107.4z"/>
				<path class="st13" d="M53.8,111.4c1.8,0.7,3.4,1.1,5.2,0.3c0.2-0.1,0.4-0.2,0.5-0.3c-0.9-1.6-1.8-3.2-2.8-4.9
					c-0.6,0-1.2,0-1.9,0c-1.3,0-5.9,0.8-5.9,0.8C49.3,108.3,52,110.7,53.8,111.4z"/>
			</g>
		</g>
		<g>
			<g>
				<path class="st13" d="M64.5,107.3c-0.4-0.4-2.9-1.4-3.8-1.8c-1.1-0.4-2.5-0.7-4-0.7c-0.4,0-0.8,0-1.2,0c0.8,1.2,1.5,2.3,2.2,3.5
					C61.3,108.3,64.9,107.7,64.5,107.3z"/>
				<path class="st13" d="M57,108.4c0.2,0,0.5,0,0.7,0c-0.7-1.2-1.4-2.3-2.2-3.5c-1.1,0.1-2.1,0.3-3.2,0.6c-1,0.3-3.2,1.3-3.7,1.8
					C48.1,107.8,52.6,108.4,57,108.4z"/>
			</g>
		</g>
	</g>
</g>
<path class="st0" d="M39.8,77.8c1,0.2,2,0.4,2.9,0.6c0.9,0.2,4,1.5,5,1.3c0.9-0.1,1.7-0.6,2.2-1.4c-1.1,0.3-2.3-0.1-3.4-0.5
	c-3.2-1.3-6.2-2.2-9.5-0.4C37.5,77.2,39.2,77.7,39.8,77.8z"/>
<path class="st0" d="M64.5,79.7c0.9,0.2,4.1-1.1,5-1.3c1-0.2,2-0.4,2.9-0.6c0.5-0.1,2.3-0.6,2.8-0.4c-3.2-1.8-6.3-0.9-9.5,0.4
	c-1.1,0.4-2.3,0.8-3.4,0.5C62.8,79,63.6,79.5,64.5,79.7z"/>
<g>
	<g>
		<path class="st0" d="M21,59.8c-6.6,16.9,6.1,55.9,7.9,76.3c1.8,20.4-7.9,25.1-7.9,25.1c6.9,10.7,16.2,5.2,16.2,5.2
			c0.5,14.4-6.9,18.4-6.9,18.4C32,193,44,192.3,44,192.3c-3.2,7.3-9.1,7.3-9.1,7.3c0.9,3.1,25.5,30.7,52.1,11.7
			C70.9,154.1,51.4,99.7,27.6,46.3C25.1,50.3,22.9,54.9,21,59.8z"/>
		<path class="st0" d="M92.8,133.4c2,0.5,4.9,0,4.9,0s-21.3-8-12.7-49.3c8.6-41.3-9.1-53.7-28.7-53.7c-13.9,0-22.5,6.2-28.6,15.9
			C51.4,99.7,70.9,154.1,87,211.3c1.9-1.4,3.8-2.9,5.7-4.8C121.4,178.6,92.8,133.4,92.8,133.4z"/>
	</g>
</g>
<g>
	<g>
		<path class="st1" d="M37.5,224.9c0,0,2.3,19.1,2.3,31.4c0,12.4-0.3,17.6,4.6,17.6c5.7,0,5.2-4.9,5.2-17.4s2.1-31.6,2.1-31.6H37.5z
			"/>
	</g>
</g>
<g>
	<g>
		<path class="st2" d="M39.8,265.1c0.2,6,1.1,8.7,4.5,8.7c4.2,0,5-2.6,5.2-8.8c-1.4-0.7-3-1-4.7-1C43,264,41.3,264.4,39.8,265.1z"/>
	</g>
</g>
<g>
	<g>
		<path class="st1" d="M63.2,224.9c0,0,2.3,19.1,2.3,31.4c0,12.4-0.3,17.6,4.6,17.6c5.7,0,5.2-4.9,5.2-17.4s2.1-31.6,2.1-31.6H63.2z
			"/>
	</g>
</g>
<g>
	<g>
		<path class="st2" d="M65.6,265.1c0.2,6,1.1,8.7,4.5,8.7c4.2,0,5-2.6,5.2-8.8c-1.4-0.7-3-1-4.7-1C68.7,264,67,264.4,65.6,265.1z"/>
	</g>
</g>
<g>
	<g>
		<path class="st0" d="M63,29.1l6.5,0.5c7.8-1.1,9.4-9.3,9.4-9.3c-0.7,0.5-3.5,1-3.5,1c-0.1-3.3,3.5-6.1,3.5-6.1
			c-4-1-5.3,1.8-5.3,1.8c-1.5-4.3,2.5-6.8,2.5-6.8c-5.5-0.8-7.2,3.8-7.2,3.8c-1.2-2,0.4-7.5,0.4-7.5C63,7,62,15.1,62,15.1
			c-3.3-1.3-2.2-5.6-2.2-5.6C51.5,22.5,63,29.1,63,29.1z"/>
	</g>
</g>
<g>
	<g>
		<path class="st2" d="M68.1,34c0,0,2.3,0.1,2.7-2.5c0.3-2.6-4.1-3.2-7.4-3.1c-3.3,0.1-2.5,2.2-2.5,2.2L68.1,34z"/>
	</g>
</g>
<g>
	<g>
		<path class="st3" d="M82.4,183h-3.7c1.6,5.1,3.1,10.2,4.6,15.3C83.4,192.5,83.1,187.1,82.4,183z"/>
		<path class="st3" d="M32.4,183c-2.3,14.2,0.8,42.5,3.2,56.1h43.7c1.8-9.7,3.9-26.7,4.1-40.8c-1.5-5.1-3-10.2-4.6-15.3H32.4z"/>
	</g>
</g>
<g>
	<g>
		<g>
			<g>
				<path class="st1" d="M36.7,192.9c0.4-0.8,0.7-7.4-0.4-11.2l-7-1.8c0,0-1.5,8.1,0.7,12.9c2.1,4.8,4.3,7.6,6.9,6.7
					s-1.5-5.9-1.7-6.3C35.1,193.2,36.2,193.8,36.7,192.9z"/>
			</g>
		</g>
		<g>
			<g>
				<path class="st4" d="M33.3,190.4c0,0-0.7,3.5,2.6,4.1c-0.5-0.7-0.9-1.2-0.9-1.3C35.1,193.2,33.8,192.8,33.3,190.4z"/>
			</g>
		</g>
		<g>
			<g>
				<path class="st1" d="M76.4,181.7c-1.1,3.8-0.8,10.4-0.4,11.2c0.4,0.8,1.6,0.3,1.6,0.3c-0.2,0.4-4.3,5.4-1.7,6.3
					c2.3,0.8,4.3-1.3,6.2-5.2c-1.3-4.3-2.6-8.7-3.9-13L76.4,181.7z"/>
				<path class="st1" d="M83.4,179.9l-5.3,1.3c1.3,4.3,2.7,8.6,3.9,13c0.2-0.5,0.4-0.9,0.7-1.4C84.9,188,83.4,179.9,83.4,179.9z"/>
			</g>
		</g>
		<g>
			<g>
				<path class="st4" d="M77.6,193.2c-0.1,0.1-0.5,0.6-0.9,1.3c3.4-0.5,2.6-4.1,2.6-4.1C78.9,192.8,77.6,193.2,77.6,193.2z"/>
			</g>
		</g>
		<g>
			<g>
				<path class="st5" d="M43.4,116.4c0,0-14.5,15.5-17.3,61.6c0,0,4.4,4,10.2,3.7l-0.3,1.9c0,0,10,1.2,20.4,1.2c0,0,0,0,0,0
					c0,0,0,0,0,0h0c10.4,0,20.4-1.2,20.4-1.2l-0.3-1.9c0.6,0,1.3,0,1.9,0c-6.8-22.1-14.2-43.8-22.1-65.2H43.4z"/>
				<path class="st5" d="M69.3,116.4h-13h0h-0.2c7.9,21.4,15.3,43.1,22.1,65.2c4.9-0.4,8.3-3.6,8.3-3.6
					C83.6,126,69.3,116.4,69.3,116.4z"/>
			</g>
		</g>
		<g>
			<g>
				<path class="st6" d="M71.6,133.8c1.1,6.5,3,27.7,4.1,39.5c0.9,2.7,1.7,5.5,2.6,8.3c0.3,0,0.6,0,0.9-0.1
					C77.7,168.4,72.6,139.1,71.6,133.8z"/>
				<path class="st6" d="M76.4,181.7c0.6,0,1.3,0,1.9,0c-0.9-2.8-1.7-5.5-2.6-8.3C76.1,178.3,76.4,181.7,76.4,181.7z"/>
				<path class="st6" d="M71.6,133.8c-0.1-0.3-0.1-0.6-0.1-0.8C71.5,133,71.5,133.3,71.6,133.8z"/>
			</g>
		</g>
		<g>
			<g>
				<path class="st6" d="M36.3,181.7c0,0,3.3-38.6,4.8-47.8c-0.9,5.3-6.1,34.5-7.5,47.7C34.4,181.7,35.3,181.7,36.3,181.7z"/>
				<path class="st6" d="M41.1,133.8c0.1-0.5,0.1-0.8,0.1-0.8C41.2,133.3,41.1,133.5,41.1,133.8z"/>
			</g>
		</g>
	</g>
	<g>
		<g>
			<path class="st7" d="M58.3,123.9h-4.1c-0.6,0-1.1,0.5-1.1,1.1v2c0,0.6,0.5,1.1,1.1,1.1h4.1c0.6,0,1.1-0.5,1.1-1.1v-1.6
				c-0.2-0.4-0.3-0.9-0.5-1.3C58.8,124,58.6,123.9,58.3,123.9z"/>
			<path class="st7" d="M59,124.1c0.2,0.4,0.3,0.9,0.5,1.3V125C59.5,124.6,59.3,124.3,59,124.1z"/>
		</g>
	</g>
	<g>
		<g>
			<polygon class="st7" points="54.9,126 52.4,164 56.3,169.9 60.1,164.1 57.8,126 			"/>
		</g>
	</g>
	<g>
		<g>
			<path class="st6" d="M69.6,116.4H56.2c1.3,3.5,2.6,7,3.9,10.5l2.8,2.8L69.6,116.4z"/>
			<path class="st6" d="M43.4,116.4l6.4,13.3l6.5-6.4l3.7,3.7c-1.3-3.5-2.6-7-3.9-10.5H43.4z"/>
		</g>
	</g>
</g>
<g>
	<g>
		<g>
			<path class="st8" d="M87.1,85.1c-4.1-3.2-8.4,2.1-8.4,2.1L74.1,104C86.2,103.9,91.2,88.3,87.1,85.1z"/>
		</g>
	</g>
	<g>
		<g>
			<path class="st8" d="M25.3,85.1c-4.1,3.2,1,18.9,13,19l-4.6-16.8C33.6,87.2,29.4,81.8,25.3,85.1z"/>
		</g>
	</g>
	<g>
		<g>
			<path class="st1" d="M28.9,74.8c0,23.8,9.9,43.5,22.8,47.3C44.2,105.3,37,88.3,29.2,71.8C29,72.7,28.9,73.7,28.9,74.8z"/>
			<path class="st1" d="M29.2,71.8c7.8,16.5,15,33.5,22.6,50.2c1.5,0.4,3,0.7,4.5,0.7c0.7,0,1.4-0.1,2.2-0.2
				C51,102.2,43,82.1,34.5,62.2C31.8,64.7,29.8,67.9,29.2,71.8z"/>
			<path class="st1" d="M83.6,74.8c0-6.8-1.7-16.5-7-19.8c-5.7-3.6-15.3-0.4-22.8,0.1c-7.4,0.4-14.5,2.8-19.3,7.2
				c8.5,19.9,16.5,40,23.9,60.4C72.5,120.6,83.6,100,83.6,74.8z"/>
		</g>
	</g>
	<g>
		<g>
			<path class="st9" d="M77.4,58.2c2.4,4.3,5.5,17.2,4.2,26.6c1-0.6,2.2-1,3.4-0.8c7.3-35.2-4.5-49.4-20.4-52.8L49.4,45l-1.1,13.9
				C48.3,58.9,74.8,53.7,77.4,58.2z"/>
		</g>
	</g>
	<g>
		<g>
			<path class="st0" d="M28,83.9c0,0,2.2-0.7,5.6-2.5c-1.7-3.7-3.4-7.4-5.1-11.1L28,83.9z"/>
			<path class="st0" d="M29,56l-0.5,14.4c1.7,3.7,3.4,7.4,5.1,11.1c2-1.1,4.5-2.6,7.1-4.5c-3.1-7.5-6.3-15-9.5-22.4L29,56z"/>
			<path class="st0" d="M64.6,31.3L31.2,54.4c3.3,7.5,6.4,14.9,9.5,22.4C50.4,69.6,62.4,55.8,64.6,31.3z"/>
		</g>
	</g>
</g>
<g>
	<path class="st10" d="M54.8,99.8c0.4,0.2,0.8,0.4,1.3,0.4c0.7,0,1.3-0.4,1.8-0.8c0.9-0.6,2.5-1.6,2-2.4c-1.3-0.7-4.4-0.6-6.8-0.2
		c-0.3,0.1-0.6,0.1-0.9,0.3s-0.2,0.5-0.1,0.8C52.7,98.5,53.6,99.2,54.8,99.8z"/>
	<path class="st12" d="M65.3,106.6c0.2-0.5,0.6-0.9,1-1.2c0.1-0.1,0.2-0.1,0.3-0.1c0.2,0,0.2,0.3,0.4,0.4c0.1,0.1,0.3,0,0.3-0.2
		c0.1-0.1,0-0.3,0-0.4c0-0.2,0-0.3-0.1-0.5c0-0.1,0-0.2-0.1-0.3c-0.1-0.1-0.2-0.2-0.3-0.2c-0.1,0-0.2,0.1-0.2,0.3
		c0,0.1-0.1,0.2-0.1,0.4c-0.1,0.3-0.4,0.3-0.7,0.4c-0.1,0-1,0.1-1,0c-0.1,1-0.6,1.7-0.7,2.7C64,107.2,65.2,106.8,65.3,106.6z"/>
	<path class="st12" d="M46.4,105c-0.3,0-0.6-0.1-0.7-0.4c-0.1-0.1-0.1-0.2-0.1-0.4c0-0.1-0.1-0.2-0.2-0.3c-0.1,0-0.2,0.1-0.3,0.2
		c-0.1,0.1-0.1,0.2-0.1,0.3c0,0.2,0,0.3-0.1,0.5c0,0.1,0,0.3,0,0.4c0.1,0.1,0.2,0.2,0.3,0.2c0.2-0.1,0.2-0.3,0.4-0.4
		c0.1,0,0.2,0,0.3,0.1c0.4,0.3,0.8,0.8,1,1.2c0.1,0.2,0.9,1.4,0.9,1.5c-0.1-1,0.9-2.1,0.8-3.1C48.5,105,46.5,105,46.4,105z"/>
	<g>
		<g>
			<g>
				<path class="st13" d="M57.1,115c5-0.4,7-6.5,7-6.5H53.2c0.8,2.2,1.6,4.3,2.4,6.5C56.1,115.1,56.6,115.1,57.1,115z"/>
				<path class="st13" d="M48,108.5c0,0,1.8,6.1,7.7,6.5c-0.8-2.2-1.6-4.3-2.4-6.5H48z"/>
			</g>
		</g>
		<g>
			<g>
				<path class="st12" d="M48.7,105c-0.9,0-2.2,0.8-1.9,1.7c0.2,0.6,1.7,2.7,1.8,2.9c0.4,0.6,0.9,1.1,1.5,1.6
					c1.1,0.9,2.7,1.6,4.8,1.8c-1-2.7-2-5.4-3.1-8.1H48.7z"/>
				<path class="st12" d="M59.8,112.5c1.5-0.6,2.3-1.4,3.1-2.4c1.1-1.3,1.9-2.5,2.4-3.4c0.3-0.5,0.3-1.3-0.1-1.6
					c-0.1,0-1.7-0.1-2.1-0.1H51.9c1,2.7,2,5.4,3.1,8.1c0.5,0,0.9,0.1,1.4,0.1C57.7,113.1,58.8,112.9,59.8,112.5z"/>
			</g>
		</g>
		<g>
			<g>
				<path class="st11" d="M48.6,105c0,1.1,0.4,1.8,1.2,2.2c0.7,0.2,1.7,0.4,3,0.5c-0.3-0.9-0.7-1.8-1-2.7L48.6,105z"/>
				<path class="st11" d="M61.9,107.2c1-0.4,1.2-1.1,1.2-2.2l-11.3,0c0.3,0.9,0.7,1.8,1,2.7C55.8,108,59.9,108,61.9,107.2z"/>
			</g>
		</g>
		<g>
			<g>
				<path class="st14" d="M50.1,111.2c1.1,0.9,2.7,1.6,4.8,1.8c-0.4-1.2-0.9-2.3-1.3-3.5C50.7,109.6,50.2,111.1,50.1,111.2z"/>
				<path class="st14" d="M59.8,112.5c-0.2-0.9-1.7-2.6-5.2-2.9c-0.4,0-0.7,0-1,0c0.4,1.2,0.9,2.3,1.3,3.5c0.5,0,0.9,0.1,1.4,0.1
					C57.7,113.1,58.8,112.9,59.8,112.5z"/>
			</g>
		</g>
		<g>
			<g>
				<path class="st13" d="M47.9,105l3.9,0c-0.2-0.4-0.3-0.9-0.5-1.3C49.4,104.3,47.9,105,47.9,105z"/>
				<path class="st13" d="M56.1,103c-1.6,0-3.3,0.3-4.7,0.8c0.2,0.4,0.3,0.9,0.5,1.3l11.9,0C63.8,105,62.5,103,56.1,103z"/>
			</g>
		</g>
	</g>
	<g>
		<path class="st12" d="M36.3,87.3c-0.7,0.7-1.6,2.5-1.7,3.1c-0.1,0.4,0.4,1,0.7,0.6c1.5-2.4,2.9-3.3,4.9-3.6c1.7-0.2,4,0.3,5.3,1.4
			c-0.4-0.9-0.7-1.9-1.1-2.8C41.7,84.9,38.7,85,36.3,87.3z"/>
		<path class="st12" d="M47.9,92.1c0.2,0.5,0.7,0.6,0.8,0.3c0-2.2-1.2-5-4-6.2c-0.1,0-0.2-0.1-0.3-0.1c0.4,0.9,0.7,1.9,1.1,2.8
			c0,0,0.1,0.1,0.1,0.1C46.9,90,47.7,91.4,47.9,92.1z"/>
		<path class="st12" d="M35.2,91.2c0.1-0.6,0.1-0.9,0.5-1.3c-1.1-0.1-2.1-0.3-3.2-0.4C33.3,90.2,34.1,91,35.2,91.2z"/>
		<path class="st10" d="M44.7,91c-1-0.2-2-0.1-3,0.3c1.8,0,3.5,0.3,5.2,1c0-0.1-0.1-0.2-0.1-0.4C46.2,91.5,45.5,91.2,44.7,91z"/>
		<path class="st10" d="M46.8,92c0,0.1,0.1,0.2,0.1,0.4c0.1,0.1,0.3,0.1,0.4,0.2C47.2,92.3,47,92.1,46.8,92z"/>
	</g>
	<g>
		<path class="st12" d="M63.9,92.1c0.2-0.7,1-2.1,2.2-3.1c1.3-1.1,3.8-1.8,5.5-1.5c2,0.3,3.4,1.1,4.9,3.6c0.3,0.4,0.8-0.2,0.7-0.6
			c-0.1-0.6-1-2.4-1.7-3.1c-2.4-2.4-5.6-2.5-8.4-1.2c-2.7,1.3-4,4-4,6.2C63.2,92.7,63.8,92.6,63.9,92.1z"/>
		<path class="st12" d="M79.3,89.4c-1.1,0.1-2.1,0.3-3.2,0.4c0.5,0.4,0.4,0.7,0.5,1.3C77.7,91,78.5,90.2,79.3,89.4z"/>
		<path class="st10" d="M67.1,91c-1,0.2-1.9,0.7-2.6,1.5c1.8-0.8,3.7-1.2,5.6-1.1C69.1,90.9,68.1,90.8,67.1,91z"/>
	</g>
</g>
<path class="st0" d="M69.8,80.1c0.8,0.5,1.7,1.1,2.5,1.7c0.4,0.3,2.1,1.2,2.2,1.7c-1-3.6-3.8-5.1-7-6.4c-1.1-0.5-2.2-1-2.7-2
	c-0.2,0.9,0.1,1.8,0.6,2.5C65.9,78.3,69,79.6,69.8,80.1z"/>
<path class="st0" d="M45.9,77.5c0.5-0.7,0.7-1.6,0.6-2.5c-0.6,1-1.7,1.6-2.7,2c-0.9,0.4-1.7,0.8-2.5,1.2c0.2,0.5,0.4,1.1,0.7,1.6
	C43.1,79.2,45.4,78.2,45.9,77.5z"/>
<path class="st0" d="M36.8,83.5c0.1-0.5,1.8-1.4,2.2-1.7c0.8-0.6,1.6-1.1,2.5-1.7c0.1-0.1,0.3-0.1,0.4-0.2c-0.2-0.5-0.4-1.1-0.7-1.6
	C39.2,79.4,37.5,80.9,36.8,83.5z"/>
<g>
</g>
<g>
</g>
<g>
</g>
<g>
</g>
<g>
</g>
<g>
</g>
<g>
</g>
<g>
</g>
<g>
</g>
<g>
</g>
<g>
</g>
<g>
</g>
<g>
</g>
<g>
</g>
<g>
</g>
</svg>
